<svg width="1094" height="812" viewBox="0 0 1094 812" fill="none" xmlns="http://www.w3.org/2000/svg">
<rect width="1094" height="812" fill="#F5F5F5"/>
<g id="undraw_toy_car_-7-umw 1" clip-path="url(#clip0_0_1)">
<path id="Vector" opacity="0.1" d="M547 799.1C849.1 799.1 1094 754.552 1094 699.6C1094 644.648 849.1 600.1 547 600.1C244.9 600.1 0 644.648 0 699.6C0 754.552 244.9 799.1 547 799.1Z" fill="#2685AF"/>
<g id="boy_clothes">
<path id="Vector_2" d="M546.78 539.35H546.77C531.328 539.35 518.81 551.868 518.81 567.31V567.32C518.81 582.762 531.328 595.28 546.77 595.28H546.78C562.222 595.28 574.74 582.762 574.74 567.32V567.31C574.74 551.868 562.222 539.35 546.78 539.35Z" fill="#192534"/>
<path id="Vector_3" d="M532.13 639.28C535.88 635.99 539.69 632.64 542.39 628.45C544.87 624.61 546.33 620.22 547.7 615.86C551.613 603.4 554.983 590.783 557.81 578.01C542.42 575.66 530.93 562.07 515.88 558.08C515.52 557.98 504.01 627.14 503.17 633.46C502.48 638.68 496.52 663.61 503.31 663.75C506.94 663.83 514.52 654.75 517.2 652.36L532.13 639.28Z" fill="#3F3D56"/>
<path id="Vector_4" opacity="0.1" d="M532.13 639.28C535.88 635.99 539.69 632.64 542.39 628.45C544.87 624.61 546.33 620.22 547.7 615.86C551.613 603.4 554.983 590.783 557.81 578.01C542.42 575.66 530.93 562.07 515.88 558.08C515.52 557.98 504.01 627.14 503.17 633.46C502.48 638.68 496.52 663.61 503.31 663.75C506.94 663.83 514.52 654.75 517.2 652.36L532.13 639.28Z" fill="black"/>
<path id="Vector_5" d="M341.94 464.78C340.24 465.04 338.44 465.17 337.04 466.16C335.04 467.56 334.53 470.16 333.58 472.42C332.332 475.321 330.219 477.765 327.53 479.42C325.24 480.82 322.45 481.76 321.08 484.06C320.306 485.609 319.938 487.33 320.01 489.06C319.83 494.184 320.06 499.313 320.7 504.4C321.02 506.95 321.44 509.55 320.91 512.06C320.3 514.99 318.46 517.48 316.71 519.91C312.51 525.72 308.4 532.1 308.06 539.26C307.89 542.86 308.69 546.55 307.78 550.04C306.17 556.23 299.61 560.27 298.33 566.53C297.95 568.38 298.05 570.34 297.33 572.07C296.07 575.07 292.6 576.71 291.71 579.8C291.04 582.12 292.02 584.57 292.09 586.98C292.19 590.51 290.34 593.77 288.56 596.81L278.15 614.51C274.77 620.25 271.31 626.25 270.74 632.89C270.23 638.78 272.06 644.61 274.07 650.17C278.54 662.52 285.18 675.6 297.43 680.35C304.64 683.15 312.67 682.55 320.38 681.91C330.94 681.04 341.57 680.15 351.76 677.26C356.81 675.83 361.76 673.92 366.86 672.9C370.26 672.23 373.75 671.9 377.03 670.81C380.574 669.536 383.711 667.332 386.11 664.429C388.51 661.526 390.085 658.031 390.67 654.31C395.03 656.03 399.07 650.31 398.45 645.67C397.83 641.03 394.71 637.1 393.45 632.6C391.65 626.39 393.45 619.65 396.45 613.93C399.45 608.21 403.59 603.15 406.86 597.58C410.503 591.344 413.034 584.523 414.34 577.42C416.09 567.83 415.56 557.98 415.02 548.25L412.96 511.06C412.58 504.25 412.15 497.22 409.15 491.06C405.86 484.35 399.86 479.43 393.87 474.96C385.03 468.235 375.761 462.095 366.12 456.58C359.9 453.1 360.34 454.45 355.39 458.58C351.556 461.834 346.905 463.978 341.94 464.78Z" fill="#3F3D56"/>
<path id="Vector_6" d="M426 568.25C418.93 573.83 411.77 579.49 406.33 586.67C399.759 595.4 396.031 605.94 395.65 616.86C395.587 621.971 395.945 627.078 396.72 632.13C397.79 640.38 399.72 649.57 406.67 654.13C411.05 657 417.07 657.72 420.06 662.02C421 663.37 421.55 665.02 422.65 666.21C424.65 668.37 427.77 668.84 430.65 669C434.953 669.242 439.27 669.108 443.55 668.6C448.44 668.01 453.41 666.94 458.25 667.86C467.67 669.63 474.7 678.52 484.25 679.71C492.18 680.71 499.61 676.1 506.25 671.71C513.1 667.18 520.25 662.33 523.96 655C527.57 647.88 527.37 639.5 527.09 631.51C526.78 622.64 526.46 613.66 524.09 605.1C523.353 602.86 522.788 600.566 522.4 598.24C521.69 592.24 524.4 586.34 526.4 580.6C529.51 571.87 530.87 561.11 524.69 554.21C522.08 551.29 518.45 549.49 514.77 548.21C498.52 542.37 480.58 544.59 463.91 547.21C448 549.62 438.48 558.42 426 568.25Z" fill="#3F3D56"/>
<path id="Vector_7" d="M563.8 533.69C557.36 543.36 550.9 553.1 546.25 563.69C543.078 571.376 540.406 579.259 538.25 587.29C531.83 609.48 525.46 632.15 512.64 651.36C510.8 654.12 508.76 656.99 508.57 660.3C508.39 663.4 509.87 666.3 511.3 669.06C514.3 674.9 517.44 680.8 521.72 685.82C526 690.84 531.12 694.64 536.28 698.52C546.99 706.52 558.89 715 572.28 714.4C575.05 714.27 578.01 713.63 579.86 711.56C581.71 709.49 581.97 706.63 581.64 703.97C580.64 695.74 574.44 689.27 568.82 683.17C563.2 677.07 557.55 669.94 558 661.62C558.35 654.75 562.85 648.89 567.16 643.53C572.09 637.39 577.03 631.26 581.68 624.91C601.79 597.46 616.31 566.25 627.82 534.22C632.67 520.7 637.08 506.5 635.57 492.22C624.57 489.52 602.57 480.5 593.28 489.81C587.65 495.45 583.67 503.81 579.28 510.46L563.8 533.69Z" fill="#FBBEBE"/>
<path id="Vector_8" d="M656.68 439.8C649.711 451.955 644.257 464.919 640.44 478.4C639.51 481.66 638.68 485.1 639.39 488.4C640.16 491.94 642.57 494.85 644.39 497.97C646.21 501.09 647.49 505.04 645.84 508.26C638.04 508.87 630.31 506.74 622.77 504.63L599.13 498.03C597.171 497.653 595.334 496.802 593.78 495.55C591.04 492.96 591.25 488.61 591.78 484.89C596.41 454.43 611.28 426.35 616.85 396.06C617.66 391.69 618.51 386.85 621.99 384.06C631.99 376.16 654.63 382.85 659.81 394.29C665.6 406.99 663.23 428.39 656.68 439.8Z" fill="#2685AF"/>
<path id="Vector_9" d="M530.13 335.7C529.24 336.16 528.24 336.7 527.97 337.64C527.91 338.152 527.963 338.67 528.126 339.159C528.288 339.648 528.556 340.096 528.91 340.47L539 354.67C548.95 368.67 558.92 382.76 570.43 395.53C579.118 405.164 588.635 414.018 598.87 421.99C601.75 424.23 604.82 426.56 606.23 429.93C599.941 411.308 601.059 390.981 609.35 373.16C612.65 366.16 617.01 359.67 620.44 352.71C620.764 352.328 620.983 351.868 621.077 351.376C621.171 350.884 621.136 350.376 620.976 349.902C620.816 349.427 620.536 349.002 620.164 348.667C619.792 348.332 619.339 348.099 618.85 347.99C610.11 343.49 600.55 340.77 591.85 336.19C585.02 332.59 578.85 327.91 572.72 323.3C567.25 319.19 559.97 311.93 553.22 310.2C545.93 308.32 546.22 314.97 543.87 320.52C541.168 327.007 536.316 332.367 530.13 335.7Z" fill="#FBBEBE"/>
<path id="Vector_10" opacity="0.1" d="M530.13 335.7C529.24 336.16 528.24 336.7 527.97 337.64C527.91 338.152 527.963 338.67 528.126 339.159C528.288 339.648 528.556 340.096 528.91 340.47L539 354.67C548.95 368.67 558.92 382.76 570.43 395.53C579.118 405.164 588.635 414.018 598.87 421.99C601.75 424.23 604.82 426.56 606.23 429.93C599.941 411.308 601.059 390.981 609.35 373.16C612.65 366.16 617.01 359.67 620.44 352.71C620.764 352.328 620.983 351.868 621.077 351.376C621.171 350.884 621.136 350.376 620.976 349.902C620.816 349.427 620.536 349.002 620.164 348.667C619.792 348.332 619.339 348.099 618.85 347.99C610.11 343.49 600.55 340.77 591.85 336.19C585.02 332.59 578.85 327.91 572.72 323.3C567.25 319.19 559.97 311.93 553.22 310.2C545.93 308.32 546.22 314.97 543.87 320.52C541.168 327.007 536.316 332.367 530.13 335.7Z" fill="black"/>
<path id="Vector_11" d="M592 392.29C587.43 387.13 581.26 383.72 575.85 379.44C568.07 373.28 561.92 365.34 555.98 357.39C545.08 342.76 534.09 324.84 539.52 307.39C533.75 306.83 528.77 311.57 526.05 316.68C523.33 321.79 521.93 327.61 518.54 332.3C513.39 339.43 504.63 342.75 496.47 346.01C478.533 353.188 461.204 361.799 444.65 371.76C438 375.76 431.38 380.05 426.3 385.91C420.86 392.16 417.45 399.91 412.83 406.76C403.83 420.23 390.15 430.34 374.97 436.06C369.97 437.96 364.61 439.44 360.14 442.46C350.56 448.93 346.57 461.83 348.84 473.17C351.11 484.51 358.84 494.17 368.13 501.03C377.42 507.89 388 511.94 398.72 515.94C407.707 519.24 416.75 522.387 425.85 525.38C432.546 527.697 439.392 529.555 446.34 530.94C459.13 533.29 472.28 532.71 485.21 534.14C497.03 535.44 508.64 538.43 520.51 539.26C532.38 540.09 544.95 538.51 554.62 531.6C562.31 526.11 567.43 517.82 572.16 509.6C584.439 488.406 595.406 466.478 605 443.94C607.83 437.27 634.09 399.49 627.55 394.61C594.62 370.04 605.55 409.08 602.41 406.08C598.21 402.06 595.8 396.58 592 392.29Z" fill="#2685AF"/>
<path id="Vector_12" d="M551.21 369.69C544.14 355.47 539.36 340.25 534.61 325.11C533.3 320.91 531.98 316.37 533.39 312.21C535.09 307.21 540.53 302.94 538.93 297.93C526.21 301.93 511.44 308.2 508.93 321.31C508.38 324.17 508.48 327.22 507.15 329.8C504.56 334.86 497.96 335.94 492.35 336.8C476.03 339.41 459.81 345.99 448.63 358.16C446.75 360.16 444.98 362.43 442.63 363.93C440.93 364.931 439.122 365.737 437.24 366.33C426.3 370.26 415.05 375.16 408.01 384.41C404.38 389.17 402.06 394.88 398.01 399.3C392.53 405.3 384.46 408.3 378.53 413.89C374.53 417.61 371.68 422.33 369.04 427.1C358.88 445.46 351.43 466.99 356.82 487.28C359.63 497.89 365.82 507.34 369.15 517.8C373.74 532.05 373.29 548.3 381.9 560.55C387.33 568.25 395.73 573.34 404.33 577.18C423.466 585.693 444.489 589.078 465.33 587C473.058 586.101 480.735 584.806 488.33 583.12C506.46 579.38 524.78 575.31 541.25 566.85C569.34 552.42 589.55 526.63 608.85 501.63C612.52 496.87 616.22 492.07 618.85 486.63C621.42 481.44 622.97 475.82 624.7 470.3C630.55 451.69 638.78 433.16 638.01 413.68C638.041 411.347 637.581 409.034 636.66 406.89C635.88 405.29 634.66 403.89 633.97 402.28C632.75 399.4 633.3 396.07 632.44 393.06C630.05 384.66 619.01 383.06 610.27 383.13L607.47 432.42C607.04 439.82 606.25 448.03 600.74 452.99C598.383 455.018 595.441 456.242 592.341 456.485C589.241 456.728 586.144 455.976 583.5 454.34C577.62 450.53 576.79 443.88 576.83 437.51C576.89 429.51 576.24 422.18 573.69 414.51C568.41 398.6 558.63 384.64 551.21 369.69Z" fill="#192534"/>
<path id="Vector_13" d="M623.11 811.38C623.508 811.38 623.889 811.222 624.171 810.941C624.452 810.659 624.61 810.278 624.61 809.88C624.61 809.482 624.452 809.101 624.171 808.819C623.889 808.538 623.508 808.38 623.11 808.38C622.712 808.38 622.331 808.538 622.049 808.819C621.768 809.101 621.61 809.482 621.61 809.88C621.61 810.278 621.768 810.659 622.049 810.941C622.331 811.222 622.712 811.38 623.11 811.38Z" fill="black"/>
</g>
<g id="boy_car">
<path id="Vector_14" d="M767.376 728.64C768.112 725.632 769.572 722.85 771.629 720.536C773.686 718.221 776.277 716.444 779.178 715.36C782.078 714.276 785.199 713.916 788.27 714.314C791.341 714.711 794.268 715.853 796.796 717.64L797.576 718.21C814.306 730.75 804.376 753.75 797.576 754.27C790.776 754.79 777.696 755.35 777.696 755.35C777.696 755.35 762.286 748.99 767.376 728.64Z" fill="#192534"/>
<path id="Vector_15" d="M918.316 713.01V717.19C918.316 717.19 850.316 721.89 843.056 721.89H829.466C829.466 721.89 829.266 722.1 828.936 722.48C828.376 723.11 827.426 724.22 826.376 725.6C824.236 728.38 821.686 732.26 821.096 735.48C820.096 741.23 816.396 743.32 816.396 743.32L802.806 739.67L789.696 723.99L787.786 722.15L782.346 716.96L777.696 712.51L777.926 710.01V709.63C779.038 704.258 780.46 698.956 782.186 693.75C782.186 693.61 782.276 693.46 782.326 693.32C786.096 682 792.386 668.25 801.446 664.16C802.136 663.85 802.856 663.55 803.626 663.28L804.546 662.96C821.926 657.14 854.766 659.45 854.766 659.45C854.766 659.45 879.846 666.77 881.946 669.91C884.046 673.05 907.816 698.91 907.816 698.91C909.903 700.483 911.826 702.262 913.556 704.22C915.786 706.69 917.856 709.8 918.316 713.01Z" fill="#2685AF"/>
<path id="Vector_16" opacity="0.1" d="M775.626 747.51C779.669 747.51 782.946 742.361 782.946 736.01C782.946 729.658 779.669 724.51 775.626 724.51C771.584 724.51 768.306 729.658 768.306 736.01C768.306 742.361 771.584 747.51 775.626 747.51Z" fill="white"/>
<path id="Vector_17" opacity="0.1" d="M788.176 698.9C788.176 698.9 825.286 709.9 832.596 705.17C832.596 705.17 835.216 671.72 817.966 669.63C817.966 669.63 808.036 667.01 805.966 668.63C803.896 670.25 788.176 698.9 788.176 698.9Z" fill="white"/>
<path id="Vector_18" opacity="0.1" d="M836.256 674.33C836.256 674.33 843.576 702.03 848.806 702.56C854.036 703.09 906.806 702.03 904.726 698.37C902.646 694.71 879.636 671.2 879.636 671.2L836.256 674.33Z" fill="white"/>
<path id="Vector_19" d="M827.276 724.45C827.276 724.45 836.776 711.96 853.506 724.51C870.236 737.06 860.296 760.05 853.506 760.57C846.716 761.09 833.696 761.62 833.696 761.62C833.696 761.62 813.066 753.14 827.276 724.45Z" fill="#192534"/>
<path id="Vector_20" d="M925.946 727.63C925.25 725.656 924.152 723.848 922.722 722.32C921.292 720.791 919.56 719.577 917.636 718.751C915.713 717.926 913.639 717.509 911.546 717.526C909.453 717.543 907.386 717.994 905.476 718.85C903.608 719.73 901.838 720.806 900.196 722.06C885.306 733.22 894.196 753.69 900.196 754.16C902.366 754.32 905.256 754.49 908.066 754.64C910.943 754.793 913.816 754.276 916.46 753.13C919.103 751.984 921.444 750.24 923.299 748.036C925.155 745.832 926.473 743.228 927.151 740.428C927.829 737.628 927.848 734.708 927.206 731.9C926.868 730.454 926.447 729.028 925.946 727.63Z" fill="#192534"/>
<path id="Vector_21" opacity="0.1" d="M831.556 753.78C835.599 753.78 838.876 748.631 838.876 742.28C838.876 735.928 835.599 730.78 831.556 730.78C827.514 730.78 824.236 735.928 824.236 742.28C824.236 748.631 827.514 753.78 831.556 753.78Z" fill="white"/>
<path id="Vector_22" d="M775.626 709.87C775.626 709.87 772.486 717.71 775.626 718.24C778.766 718.77 785.816 712.24 794.966 739.67C794.966 739.67 809.076 750.67 822.666 746.46C822.666 746.46 821.046 726.6 832.316 721.89C843.586 717.18 862.386 740.71 862.386 740.71V745.94L906.816 741.23C906.816 741.23 920.406 730.78 919.886 714.58L852.986 718.76C852.986 718.76 836.256 718.76 827.896 717.19C819.536 715.62 815.896 739.19 815.896 739.19L775.626 709.87Z" fill="#2685AF"/>
<path id="Vector_23" d="M595.386 537.72C630.206 555.37 665.226 573.15 696.386 596.65C703.586 602.07 710.586 607.81 718.196 612.65C740.006 626.51 767.066 633.26 783.896 652.86C787.436 656.97 790.436 661.59 794.516 665.15C798.057 668.057 802.015 670.417 806.256 672.15C819.777 678.117 834.418 681.121 849.196 680.96C853.066 680.91 857.046 680.62 860.526 678.96C869.896 674.42 872.026 662.26 872.976 651.89C873.296 648.38 873.366 644.24 870.606 642.06C869.116 640.89 867.146 640.59 865.276 640.3C834.866 635.5 806.806 620.86 781.396 603.47C755.986 586.08 732.696 565.78 707.636 547.89C698.826 541.6 689.806 535.61 680.786 529.62L651.596 510.24C636.156 499.99 619.896 489.43 601.456 487.5C600.408 487.317 599.331 487.389 598.316 487.71C596.696 488.34 595.796 490.02 595.006 491.56C589.596 502.1 583.006 511.67 576.376 521.43C572.826 526.65 572.426 528 578.546 530.79C584.056 533.31 589.896 534.94 595.386 537.72Z" fill="#FBBEBE"/>
<path id="Vector_24" d="M489.786 464.22C493.646 474.83 503.346 482.03 512.546 488.59L536.546 505.71C542.926 510.26 549.476 514.98 553.626 521.62C547.556 523.92 544.786 531.72 546.776 537.9C548.766 544.08 554.476 548.51 560.696 550.51C566.916 552.51 573.516 552.44 580.006 552.07C587.456 551.66 595.256 550.76 601.406 546.53L587.896 538.21C584.336 536 580.246 532.48 581.546 528.51L595.796 528.37C597.296 528.37 598.926 528.3 600.116 527.37C601.306 526.44 601.716 525.01 602.216 523.65C604.335 518.151 607.952 513.355 612.657 509.806C617.362 506.257 622.967 504.097 628.836 503.57C632.356 503.31 636.406 503.46 638.836 500.84C640.416 499.1 640.756 496.6 641.036 494.27C641.566 489.83 642.086 485.27 641.206 480.92C640.326 476.57 637.786 472.25 633.706 470.42C630.706 469.06 627.236 469.19 623.956 468.75C608.866 466.75 598.406 453.07 590.306 440.18C582.206 427.29 573.516 413.03 559.076 408.23C554.567 406.88 549.893 406.163 545.186 406.1C534.776 405.67 524.056 406.52 514.576 410.84C496.906 418.89 482.906 445.34 489.786 464.22Z" fill="#2685AF"/>
<path id="Vector_25" opacity="0.1" d="M811.24 692.76C811.24 692.76 810.24 677.6 826.4 683.87C842.56 690.14 832.15 696.94 832.15 696.94L811.24 692.76Z" fill="white"/>
<path id="Vector_26" opacity="0.1" d="M877.62 685.44V687.53L875.01 688.53L869.68 687.53C869.68 687.53 868.54 678.97 872.91 676.53C875.09 679.12 877.16 682.23 877.62 685.44Z" fill="white"/>
</g>
<g id="boy_head">
<path id="Vector_27" d="M634.05 413.2C686.876 413.2 729.7 370.376 729.7 317.55C729.7 264.724 686.876 221.9 634.05 221.9C581.224 221.9 538.4 264.724 538.4 317.55C538.4 370.376 581.224 413.2 634.05 413.2Z" fill="#FBBEBE"/>
<path id="Vector_28" d="M558.87 354.85C560.57 346.26 570.43 341.92 579.16 341.34C587.994 340.865 596.797 342.726 604.683 346.736C612.569 350.746 619.259 356.762 624.08 364.18C626.102 358.818 627.466 353.231 628.14 347.54L644.14 348.73C645.926 349.006 647.752 348.841 649.46 348.25C651.52 347.33 652.79 345.25 653.86 343.25C660.86 330.18 665.54 314.14 678.68 307.25V325.25C682.278 324.55 685.666 323.033 688.584 320.815C691.503 318.597 693.872 315.739 695.51 312.46C696.412 317.443 697.847 322.314 699.79 326.99C700.11 327.77 700.56 328.63 701.37 328.83C701.765 328.859 702.162 328.803 702.535 328.667C702.907 328.531 703.246 328.317 703.53 328.04C709.657 323.39 715.2 318.018 720.04 312.04L739.04 344.98C750.017 317.26 750.617 286.508 740.729 258.381C730.84 230.254 711.129 206.643 685.22 191.89C680.827 189.359 676.243 187.176 671.51 185.36C659.14 180.7 645.81 179.21 632.62 178.31C613.87 177.03 594.08 177.08 577.62 186.07C568.77 190.9 561.42 198.02 554.32 205.18C544.72 214.84 535.12 225.05 530.01 237.68C526.48 246.4 525.27 255.85 524.2 265.19C523.55 270.84 522.95 276.68 524.56 282.13C525.68 285.9 527.79 289.29 529.21 292.96C531.57 299.06 531.94 305.72 532.85 312.2C534.869 326.52 539.546 340.337 546.64 352.94C548.14 355.61 550.06 358.45 553.05 359.13C556.04 359.81 559.63 356.51 558.05 353.91" fill="#192534"/>
<path id="Vector_29" d="M558.87 354.85C560.57 346.26 570.43 341.92 579.16 341.34C587.994 340.865 596.797 342.726 604.683 346.736C612.569 350.746 619.259 356.762 624.08 364.18C626.102 358.818 627.466 353.231 628.14 347.54L644.14 348.73C645.926 349.006 647.752 348.841 649.46 348.25C651.52 347.33 652.79 345.25 653.86 343.25C660.86 330.18 665.54 314.14 678.68 307.25V325.25C682.278 324.55 685.666 323.033 688.584 320.815C691.503 318.597 693.872 315.739 695.51 312.46C696.412 317.443 697.847 322.314 699.79 326.99C700.11 327.77 700.56 328.63 701.37 328.83C701.765 328.859 702.162 328.803 702.535 328.667C702.907 328.531 703.246 328.317 703.53 328.04C709.657 323.39 715.2 318.018 720.04 312.04L739.04 344.98C750.017 317.26 750.617 286.508 740.729 258.381C730.84 230.254 711.129 206.643 685.22 191.89C680.827 189.359 676.243 187.176 671.51 185.36C659.14 180.7 645.81 179.21 632.62 178.31C613.87 177.03 594.08 177.08 577.62 186.07C568.77 190.9 561.42 198.02 554.32 205.18C544.72 214.84 535.12 225.05 530.01 237.68C526.48 246.4 525.27 255.85 524.2 265.19C523.55 270.84 522.95 276.68 524.56 282.13C525.68 285.9 527.79 289.29 529.21 292.96C531.57 299.06 531.94 305.72 532.85 312.2C534.869 326.52 539.546 340.337 546.64 352.94C548.14 355.61 550.06 358.45 553.05 359.13C556.04 359.81 559.63 356.51 558.05 353.91" stroke="black" stroke-miterlimit="10"/>
<path id="Vector_30" opacity="0.1" d="M739.13 327.18L720.13 294.24C715.293 300.22 709.749 305.593 703.62 310.24C703.338 310.52 703 310.737 702.627 310.875C702.254 311.013 701.856 311.069 701.46 311.04C700.65 310.84 700.2 309.98 699.88 309.2C697.937 304.521 696.502 299.646 695.6 294.66C693.964 297.941 691.595 300.802 688.677 303.022C685.759 305.241 682.369 306.76 678.77 307.46V289.46C665.63 296.37 660.99 312.41 653.95 325.46C652.88 327.46 651.61 329.51 649.55 330.46C647.842 331.051 646.016 331.216 644.23 330.94L628.23 329.75C627.556 335.441 626.192 341.028 624.17 346.39C619.349 338.972 612.659 332.956 604.773 328.946C596.887 324.936 588.084 323.075 579.25 323.55C570.52 324.13 560.66 328.47 558.96 337.06L558.11 336.12C559.72 338.73 556.11 342.03 553.11 341.35C550.11 340.67 548.2 337.83 546.7 335.16C539.625 322.543 534.968 308.716 532.97 294.39C532.06 287.91 531.69 281.25 529.33 275.15C527.91 271.48 525.8 268.09 524.68 264.32C524.68 264.19 524.61 264.07 524.58 263.94C524.49 264.69 524.4 265.44 524.32 266.19C523.67 271.85 523.07 277.68 524.68 283.19C525.8 286.96 527.91 290.35 529.33 294.01C531.69 300.12 532.06 306.77 532.97 313.26C534.966 327.584 539.623 341.408 546.7 354.02C548.2 356.69 550.12 359.54 553.11 360.22C556.1 360.9 559.69 357.6 558.11 354.99L558.96 355.92C560.66 347.34 570.52 342.99 579.25 342.42C588.083 341.941 596.887 343.799 604.773 347.807C612.66 351.816 619.35 357.832 624.17 365.25C626.193 359.892 627.557 354.308 628.23 348.62L644.23 349.8C646.016 350.08 647.843 349.915 649.55 349.32C651.61 348.4 652.88 346.32 653.95 344.32C660.95 331.24 665.63 315.21 678.77 308.32V326.32C682.369 325.62 685.759 324.101 688.677 321.882C691.595 319.662 693.964 316.801 695.6 313.52C696.504 318.505 697.939 323.38 699.88 328.06C700.2 328.83 700.65 329.7 701.46 329.89C701.856 329.923 702.254 329.87 702.627 329.734C703 329.597 703.339 329.381 703.62 329.1C709.749 324.453 715.293 319.08 720.13 313.1L739.13 346.04C745.982 328.561 748.802 309.761 747.38 291.04C746.461 303.433 743.68 315.616 739.13 327.18Z" fill="black"/>
</g>
</g>
<defs>
<clipPath id="clip0_0_1">
<rect width="1094" height="811.38" fill="white"/>
</clipPath>
</defs>
</svg>
