<svg width="888" height="678" viewBox="0 0 888 678" fill="none" xmlns="http://www.w3.org/2000/svg">
<rect width="888" height="678" fill="#F5F5F5"/>
<g id="undraw_walking_outside_re_56xo 1" clip-path="url(#clip0_0_1)">
<path id="Vector" d="M505.514 659.182C509.037 659.182 511.893 656.326 511.893 652.803C511.893 649.28 509.037 646.425 505.514 646.425C501.991 646.425 499.135 649.28 499.135 652.803C499.135 656.326 501.991 659.182 505.514 659.182Z" fill="#00BFA6"/>
<path id="Vector_2" d="M506.277 663.545H504.476V676.148H506.277V663.545Z" fill="#3F3D56"/>
<path id="Vector_3" d="M64.2445 661.744H62.4439V674.348H64.2445V661.744Z" fill="#3F3D56"/>
<g id="big_tree2">
<path id="Vector_4" d="M245.559 359.928C340.724 359.928 417.871 282.781 417.871 187.616C417.871 92.4511 340.724 15.3046 245.559 15.3046C150.394 15.3046 73.2471 92.4511 73.2471 187.616C73.2471 282.781 150.394 359.928 245.559 359.928Z" fill="#00BFA6"/>
<path id="Vector_5" opacity="0.2" d="M118.329 72.5256C102.257 110.123 100.076 152.21 112.178 191.267C124.28 230.324 149.875 263.805 184.39 285.728C218.905 307.65 260.09 316.586 300.587 310.938C341.084 305.289 378.252 285.425 405.452 254.895C395.633 277.866 380.938 298.427 362.384 315.154C343.831 331.881 321.862 344.374 298.001 351.768C274.139 359.163 248.956 361.28 224.195 357.975C199.433 354.67 175.687 346.022 154.6 332.628C133.513 319.234 115.591 301.417 102.074 280.409C88.5568 259.401 79.7689 235.705 76.3187 210.964C72.8686 186.223 74.8388 161.027 82.0928 137.123C89.3469 113.218 101.711 91.177 118.329 72.5256V72.5256Z" fill="black"/>
<path id="Vector_6" d="M246.032 187.616H246.506L255.027 676.148H237.038L246.032 187.616Z" fill="#3F3D56"/>
<path id="Vector_7" d="M273.438 446.177L244.954 461.173L248.923 468.713L277.407 453.717L273.438 446.177Z" fill="#3F3D56"/>
<path id="Vector_8" d="M67.0829 669.778C67.0829 669.778 67.7046 656.751 80.4493 658.265Z" fill="#3F3D56"/>
<path id="Vector_9" d="M63.4818 657.381C67.0046 657.381 69.8604 654.526 69.8604 651.003C69.8604 647.48 67.0046 644.624 63.4818 644.624C59.959 644.624 57.1031 647.48 57.1031 651.003C57.1031 654.526 59.959 657.381 63.4818 657.381Z" fill="#00BFA6"/>
<path id="Vector_10" d="M171.514 670.678C171.514 670.678 172.136 657.652 184.881 659.166Z" fill="#3F3D56"/>
<path id="Vector_11" d="M167.913 658.282C171.436 658.282 174.292 655.426 174.292 651.903C174.292 648.38 171.436 645.524 167.913 645.524C164.39 645.524 161.534 648.38 161.534 651.903C161.534 655.426 164.39 658.282 167.913 658.282Z" fill="#00BFA6"/>
</g>
<path id="Vector_12" d="M168.676 662.644H166.875V675.248H168.676V662.644Z" fill="#3F3D56"/>
<g id="bird_two2">
<path id="Vector_13" d="M449.243 83.2985L462.038 73.0651C452.098 71.9685 448.014 77.3894 446.343 81.6801C438.578 78.4557 430.124 82.6815 430.124 82.6815L455.724 91.9752C454.433 88.5257 452.185 85.5158 449.243 83.2985V83.2985Z" fill="#3F3D56"/>
</g>
<g id="bird_one2">
<path id="Vector_14" d="M643.827 187.54L656.622 177.306C646.682 176.21 642.598 181.631 640.927 185.921C633.161 182.697 624.708 186.923 624.708 186.923L650.308 196.216C649.016 192.767 646.768 189.757 643.827 187.54V187.54Z" fill="#3F3D56"/>
</g>
<g id="bird_three2">
<path id="Vector_15" d="M433.955 276.492L446.749 266.259C436.81 265.162 432.726 270.583 431.054 274.874C423.289 271.649 414.835 275.875 414.835 275.875L440.435 285.169C439.144 281.72 436.896 278.71 433.955 276.492Z" fill="#3F3D56"/>
</g>
<path id="Vector_16" d="M127.289 676.307C127.289 676.307 127.91 663.28 140.655 664.794Z" fill="#3F3D56"/>
<path id="Vector_17" d="M737.671 676.307C737.671 676.307 738.293 663.28 751.038 664.794Z" fill="#3F3D56"/>
<path id="Vector_18" d="M712.464 676.307C712.464 676.307 713.086 663.28 725.83 664.794Z" fill="#3F3D56"/>
<path id="Vector_19" d="M453.403 676.307C453.403 676.307 452.781 663.28 440.037 664.794Z" fill="#3F3D56"/>
<path id="Vector_20" d="M281.452 676.307C281.452 676.307 280.83 663.28 268.085 664.794Z" fill="#3F3D56"/>
<path id="Vector_21" d="M98.6969 676.307C98.6969 676.307 98.0752 663.28 85.3305 664.794Z" fill="#3F3D56"/>
<path id="Vector_22" d="M791.904 676.307C791.904 676.307 791.283 663.28 778.538 664.794Z" fill="#3F3D56"/>
<g id="small_tree2">
<path id="Vector_23" d="M690.159 395.527C690.151 380.906 686.891 366.469 680.615 353.263C674.338 340.058 665.203 328.413 653.87 319.174C642.538 309.935 629.292 303.333 615.093 299.845C600.894 296.358 586.096 296.073 571.773 299.01C557.45 301.948 543.959 308.035 532.279 316.83C520.599 325.626 511.022 336.909 504.241 349.863C497.461 362.818 493.647 377.118 493.075 391.728C492.504 406.338 495.19 420.892 500.938 434.336C500.842 434.229 500.742 434.125 500.646 434.017C505.025 444.223 511.095 453.616 518.601 461.8C518.623 461.825 518.646 461.849 518.669 461.874C519.274 462.534 519.883 463.19 520.506 463.833C529.515 473.229 540.3 480.742 552.236 485.936C564.172 491.129 577.02 493.9 590.036 494.087L586.705 675.016H596.996L594.913 555.601L609.8 547.763L607.529 543.45L594.818 550.142L593.84 494.078C619.586 493.488 644.079 482.846 662.08 464.428C680.08 446.01 690.159 421.28 690.159 395.527V395.527Z" fill="#009985"/>
<path id="Vector_24" d="M509.115 671.579C509.115 671.579 509.737 658.552 522.482 660.066Z" fill="#3F3D56"/>
<path id="Vector_25" d="M683.655 676.307C683.655 676.307 684.277 663.28 697.022 664.794Z" fill="#3F3D56"/>
<path id="Vector_26" d="M563.919 676.307C563.919 676.307 564.541 663.28 577.286 664.794Z" fill="#3F3D56"/>
<path id="Vector_27" d="M660.465 676.307C660.465 676.307 659.843 663.28 647.099 664.794Z" fill="#3F3D56"/>
<path id="Vector_28" d="M714.481 677.207C714.481 677.207 713.859 664.18 701.115 665.694Z" fill="#3F3D56"/>
</g>
<path id="Vector_29" d="M888 674.604H0V676.604H888V674.604Z" fill="#3F3D56"/>
</g>
<defs>
<clipPath id="clip0_0_1">
<rect width="888" height="677.207" fill="white"/>
</clipPath>
</defs>
</svg>
