<svg width="697" height="523" viewBox="0 0 697 523" fill="none" xmlns="http://www.w3.org/2000/svg">
<g id="undraw_walking_outside_re_56xo 1" clip-path="url(#clip0_1_2)">
<g id="left-leg">
<path id="Vector" d="M266.679 512.469L273.819 512.437L277.298 485.261L266.76 485.309L266.679 512.469Z" fill="#FFB8B8"/>
<path id="Vector_2" d="M264.864 510.178L278.926 510.115L278.927 510.115C281.304 510.104 283.58 511.025 285.256 512.675C286.931 514.324 287.869 516.568 287.862 518.912L287.861 519.199L264.837 519.303L264.864 510.178Z" fill="#2F2E41"/>
<path id="Vector_3" d="M264.607 465.782L264.36 505.392L278.92 505.223L281.67 467.857L264.607 465.782Z" fill="#2F2E41"/>
</g>
<g id="right_leg">
<path id="Vector_4" d="M293.191 513.049L300.321 512.723L302.228 485.435L291.705 485.916L293.191 513.049Z" fill="#FFB8B8"/>
<path id="Vector_5" d="M291.247 510.835L305.288 510.194L305.288 510.194C307.661 510.085 309.988 510.912 311.757 512.491C313.526 514.07 314.591 516.272 314.72 518.614L314.735 518.901L291.747 519.95L291.247 510.835Z" fill="#2F2E41"/>
<path id="Vector_6" d="M289.647 467.752L289.088 504.826L305.056 502.566L304.933 467.684L289.647 467.752Z" fill="#2F2E41"/>
</g>
<g id="head">
<path id="Vector_7" d="M288.947 344.007H260.813C260.234 344.006 259.68 343.78 259.27 343.377C258.861 342.974 258.631 342.428 258.63 341.859V329.927C258.639 325.692 260.355 321.633 263.401 318.642C266.448 315.65 270.576 313.97 274.88 313.97C279.185 313.97 283.313 315.65 286.36 318.642C289.406 321.633 291.122 325.692 291.13 329.927V341.859C291.13 342.428 290.899 342.974 290.49 343.377C290.081 343.78 289.526 344.006 288.947 344.007V344.007Z" fill="#2F2E41"/>
<path id="Vector_8" d="M277.987 343.288C284.566 343.288 289.9 338.04 289.9 331.566C289.9 325.092 284.566 319.843 277.987 319.843C271.407 319.843 266.073 325.092 266.073 331.566C266.073 338.04 271.407 343.288 277.987 343.288Z" fill="#FFB8B8"/>
<path id="Vector_9" d="M294.975 331.12H277.771L277.595 328.69L276.713 331.12H274.064L273.714 326.304L271.966 331.12H266.84V330.882C266.844 327.528 268.2 324.314 270.61 321.943C273.019 319.571 276.287 318.238 279.695 318.234H282.12C285.528 318.238 288.796 319.571 291.205 321.943C293.615 324.314 294.971 327.528 294.975 330.882V331.12Z" fill="#2F2E41"/>
<path id="Vector_10" d="M277.63 346.234C277.501 346.234 277.372 346.223 277.244 346.201L264.647 344.014V323.529H278.514L278.171 323.923C273.394 329.404 276.993 338.292 279.563 343.102C279.752 343.454 279.837 343.852 279.807 344.249C279.776 344.647 279.633 345.028 279.392 345.349C279.191 345.623 278.926 345.846 278.62 346C278.313 346.154 277.974 346.234 277.63 346.234V346.234Z" fill="#2F2E41"/>
</g>
<path id="Vector_11" d="M284.265 479.065C274.931 479.023 265.618 478.178 256.434 476.539L256.2 476.493V467.743L250.87 467.16L255.03 452.542C253.091 430.022 255.847 401.502 256.738 393.293C256.942 391.368 257.077 390.288 257.077 390.288L261.754 351.172L269.579 344.065L273.135 346.341L279.729 352.829C287.395 371.391 293.477 388.865 293.516 389.988L319.222 471.042L319.049 471.163C310.123 477.362 296.516 479.065 284.265 479.065Z" fill="#3F3D56"/>
<g id="coffee">
<path id="Vector_12" opacity="0.2" d="M271.341 365.871L270.493 377.023L283.039 380.91L271.341 365.871Z" fill="black"/>
<path id="Vector_13" d="M308.327 390.042L301.447 390.629C301.226 390.648 301.006 390.586 300.83 390.454C300.654 390.322 300.535 390.13 300.496 389.915L297.928 376.144L309.33 375.172L309.143 389.178C309.141 389.396 309.056 389.606 308.905 389.765C308.754 389.925 308.548 390.024 308.327 390.042V390.042Z" fill="#00BFA6"/>
<path id="Vector_14" d="M309.462 376.921L298.096 377.89C297.861 377.91 297.627 377.837 297.447 377.687C297.266 377.538 297.154 377.324 297.134 377.092L296.954 374.995C296.934 374.764 297.009 374.534 297.161 374.356C297.314 374.178 297.532 374.066 297.767 374.046L309.132 373.077C309.368 373.057 309.601 373.13 309.782 373.28C309.962 373.429 310.075 373.644 310.095 373.875L310.275 375.972C310.294 376.204 310.22 376.434 310.067 376.612C309.915 376.79 309.697 376.901 309.462 376.921V376.921Z" fill="#2F2E41"/>
<path id="Vector_15" opacity="0.2" d="M265.477 387.676C268.945 391.006 273.441 393.105 278.26 393.643C283.078 394.181 287.946 393.128 292.097 390.65L294.573 389.171L265.477 387.676Z" fill="black"/>
<path id="Vector_16" d="M306.554 381.466C305.974 380.925 305.281 380.517 304.523 380.269C303.765 380.022 302.96 379.941 302.166 380.033C301.372 380.124 300.608 380.386 299.927 380.799C299.246 381.213 298.665 381.768 298.225 382.425L285.956 380.136L282.707 387.138L300.08 390.131C301.25 390.782 302.623 390.988 303.94 390.71C305.256 390.431 306.423 389.687 307.221 388.619C308.019 387.551 308.392 386.233 308.269 384.914C308.146 383.596 307.536 382.369 306.554 381.466V381.466Z" fill="#FFB8B8"/>
<path id="Vector_17" d="M278.587 391.312C272.889 391.798 264.897 389.168 255.198 383.581C254.658 383.277 254.189 382.866 253.819 382.373C253.45 381.881 253.189 381.318 253.052 380.72C252.016 376.569 255.701 370.524 256.063 369.944L259.434 357.72C259.468 357.523 260.442 352.275 263.834 350.148C264.548 349.707 265.351 349.424 266.187 349.317C267.023 349.211 267.872 349.283 268.676 349.53C275.642 351.375 271.967 370.525 271.452 373.039L280.762 376.422L286.754 379.504L294.611 379.642L293.321 389.45L281.517 390.72C280.569 391.036 279.584 391.234 278.587 391.312V391.312Z" fill="#3F3D56"/>
</g>
<g id="sun">
<path id="Vector_18" d="M593.93 132.796C631.2 132.796 661.413 103.069 661.413 66.3982C661.413 29.7275 631.2 0 593.93 0C556.66 0 526.447 29.7275 526.447 66.3982C526.447 103.069 556.66 132.796 593.93 132.796Z" fill="#FF6584"/>
</g>
<path id="Vector_19" d="M396.783 509.079C399.548 509.079 401.79 506.874 401.79 504.153C401.79 501.433 399.548 499.227 396.783 499.227C394.018 499.227 391.776 501.433 391.776 504.153C391.776 506.874 394.018 509.079 396.783 509.079Z" fill="#00BFA6"/>
<path id="Vector_20" d="M397.382 512.449H395.968V522.182H397.382V512.449Z" fill="#3F3D56"/>
<path id="Vector_21" d="M50.4261 511.058H49.0128V520.792H50.4261V511.058Z" fill="#3F3D56"/>
<g id="big_tree">
<path id="Vector_22" d="M192.742 277.969C267.438 277.969 327.991 218.389 327.991 144.894C327.991 71.3991 267.438 11.8196 192.742 11.8196C118.045 11.8196 57.4924 71.3991 57.4924 144.894C57.4924 218.389 118.045 277.969 192.742 277.969Z" fill="#00BFA6"/>
<path id="Vector_23" opacity="0.2" d="M92.8779 56.0108C80.2622 85.0467 78.5508 117.55 88.0495 147.713C97.5482 177.877 117.638 203.734 144.729 220.664C171.82 237.595 204.147 244.496 235.934 240.134C267.72 235.772 296.894 220.431 318.243 196.853C310.536 214.593 299.002 230.472 284.439 243.39C269.876 256.308 252.633 265.957 233.904 271.667C215.175 277.378 195.408 279.013 175.973 276.461C156.537 273.908 137.898 267.229 121.347 256.885C104.796 246.542 90.7283 232.781 80.1187 216.557C69.5091 200.333 62.6114 182.033 59.9033 162.925C57.1953 143.818 58.7417 124.36 64.4355 105.898C70.1292 87.4374 79.8342 70.4151 92.8779 56.0108V56.0108Z" fill="black"/>
<path id="Vector_24" d="M193.113 144.894H193.485L200.173 522.182H186.053L193.113 144.894Z" fill="#3F3D56"/>
<path id="Vector_25" d="M214.624 344.578L192.267 356.159L195.382 361.982L217.74 350.401L214.624 344.578Z" fill="#3F3D56"/>
<path id="Vector_26" d="M52.654 517.263C52.654 517.263 53.142 507.202 63.1454 508.372Z" fill="#3F3D56"/>
<path id="Vector_27" d="M49.8275 507.689C52.5926 507.689 54.8341 505.483 54.8341 502.763C54.8341 500.042 52.5926 497.837 49.8275 497.837C47.0624 497.837 44.8208 500.042 44.8208 502.763C44.8208 505.483 47.0624 507.689 49.8275 507.689Z" fill="#00BFA6"/>
<path id="Vector_28" d="M134.623 517.958C134.623 517.958 135.111 507.897 145.115 509.067Z" fill="#3F3D56"/>
<path id="Vector_29" d="M131.797 508.384C134.562 508.384 136.803 506.179 136.803 503.458C136.803 500.737 134.562 498.532 131.797 498.532C129.031 498.532 126.79 500.737 126.79 503.458C126.79 506.179 129.031 508.384 131.797 508.384Z" fill="#00BFA6"/>
</g>
<path id="Vector_30" d="M132.395 511.753H130.982V521.487H132.395V511.753Z" fill="#3F3D56"/>
<g id="bird_two">
<path id="Vector_31" d="M352.615 64.3306L362.658 56.4274C354.856 55.5805 351.651 59.767 350.339 63.0807C344.244 60.5905 337.609 63.854 337.609 63.854L357.702 71.0315C356.689 68.3675 354.924 66.043 352.615 64.3306V64.3306Z" fill="#3F3D56"/>
</g>
<g id="bird_one">
<path id="Vector_32" d="M505.346 144.835L515.389 136.932C507.587 136.085 504.382 140.272 503.07 143.585C496.975 141.095 490.339 144.359 490.339 144.359L510.433 151.536C509.419 148.872 507.655 146.547 505.346 144.835V144.835Z" fill="#3F3D56"/>
</g>
<g id="bird_three">
<path id="Vector_33" d="M340.615 213.532L350.658 205.629C342.856 204.782 339.651 208.969 338.339 212.282C332.244 209.792 325.608 213.056 325.608 213.056L345.702 220.233C344.688 217.569 342.924 215.245 340.615 213.532Z" fill="#3F3D56"/>
</g>
<path id="Vector_34" d="M99.9102 522.305C99.9102 522.305 100.398 512.244 110.402 513.414Z" fill="#3F3D56"/>
<path id="Vector_35" d="M579.006 522.305C579.006 522.305 579.494 512.244 589.497 513.414Z" fill="#3F3D56"/>
<path id="Vector_36" d="M559.22 522.305C559.22 522.305 559.708 512.244 569.711 513.414Z" fill="#3F3D56"/>
<path id="Vector_37" d="M355.881 522.305C355.881 522.305 355.393 512.244 345.389 513.414Z" fill="#3F3D56"/>
<path id="Vector_38" d="M220.914 522.305C220.914 522.305 220.426 512.244 210.423 513.414Z" fill="#3F3D56"/>
<path id="Vector_39" d="M77.4682 522.305C77.4682 522.305 76.9802 512.244 66.9767 513.414Z" fill="#3F3D56"/>
<path id="Vector_40" d="M621.574 522.305C621.574 522.305 621.086 512.244 611.082 513.414Z" fill="#3F3D56"/>
<g id="small_tree">
<path id="Vector_41" d="M541.713 305.461C541.707 294.169 539.148 283.02 534.221 272.822C529.295 262.623 522.124 253.63 513.229 246.495C504.334 239.36 493.938 234.261 482.793 231.567C471.647 228.874 460.033 228.654 448.79 230.923C437.548 233.191 426.959 237.892 417.791 244.685C408.624 251.478 401.106 260.192 395.784 270.196C390.462 280.2 387.468 291.244 387.02 302.527C386.571 313.811 388.679 325.051 393.191 335.434C393.116 335.351 393.038 335.27 392.962 335.187C396.399 343.069 401.164 350.323 407.055 356.643C407.072 356.663 407.09 356.681 407.108 356.7C407.583 357.21 408.061 357.717 408.551 358.214C415.621 365.47 424.087 371.272 433.455 375.283C442.824 379.294 452.909 381.434 463.125 381.578L460.51 521.308H468.588L466.953 429.085L478.638 423.032L476.855 419.701L466.878 424.869L466.111 381.571C486.319 381.115 505.544 372.897 519.673 358.673C533.802 344.449 541.712 325.35 541.713 305.461V305.461Z" fill="#009985"/>
<path id="Vector_42" d="M399.61 518.653C399.61 518.653 400.098 508.593 410.101 509.762Z" fill="#3F3D56"/>
<path id="Vector_43" d="M536.608 522.305C536.608 522.305 537.096 512.244 547.099 513.414Z" fill="#3F3D56"/>
<path id="Vector_44" d="M442.626 522.305C442.626 522.305 443.114 512.244 453.117 513.414Z" fill="#3F3D56"/>
<path id="Vector_45" d="M518.406 522.305C518.406 522.305 517.917 512.244 507.914 513.414Z" fill="#3F3D56"/>
<path id="Vector_46" d="M560.803 523C560.803 523 560.315 512.94 550.312 514.109Z" fill="#3F3D56"/>
</g>
</g>
<defs>
<clipPath id="clip0_1_2">
<rect width="697" height="523" fill="white"/>
</clipPath>
</defs>
</svg>
