<svg width="888" height="678" viewBox="0 0 888 678" fill="none" xmlns="http://www.w3.org/2000/svg">
<rect width="888" height="678" fill="#F5F5F5"/>
<g id="undraw_walking_outside_re_56xo 1" clip-path="url(#clip0_0_1)">
<g id="left-leg">
<path id="Vector" d="M307.693 659.535L316.417 662.148L330.648 629.74L317.772 625.884L307.693 659.535Z" fill="#FFB8B8"/>
<path id="Vector_2" d="M306.32 656.02L323.502 661.166L323.503 661.166C326.407 662.036 328.846 664.024 330.284 666.693C331.722 669.361 332.042 672.491 331.172 675.395L331.065 675.751L302.934 667.325L306.32 656.02Z" fill="#2F2E41"/>
<path id="Vector_3" d="M322.321 600.868L307.464 649.897L325.292 655.097L342.378 609.782L322.321 600.868Z" fill="#2F2E41"/>
</g>
<g id="right_leg">
<path id="Vector_4" d="M390.602 666.663L399.153 663.528L391.13 629.055L378.51 633.682L390.602 666.663Z" fill="#FFB8B8"/>
<path id="Vector_5" d="M387.398 664.671L404.237 658.497L404.238 658.496C407.084 657.453 410.228 657.583 412.978 658.858C415.729 660.133 417.86 662.447 418.904 665.293L419.031 665.642L391.46 675.751L387.398 664.671Z" fill="#2F2E41"/>
<path id="Vector_6" d="M369.121 612.011L382.493 658.068L401.064 649.154L387.693 606.068L369.121 612.011Z" fill="#2F2E41"/>
</g>
<g id="head">
<path id="Vector_7" d="M368.128 445.438H332.284C331.547 445.437 330.84 445.143 330.319 444.622C329.797 444.101 329.504 443.394 329.503 442.656V427.207C329.514 421.723 331.7 416.467 335.581 412.594C339.463 408.72 344.722 406.544 350.206 406.544C355.69 406.544 360.95 408.72 364.831 412.594C368.712 416.467 370.898 421.723 370.909 427.207V442.656C370.908 443.394 370.615 444.101 370.094 444.622C369.572 445.143 368.865 445.437 368.128 445.438V445.438Z" fill="#2F2E41"/>
<path id="Vector_8" d="M354.164 444.507C362.547 444.507 369.342 437.711 369.342 429.328C369.342 420.945 362.547 414.149 354.164 414.149C345.781 414.149 338.985 420.945 338.985 429.328C338.985 437.711 345.781 444.507 354.164 444.507Z" fill="#FFB8B8"/>
<path id="Vector_9" d="M375.807 428.752H353.889L353.665 425.605L352.541 428.752H349.166L348.721 422.515L346.493 428.752H339.963V428.443C339.968 424.101 341.695 419.938 344.765 416.868C347.835 413.797 351.998 412.07 356.34 412.065H359.43C363.772 412.07 367.935 413.797 371.005 416.868C374.075 419.938 375.802 424.101 375.807 428.443V428.752Z" fill="#2F2E41"/>
<path id="Vector_10" d="M353.71 448.322C353.545 448.321 353.38 448.307 353.218 448.278L337.169 445.446V418.922H354.836L354.398 419.432C348.313 426.529 352.897 438.038 356.172 444.266C356.413 444.722 356.521 445.237 356.482 445.752C356.444 446.266 356.261 446.76 355.954 447.175C355.698 447.53 355.36 447.819 354.97 448.018C354.58 448.218 354.148 448.322 353.71 448.322V448.322Z" fill="#2F2E41"/>
</g>
<g id="body">
<path id="Vector_11" d="M362.162 620.318C350.27 620.263 338.406 619.169 326.705 617.047L326.407 616.987V605.657L319.617 604.903L324.917 585.975C322.446 556.815 325.957 519.886 327.092 509.256C327.352 506.764 327.524 505.365 327.524 505.365L333.482 454.715L343.453 445.512L347.982 448.46L356.384 456.861C366.15 480.896 373.899 503.522 373.948 504.976L406.699 609.929L406.479 610.085C395.106 618.113 377.77 620.318 362.162 620.318Z" fill="#3F3D56"/>
<path id="Vector_12" opacity="0.2" d="M337.708 477.181L335.418 491.475L350.921 497.87L337.708 477.181Z" fill="black"/>
<path id="Vector_13" d="M382.029 512.433H373.231C372.949 512.434 372.677 512.329 372.468 512.14C372.259 511.95 372.128 511.689 372.101 511.408L370.34 493.359H384.919L383.159 511.408C383.132 511.689 383.001 511.95 382.792 512.14C382.583 512.329 382.311 512.434 382.029 512.433V512.433Z" fill="#00BFA6"/>
<path id="Vector_14" d="M384.896 495.63H370.364C370.063 495.63 369.774 495.51 369.561 495.297C369.348 495.084 369.229 494.796 369.228 494.495V491.77C369.229 491.469 369.348 491.18 369.561 490.967C369.774 490.755 370.063 490.635 370.364 490.635H384.896C385.197 490.635 385.486 490.755 385.699 490.967C385.911 491.18 386.031 491.469 386.031 491.77V494.495C386.031 494.796 385.911 495.084 385.699 495.297C385.486 495.51 385.197 495.63 384.896 495.63V495.63Z" fill="#2F2E41"/>
<path id="Vector_15" opacity="0.2" d="M327.892 504.667C331.932 509.345 337.412 512.547 343.47 513.772C349.528 514.996 355.821 514.173 361.36 511.432L364.664 509.797L327.892 504.667Z" fill="black"/>
<path id="Vector_16" d="M380.711 501.173C380.034 500.412 379.198 499.809 378.263 499.407C377.327 499.004 376.315 498.811 375.297 498.842C374.279 498.872 373.28 499.126 372.371 499.585C371.462 500.043 370.664 500.695 370.034 501.495L354.709 497.193L349.823 505.869L371.551 511.641C372.965 512.61 374.686 513.026 376.387 512.812C378.088 512.597 379.651 511.766 380.78 510.475C381.909 509.185 382.526 507.526 382.513 505.811C382.5 504.097 381.859 502.446 380.711 501.173V501.173Z" fill="#FFB8B8"/>
<path id="Vector_17" d="M344.139 510.801C336.852 510.801 326.993 506.529 315.29 498.255C314.637 497.803 314.086 497.22 313.671 496.544C313.255 495.868 312.985 495.113 312.876 494.327C312.013 488.858 317.348 481.464 317.871 480.755L323.479 465.355C323.543 465.105 325.351 458.441 329.888 456.07C330.843 455.581 331.893 455.303 332.966 455.257C334.039 455.212 335.108 455.399 336.102 455.806C344.744 458.953 337.996 483.254 337.069 486.441L348.52 491.83L355.791 496.465L365.748 497.507L363.045 510.019L347.922 510.359C346.684 510.662 345.413 510.81 344.139 510.801V510.801Z" fill="#3F3D56"/>
</g>
<g id="sun">
<path id="Vector_18" d="M756.685 171.951C804.169 171.951 842.661 133.459 842.661 85.9757C842.661 38.4926 804.169 -1.52588e-05 756.685 -1.52588e-05C709.202 -1.52588e-05 670.71 38.4926 670.71 85.9757C670.71 133.459 709.202 171.951 756.685 171.951Z" fill="#FF6584"/>
</g>
<path id="Vector_19" d="M505.514 659.182C509.037 659.182 511.893 656.326 511.893 652.803C511.893 649.28 509.037 646.425 505.514 646.425C501.991 646.425 499.135 649.28 499.135 652.803C499.135 656.326 501.991 659.182 505.514 659.182Z" fill="#00BFA6"/>
<path id="Vector_20" d="M506.277 663.545H504.476V676.148H506.277V663.545Z" fill="#3F3D56"/>
<path id="Vector_21" d="M64.2445 661.744H62.4439V674.348H64.2445V661.744Z" fill="#3F3D56"/>
<g id="big_tree">
<path id="Vector_22" d="M245.559 359.928C340.724 359.928 417.871 282.781 417.871 187.616C417.871 92.4512 340.724 15.3046 245.559 15.3046C150.394 15.3046 73.2471 92.4512 73.2471 187.616C73.2471 282.781 150.394 359.928 245.559 359.928Z" fill="#00BFA6"/>
<path id="Vector_23" opacity="0.2" d="M118.329 72.5256C102.257 110.123 100.076 152.21 112.178 191.267C124.28 230.324 149.875 263.805 184.39 285.728C218.905 307.65 260.09 316.586 300.587 310.938C341.084 305.289 378.252 285.425 405.452 254.895C395.633 277.866 380.938 298.427 362.384 315.154C343.831 331.881 321.862 344.374 298.001 351.769C274.139 359.163 248.956 361.28 224.195 357.975C199.433 354.67 175.687 346.022 154.6 332.628C133.513 319.234 115.591 301.417 102.074 280.409C88.5569 259.401 79.7689 235.705 76.3188 210.964C72.8686 186.223 74.8388 161.027 82.0929 137.123C89.3469 113.218 101.711 91.177 118.329 72.5256V72.5256Z" fill="black"/>
<path id="Vector_24" d="M246.032 187.616H246.506L255.027 676.148H237.038L246.032 187.616Z" fill="#3F3D56"/>
<path id="Vector_25" d="M273.438 446.177L244.954 461.173L248.923 468.713L277.407 453.717L273.438 446.177Z" fill="#3F3D56"/>
<path id="Vector_26" d="M67.0829 669.778C67.0829 669.778 67.7046 656.751 80.4493 658.265Z" fill="#3F3D56"/>
<path id="Vector_27" d="M63.4818 657.381C67.0046 657.381 69.8605 654.526 69.8605 651.003C69.8605 647.48 67.0046 644.624 63.4818 644.624C59.959 644.624 57.1032 647.48 57.1032 651.003C57.1032 654.526 59.959 657.381 63.4818 657.381Z" fill="#00BFA6"/>
<path id="Vector_28" d="M171.514 670.678C171.514 670.678 172.136 657.652 184.881 659.166Z" fill="#3F3D56"/>
<path id="Vector_29" d="M167.913 658.282C171.436 658.282 174.292 655.426 174.292 651.903C174.292 648.38 171.436 645.524 167.913 645.524C164.39 645.524 161.534 648.38 161.534 651.903C161.534 655.426 164.39 658.282 167.913 658.282Z" fill="#00BFA6"/>
</g>
<path id="Vector_30" d="M168.676 662.644H166.875V675.248H168.676V662.644Z" fill="#3F3D56"/>
<g id="bird_two">
<path id="Vector_31" d="M449.243 83.2985L462.038 73.0651C452.098 71.9685 448.014 77.3894 446.343 81.6801C438.578 78.4557 430.124 82.6815 430.124 82.6815L455.724 91.9752C454.433 88.5257 452.185 85.5158 449.243 83.2985V83.2985Z" fill="#3F3D56"/>
</g>
<g id="bird_one">
<path id="Vector_32" d="M643.827 187.54L656.622 177.306C646.682 176.21 642.598 181.631 640.927 185.921C633.161 182.697 624.708 186.923 624.708 186.923L650.308 196.216C649.016 192.767 646.768 189.757 643.827 187.54V187.54Z" fill="#3F3D56"/>
</g>
<g id="bird_three">
<path id="Vector_33" d="M433.955 276.492L446.749 266.259C436.81 265.162 432.726 270.583 431.054 274.874C423.289 271.649 414.835 275.875 414.835 275.875L440.435 285.169C439.144 281.72 436.896 278.71 433.955 276.492Z" fill="#3F3D56"/>
</g>
<path id="Vector_34" d="M127.289 676.307C127.289 676.307 127.91 663.28 140.655 664.794Z" fill="#3F3D56"/>
<path id="Vector_35" d="M737.671 676.307C737.671 676.307 738.293 663.28 751.038 664.794Z" fill="#3F3D56"/>
<path id="Vector_36" d="M712.464 676.307C712.464 676.307 713.086 663.28 725.83 664.794Z" fill="#3F3D56"/>
<path id="Vector_37" d="M453.403 676.307C453.403 676.307 452.781 663.28 440.037 664.794Z" fill="#3F3D56"/>
<path id="Vector_38" d="M281.452 676.307C281.452 676.307 280.83 663.28 268.085 664.794Z" fill="#3F3D56"/>
<path id="Vector_39" d="M98.6969 676.307C98.6969 676.307 98.0752 663.28 85.3305 664.794Z" fill="#3F3D56"/>
<path id="Vector_40" d="M791.904 676.307C791.904 676.307 791.283 663.28 778.538 664.794Z" fill="#3F3D56"/>
<g id="small_tree">
<path id="Vector_41" d="M690.159 395.527C690.151 380.906 686.891 366.469 680.615 353.263C674.338 340.058 665.203 328.413 653.87 319.174C642.538 309.935 629.292 303.333 615.093 299.845C600.894 296.358 586.096 296.073 571.773 299.01C557.45 301.948 543.959 308.035 532.279 316.83C520.599 325.626 511.022 336.909 504.241 349.863C497.461 362.818 493.647 377.118 493.075 391.728C492.504 406.338 495.19 420.892 500.938 434.336C500.842 434.229 500.742 434.125 500.646 434.017C505.025 444.223 511.095 453.616 518.601 461.8C518.623 461.825 518.646 461.849 518.669 461.874C519.274 462.534 519.883 463.19 520.506 463.833C529.515 473.229 540.3 480.742 552.236 485.936C564.172 491.129 577.02 493.9 590.036 494.087L586.705 675.016H596.996L594.913 555.601L609.8 547.763L607.529 543.45L594.818 550.142L593.84 494.078C619.586 493.488 644.079 482.846 662.08 464.428C680.08 446.01 690.159 421.28 690.159 395.527V395.527Z" fill="#009985"/>
<path id="Vector_42" d="M509.115 671.579C509.115 671.579 509.737 658.552 522.482 660.066Z" fill="#3F3D56"/>
<path id="Vector_43" d="M683.655 676.307C683.655 676.307 684.277 663.28 697.022 664.794Z" fill="#3F3D56"/>
<path id="Vector_44" d="M563.919 676.307C563.919 676.307 564.541 663.28 577.286 664.794Z" fill="#3F3D56"/>
<path id="Vector_45" d="M660.465 676.307C660.465 676.307 659.843 663.28 647.099 664.794Z" fill="#3F3D56"/>
<path id="Vector_46" d="M714.481 677.207C714.481 677.207 713.859 664.18 701.115 665.694Z" fill="#3F3D56"/>
</g>
</g>
<defs>
<clipPath id="clip0_0_1">
<rect width="888" height="677.207" fill="white"/>
</clipPath>
</defs>
</svg>
