<svg width="1028" height="649" viewBox="0 0 1028 649" fill="none" xmlns="http://www.w3.org/2000/svg">
<g id="undraw_doll_play_evbw 1" clip-path="url(#clip0_1_2)">
<path id="Vector" d="M522 646C805.874 646 1036 625.853 1036 601C1036 576.147 805.874 556 522 556C238.126 556 8 576.147 8 601C8 625.853 238.126 646 522 646Z" fill="#FFC331" fill-opacity="0.51"/>
<g id="girl_dress">
<path id="Vector_2" d="M588.06 221.03L593.78 234.71C596.28 236.71 597.58 232.79 598.46 233.64C599.586 234.777 600.591 236.027 601.46 237.37L601.77 237.2L593.38 218.46C590.49 215.93 589.06 219.52 588.06 221.03Z" fill="#27B4AE"/>
<path id="Vector_3" d="M458 586.46C445.67 585.55 433 584.67 421.22 588.54C416.85 589.98 412.4 592.09 407.86 591.32C403.06 590.51 399.42 586.67 396.16 583.05C392.62 579.12 388.95 574.95 387.75 569.79C386.907 565.799 387.429 561.64 389.23 557.98C389.484 557.363 389.861 556.805 390.34 556.34C391.34 555.46 392.83 555.44 394.17 555.49C405.73 555.98 417.36 558.83 428.75 556.81C435.41 555.63 448.55 550.73 452.44 559.15C454.08 562.64 451.33 585.97 458 586.46Z" fill="#575A89"/>
<path id="Vector_4" d="M336.12 507.32C320.74 511.51 306.03 517.83 291.38 524.13L258.8 538.13L268.43 561.97C269.26 563.97 267.69 563.85 269.69 564.75C271.91 565.75 277.03 567.13 279.31 566.26C301.26 557.87 326.51 562.67 348.59 554.62C356.72 551.62 364.32 546.97 372.87 545.62C382.87 544.01 393.46 547.1 403.14 544.05C404.185 543.808 405.125 543.237 405.82 542.42C406.358 541.438 406.555 540.306 406.38 539.2C405.88 530.97 402.77 523.2 398.73 516.13C396.08 511.45 391.85 502.13 386.58 499.85C380.63 497.3 369.01 501.03 362.81 501.95C353.815 503.209 344.902 505.002 336.12 507.32Z" fill="#FFC1C7"/>
<path id="Vector_5" d="M282.88 565.84C270.78 568.35 258.32 571.02 248.1 577.97C244.29 580.56 240.6 583.81 236.02 584.32C231.18 584.86 226.63 582.18 222.5 579.59C218.01 576.79 213.33 573.79 210.76 569.16C208.852 565.551 208.208 561.408 208.93 557.39C209.005 556.732 209.213 556.096 209.54 555.52C210.415 554.481 211.651 553.812 213 553.65C224.25 550.93 239.47 546.05 249.86 540.97C255.94 537.97 263.96 534.09 270.02 541.11C272.53 544.02 276.31 567.25 282.88 565.84Z" fill="#575A89"/>
<path id="Vector_6" d="M676.45 354.45C676.27 368.58 664.26 379.82 661.17 393.6C660.798 395.877 660.257 398.123 659.55 400.32C658.28 403.53 655.82 406.12 653.29 408.47C649.11 412.36 644.35 415.99 638.75 417.1C638.08 417.23 640.75 370.77 641.69 366.46C644.6 352.5 664.81 355.7 676.45 354.45Z" fill="#FF6584"/>
<path id="Vector_7" d="M545.66 347.5C545.55 355.83 546.28 364.34 549.57 371.99C552.86 379.64 559 386.38 567 388.74C571.22 389.99 575.69 389.98 580.09 389.92C583.64 389.86 587.26 389.77 590.61 388.61C597.34 386.29 601.99 380.03 604.69 373.45C607.39 366.87 608.54 359.77 610.76 353.02C611.92 349.47 614.07 345.49 617.76 345.16C620.11 344.96 622.27 346.34 624.22 347.66L644.22 361.21C648.22 384.06 644.12 407.83 635.83 429.49C633.34 435.98 630.31 442.35 629.17 449.2C626.84 463.3 632.75 477.28 637.52 490.76C641 500.58 643.92 510.59 646.85 520.59L654.22 545.8C655.93 551.67 657.66 557.8 656.4 563.8C655.14 569.8 649.79 575.39 643.72 574.69C642.03 574.5 640.2 573.87 638.72 574.69C635.11 576.69 639.13 582.12 638.8 586.25C638.38 591.59 631.15 592.74 625.8 592.62C599.22 592.03 572.98 597.76 546.63 601.25C520.28 604.74 492.73 605.87 467.85 596.52C457.2 592.52 447.34 586.68 437.54 580.89C418.99 569.89 399.38 557.81 390.27 538.27C386.27 529.72 384.54 520.13 379.44 512.2C376.64 507.82 372.77 503.83 371.93 498.7C370.75 491.48 376.29 484.55 382.93 481.51C389.57 478.47 397.16 478.36 404.47 477.99C411.78 477.62 419.47 476.8 425.47 472.65C432 468.18 436 460.25 443.26 457.09C446.36 455.76 449.79 455.45 453.06 454.62C457.514 453.373 461.757 451.468 465.65 448.97C495.92 430.53 513.39 393.09 508.07 358.05C507.477 354.546 507.143 351.003 507.07 347.45C507.013 346.843 507.131 346.232 507.41 345.69C507.778 345.23 508.282 344.897 508.85 344.74C513.47 343.04 518.71 343.95 523.39 342.42C526.93 341.26 529.89 338.79 533.3 337.29C536.71 335.79 541.2 335.5 543.71 338.29C546 340.78 545.71 344.07 545.66 347.5Z" fill="#FF6584"/>
<path id="Vector_8" d="M458.12 446.62C454.93 451.74 451.68 456.96 450.12 462.8C447.68 472.08 449.92 482.27 455.23 490.26C460.54 498.25 468.73 504.1 477.69 507.52C481.25 508.88 484.94 509.88 488.46 511.34C504.1 517.83 515.71 533.13 532.37 536.21C534.713 536.786 537.173 536.668 539.45 535.87C544.77 533.61 545.72 526.61 545.88 520.87C545.96 517.99 546.02 514.98 544.74 512.4C543.61 510.406 542.04 508.697 540.15 507.4C528.23 498.27 512.98 494.8 499.92 487.4C493.79 483.94 487.68 478.81 486.86 471.82C485.97 464.17 491.63 457.54 496.13 451.28C507.19 435.89 516.59 410.99 511.28 391.83C503.8 364.83 485.38 402.95 480.46 410.83C473.027 422.75 465.58 434.68 458.12 446.62Z" fill="#FFC1C7"/>
</g>
<g id="girl_plant">
<path id="Vector_9" d="M109.4 599.67C106.4 594.16 109.8 587.4 113.69 582.49C117.58 577.58 122.3 572.49 122.2 566.2C122.05 557.2 112.5 551.89 104.87 547.11C99.2044 543.573 93.9809 539.374 89.31 534.6C87.3525 532.765 85.7343 530.598 84.53 528.2C82.95 524.68 82.99 520.68 83.09 516.83C83.43 503.99 84.0667 491.16 85 478.34" stroke="#3F3D56" stroke-width="4" stroke-miterlimit="10"/>
<path id="Vector_10" d="M70.49 477.64C70.5963 475.289 71.2934 473.003 72.5169 470.993C73.7404 468.983 75.4508 467.314 77.49 466.14L80.63 472.36L80.53 464.83C82.032 464.39 83.5963 464.201 85.16 464.27C87.9221 464.407 90.5817 465.359 92.8034 467.006C95.0251 468.653 96.7093 470.921 97.6436 473.524C98.5778 476.126 98.7202 478.948 98.0528 481.631C97.3854 484.315 95.9381 486.741 93.8935 488.603C91.8489 490.465 89.2985 491.68 86.5642 492.095C83.83 492.509 81.0342 492.104 78.5297 490.932C76.0252 489.759 73.9241 487.871 72.4914 485.505C71.0588 483.14 70.3589 480.403 70.48 477.64H70.49Z" fill="#57B894"/>
<path id="Vector_11" d="M95.52 572.63C96.9921 575.483 99.4003 577.744 102.341 579.033C105.281 580.322 108.576 580.561 111.672 579.71C114.768 578.859 117.477 576.97 119.346 574.359C121.215 571.749 122.129 568.575 121.936 565.37C121.743 562.165 120.455 559.124 118.286 556.756C116.118 554.388 113.202 552.837 110.026 552.364C106.85 551.89 103.609 552.523 100.844 554.155C98.079 555.788 95.9593 558.321 94.84 561.33L103.61 568.46L94 566.25C93.9943 568.467 94.5153 570.654 95.52 572.63Z" fill="#57B894"/>
<path id="Vector_12" d="M102.45 545.38C105.937 545.626 109.39 544.559 112.13 542.388C114.87 540.217 116.699 537.1 117.257 533.649C117.815 530.198 117.061 526.663 115.145 523.739C113.228 520.816 110.287 518.715 106.9 517.85L106.98 523.63L103.8 517.34C101.959 517.25 100.118 517.524 98.3825 518.148C96.6475 518.771 95.0527 519.731 93.6896 520.972C92.3265 522.214 91.222 523.712 90.4396 525.381C89.6571 527.051 89.2121 528.858 89.13 530.7C89.0479 532.319 89.2509 533.941 89.73 535.49C90.5734 538.248 92.2479 540.678 94.5247 542.448C96.8014 544.219 99.5693 545.242 102.45 545.38Z" fill="#57B894"/>
<path id="Vector_13" d="M68.38 522.71C70.5343 522.789 72.6778 522.37 74.6435 521.484C76.6091 520.599 78.3437 519.272 79.7121 517.606C81.0805 515.94 82.0458 513.981 82.5326 511.881C83.0194 509.781 83.0147 507.597 82.5187 505.499C82.0228 503.401 81.049 501.446 79.6734 499.786C78.2978 498.126 76.5574 496.806 74.5879 495.93C72.6185 495.053 70.4732 494.643 68.3192 494.731C66.1653 494.82 64.0608 495.405 62.17 496.44L64.65 503.24L59.55 498.34C56.817 500.843 55.1879 504.328 55.02 508.03C54.9534 509.33 55.0713 510.633 55.37 511.9C56.0628 514.874 57.7091 517.54 60.0579 519.492C62.4067 521.444 65.3292 522.574 68.38 522.71Z" fill="#57B894"/>
<path id="Vector_14" opacity="0.1" d="M72.38 481.38C75.62 481.73 78.77 482.74 82.02 482.94C85.27 483.14 88.84 482.37 90.9 479.84C92 478.48 92.56 476.76 93.49 475.27C94.3782 473.886 95.5941 472.742 97.03 471.94C97.8788 473.711 98.3456 475.64 98.4002 477.603C98.4547 479.565 98.0958 481.518 97.3467 483.333C96.5976 485.148 95.4751 486.785 94.0521 488.138C92.6291 489.491 90.9374 490.529 89.0869 491.186C87.2364 491.842 85.2684 492.102 83.3109 491.949C81.3534 491.795 79.4501 491.232 77.7245 490.295C75.999 489.358 74.4899 488.068 73.2952 486.51C72.1005 484.952 71.247 483.16 70.79 481.25C71.3166 481.25 71.8467 481.293 72.38 481.38Z" fill="black"/>
<path id="Vector_15" opacity="0.1" d="M68.38 522.71C70.8005 522.833 73.2114 522.325 75.3769 521.237C77.5423 520.148 79.3881 518.516 80.7337 516.5C82.0792 514.485 82.8784 512.154 83.053 509.737C83.2277 507.32 82.7718 504.898 81.73 502.71C80.6164 503.459 79.6587 504.416 78.91 505.53C77.91 507.04 77.3 508.79 76.13 510.17C73.94 512.74 70.21 513.58 66.82 513.43C63.43 513.28 60.16 512.31 56.82 512C56.35 512 55.88 511.93 55.4 511.92C56.0951 514.886 57.7386 517.544 60.0811 519.491C62.4235 521.438 65.3372 522.568 68.38 522.71Z" fill="black"/>
<path id="Vector_16" opacity="0.1" d="M102.45 545.38C104.848 545.501 107.237 545.004 109.387 543.936C111.537 542.867 113.377 541.264 114.729 539.28C116.08 537.295 116.899 534.996 117.106 532.604C117.313 530.212 116.901 527.807 115.91 525.62C114.746 526.38 113.729 527.346 112.91 528.47C111.82 530.01 111.14 531.79 109.91 533.21C107.54 535.84 103.56 536.77 99.98 536.69C96.4 536.61 93.15 535.76 89.7 535.49C90.5451 538.253 92.2241 540.686 94.5068 542.457C96.7895 544.227 99.5641 545.248 102.45 545.38Z" fill="black"/>
<path id="Vector_17" opacity="0.1" d="M95.52 572.63C97.0384 576.023 99.8426 578.675 103.316 580.001C106.789 581.326 110.647 581.218 114.04 579.7C117.433 578.182 120.085 575.377 121.411 571.904C122.737 568.431 122.628 564.573 121.11 561.18C119.952 561.937 118.913 562.864 118.03 563.93C116.69 565.55 115.81 567.4 114.27 568.93C111.4 571.75 106.77 572.93 102.64 573.02C100.261 573.031 97.8835 572.901 95.52 572.63Z" fill="black"/>
<path id="Vector_18" d="M130.57 593.32C130.57 593.32 119.49 592.98 116.15 590.6C112.81 588.22 99.15 585.39 98.29 589.2C97.43 593.01 81.64 608.2 94.14 608.26C106.64 608.32 123.2 606.32 126.54 604.26C129.88 602.2 130.57 593.32 130.57 593.32Z" fill="#656380"/>
<path id="Vector_19" opacity="0.2" d="M93.92 606.94C106.43 607.04 122.98 604.94 126.31 602.94C128.85 601.39 129.86 595.85 130.2 593.29H130.57C130.57 593.29 129.87 602.23 126.57 604.29C123.27 606.35 106.68 608.36 94.17 608.29C90.56 608.29 89.32 606.98 89.39 605.08C89.86 606.25 91.23 606.91 93.92 606.94Z" fill="black"/>
</g>
<g id="girl_head">
<path id="Vector_20" d="M624.32 228.57C635.38 237.03 641.88 250.48 644.05 264.23C644.69 268.23 644.99 272.39 645.64 276.45C648.385 293.148 656.99 308.322 669.91 319.25C668.012 320.187 665.915 320.647 663.799 320.59C661.683 320.532 659.614 319.959 657.77 318.92C660.592 330.298 665.801 340.947 673.05 350.16C664.739 345.95 657.451 339.97 651.7 332.64C650.621 339.868 651.028 347.239 652.895 354.304C654.763 361.369 658.051 367.979 662.56 373.73C657.028 371.101 652.123 367.319 648.173 362.638C644.223 357.957 641.321 352.485 639.66 346.59L649.2 371.75C643.2 370.04 638.9 364.95 635.45 359.75C622.664 340.488 617.145 317.307 619.88 294.35C621.06 284.72 623.69 275.26 624.12 265.57C624.55 255.88 622.38 245.47 615.44 238.68C610.2 233.54 602.88 231.18 595.69 230.68C591.17 230.36 579.46 233.97 583.89 225.83C590.67 213.4 616.43 222.54 624.32 228.57Z" fill="#3F3D56"/>
<path id="Vector_21" d="M556.55 330.13C590.499 330.13 618.02 303.643 618.02 270.97C618.02 238.297 590.499 211.81 556.55 211.81C522.601 211.81 495.08 238.297 495.08 270.97C495.08 303.643 522.601 330.13 556.55 330.13Z" fill="#3F3D56"/>
<path id="Vector_22" d="M529 318.43C530.35 312.85 526.57 307.05 527.58 301.43C527.847 300.008 528.408 298.658 529.226 297.465C530.043 296.272 531.101 295.262 532.33 294.5C533.72 293.65 535.33 293.14 536.74 292.36C539.471 290.751 541.537 288.219 542.564 285.221C543.591 282.222 543.511 278.955 542.34 276.01C540.28 271.28 535.64 268.26 531.07 265.89C526.22 263.36 520.31 261.25 515.47 263.79C509.59 266.88 508.76 274.79 508.68 281.47C508.61 286.93 508.56 292.47 510.15 297.71C511.985 303.334 514.945 308.526 518.85 312.97C519.54 313.7 528.09 322.25 529 318.43Z" fill="#3F3D56"/>
<path id="Vector_23" d="M536 344.25C535.213 346.599 534.89 349.078 535.05 351.55V370.01C534.905 372.664 535.22 375.323 535.98 377.87C537.15 381.1 539.69 383.62 542.28 385.87C550.619 393.091 560.262 398.651 570.69 402.25C576.49 404.25 582.84 405.67 588.75 403.96C592.144 402.821 595.314 401.103 598.12 398.88C605.905 393.204 612.879 386.492 618.85 378.93C624.85 371.26 630.06 361.36 627.06 352.07C621.451 350.886 616.252 348.246 611.987 344.415C607.721 340.585 604.539 335.7 602.76 330.25C601.61 326.59 601.05 322.57 598.64 319.59C593.48 313.21 583.48 315 575.64 317.39C568.03 319.7 554.81 321.04 549.17 326.84C546.94 329.13 546.09 332.89 543.91 335.39C541.29 338.44 537.6 340.34 536 344.25Z" fill="#FFC1C7"/>
<path id="Vector_24" opacity="0.1" d="M536 344.25C535.213 346.599 534.89 349.078 535.05 351.55V370.01C534.905 372.664 535.22 375.323 535.98 377.87C537.15 381.1 539.69 383.62 542.28 385.87C550.619 393.091 560.262 398.651 570.69 402.25C576.49 404.25 582.84 405.67 588.75 403.96C592.144 402.821 595.314 401.103 598.12 398.88C605.905 393.204 612.879 386.492 618.85 378.93C624.85 371.26 630.06 361.36 627.06 352.07C621.451 350.886 616.252 348.246 611.987 344.415C607.721 340.585 604.539 335.7 602.76 330.25C601.61 326.59 601.05 322.57 598.64 319.59C593.48 313.21 583.48 315 575.64 317.39C568.03 319.7 554.81 321.04 549.17 326.84C546.94 329.13 546.09 332.89 543.91 335.39C541.29 338.44 537.6 340.34 536 344.25Z" fill="black"/>
<path id="Vector_25" d="M572.08 343.67C599.457 343.67 621.65 321.477 621.65 294.1C621.65 266.723 599.457 244.53 572.08 244.53C544.703 244.53 522.51 266.723 522.51 294.1C522.51 321.477 544.703 343.67 572.08 343.67Z" fill="#FFC1C7"/>
<path id="Vector_26" d="M539.76 299.99C536.23 287.39 520.2 279.89 517.84 267.08C516.6 260.32 519.67 253.46 524.43 248.42C529.19 243.38 535.51 239.91 541.84 236.73C551.12 232.06 561.25 227.73 571.84 228.68C582.76 229.68 596.71 231.61 605.19 238.32C611.19 243.06 612.85 252.92 614.7 260C615.559 263.545 615.309 267.268 613.984 270.666C612.658 274.064 610.322 276.973 607.29 279C600.29 283.66 590.83 283.32 582.12 283.35C573.41 283.38 563.69 284.45 558.32 290.76C555.38 294.21 554.25 298.7 552.12 302.64C549.99 306.58 546.06 310.3 541.31 309.91L539.76 299.99Z" fill="#3F3D56"/>
<path id="Vector_27" d="M529.68 388.43C525.17 402.07 509.68 407.74 498.84 417.43C499.386 415.886 499.66 414.258 499.65 412.62C499.65 408.62 498.65 404.62 499.79 400.78C493.82 407.936 485.788 413.076 476.79 415.5L472.41 371.37C470.181 378.365 466.473 384.798 461.536 390.232C456.599 395.666 450.55 399.973 443.8 402.86C456.22 380.61 460 354.75 464 329.59C464.974 322.514 466.363 315.502 468.16 308.59C470.66 299.648 474.464 291.123 479.45 283.29C482.487 278.461 486.19 274.085 490.45 270.29C494.74 266.69 499.59 264.19 504.33 265.07C512.51 266.61 509.22 270.62 504.33 274.3C500.45 277.2 495.55 279.91 494.39 281.07C493.073 282.394 492.09 284.012 491.52 285.79C489.64 291.52 491.66 298.79 494.12 304.71C500.411 319.912 508.07 334.512 517 348.33C521 354.43 525.18 360.43 528 367.16C530.82 373.89 532 381.53 529.68 388.43Z" fill="#3F3D56"/>
<path id="Vector_28" d="M496.4 267.1L497.72 281.87C496.43 284.77 493.47 281.94 493.09 283.11C492.592 284.64 492.257 286.219 492.09 287.82H491.74L490.41 267.33C491.88 263.72 494.82 266.25 496.4 267.1Z" fill="#27B4AE"/>
</g>
<g id="girl_doll">
<path id="Vector_29" d="M702.79 471.4C705.37 475.08 707.61 478.99 710.3 482.59C715.83 489.98 723.13 495.84 730.3 501.59L771.22 534.35C782.64 543.5 794.7 552.95 809.09 555.6C814 556.51 819.81 556.25 822.96 552.39C826.64 547.86 824.47 540.72 820.18 536.77C815.89 532.82 810.11 531.05 804.82 528.6C782.46 518.21 768.92 495.6 753.18 476.6C739.35 459.93 723.1 445.45 708.02 429.91C692.02 413.39 679.36 394.22 664.09 377.31C656.79 383.39 648.47 395.73 646.83 405.31C645.36 413.87 650.26 420.14 655.83 426.09C670.63 442.06 690.17 453.44 702.79 471.4Z" fill="#FFC1C7"/>
<path id="Vector_30" d="M804.54 488.06C809.908 488.06 814.26 483.708 814.26 478.34C814.26 472.972 809.908 468.62 804.54 468.62C799.172 468.62 794.82 472.972 794.82 478.34C794.82 483.708 799.172 488.06 804.54 488.06Z" fill="#3F3D56"/>
<path id="Vector_31" opacity="0.1" d="M798.9 553.96C799.9 560.96 798.68 568.18 796.77 575.03C796.462 576.318 795.992 577.561 795.37 578.73C794.632 579.84 793.837 580.911 792.99 581.94C791.463 584.26 790.291 586.795 789.51 589.46C787.041 596.712 784.968 604.093 783.3 611.57C783.2 611.875 783.2 612.205 783.3 612.51C783.53 613.05 784.3 613.13 784.84 613.12H792.47C792.75 612.6 792.24 612.03 791.92 611.53C790.82 609.84 791.92 607.65 792.83 605.88C795.17 601.582 796.977 597.015 798.21 592.28C798.643 590.263 799.245 588.286 800.01 586.37C801.184 584.166 802.497 582.038 803.94 580C805.393 577.481 806.641 574.85 807.67 572.13C809.353 568.444 810.589 564.57 811.35 560.59C811.794 556.811 811.767 552.992 811.27 549.22C811.27 548.982 811.185 548.751 811.03 548.57C810.856 548.453 810.65 548.393 810.44 548.4L800.2 547.88C798.09 547.77 797.59 547.31 797.91 549.38C798.15 550.89 798.68 552.4 798.9 553.96Z" fill="black"/>
<path id="Vector_32" d="M800.92 536.84C798.84 539.84 796.65 543.28 797.35 546.84C797.87 549.55 799.94 551.66 801.9 553.63C809.71 561.47 817.4 570.19 820.06 580.94C820.74 583.72 821.06 586.58 821.66 589.38C822.875 594.433 824.514 599.373 826.56 604.15L831.66 617.04C833.239 617.078 834.792 616.631 836.108 615.758C837.424 614.885 838.441 613.629 839.02 612.16C838.244 611.998 837.556 611.552 837.09 610.91C834.92 607.91 834.47 604.03 833.91 600.36C833.3 596.3 832.47 592.28 831.64 588.26L828 570.49C827.58 568.43 827.16 566.38 826.61 564.35C824.48 556.52 820.45 549.12 819.83 541.02C819.881 539.814 819.529 538.625 818.83 537.64C817.854 536.822 816.602 536.407 815.33 536.48C810.27 536.14 805.87 535.65 800.92 536.84Z" fill="#575A89"/>
<path id="Vector_33" d="M787.17 611.39C786.617 611.252 786.05 611.179 785.48 611.17C784.934 611.19 784.4 611.336 783.921 611.598C783.442 611.861 783.031 612.231 782.72 612.68C782.401 613.191 782.152 613.743 781.98 614.32L781.24 616.43C781.089 616.723 781.002 617.045 780.985 617.374C780.968 617.704 781.021 618.033 781.14 618.34C781.382 618.698 781.732 618.968 782.14 619.11C783.988 619.745 785.926 620.082 787.88 620.11C789.77 620.3 791.64 620.63 793.5 620.98C794.14 621.1 794.78 621.22 795.43 621.29C796.888 621.382 798.35 621.338 799.8 621.16L801.3 621.01C801.8 620.991 802.295 620.9 802.77 620.74C803.01 620.655 803.23 620.523 803.417 620.351C803.604 620.179 803.755 619.971 803.86 619.74C803.923 619.504 803.937 619.258 803.9 619.017C803.864 618.776 803.777 618.545 803.646 618.339C803.516 618.134 803.344 617.957 803.141 617.821C802.939 617.685 802.71 617.593 802.47 617.55C802.07 617.47 801.66 617.55 801.26 617.46C800.808 617.382 800.368 617.247 799.95 617.06C798.001 616.388 796.14 615.482 794.41 614.36C793.94 614.03 793.41 613.57 793.5 613C793.551 612.758 793.632 612.523 793.74 612.3C793.96 611.713 793.96 611.067 793.74 610.48C793.64 610.23 793.47 609.97 793.21 609.94C792.49 609.85 792.58 610.89 792.47 611.3C792.36 611.71 792.07 611.9 791.56 611.85C790.1 611.74 788.63 611.66 787.17 611.39Z" fill="#3F3D56"/>
<path id="Vector_34" d="M830.1 618.68C830.102 619.74 830.454 620.77 831.1 621.61C831.304 621.855 831.556 622.055 831.84 622.2C832.264 622.375 832.723 622.446 833.18 622.41C834.476 622.389 835.757 622.132 836.96 621.65C837.384 621.463 837.818 621.3 838.26 621.16C838.822 621.047 839.389 620.964 839.96 620.91C842.21 620.59 844.18 619.26 846.36 618.59C847.003 618.424 847.634 618.217 848.25 617.97C849.086 617.512 849.843 616.921 850.49 616.22C850.878 615.858 851.215 615.444 851.49 614.99C851.828 614.209 851.978 613.36 851.93 612.51C851.943 612.379 851.919 612.248 851.86 612.13C851.802 612.043 851.718 611.977 851.62 611.94C850.915 611.709 850.155 611.709 849.45 611.94C846.801 612.318 844.12 612.419 841.45 612.24C841.188 612.251 840.928 612.2 840.69 612.09C840.492 611.944 840.328 611.756 840.21 611.54L839.21 609.91C838.92 609.44 838.46 608.91 837.93 609.06C837.727 609.152 837.561 609.31 837.458 609.507C837.354 609.704 837.32 609.931 837.36 610.15C837.43 610.583 837.45 611.022 837.42 611.46C837.362 611.699 837.254 611.922 837.105 612.117C836.955 612.312 836.766 612.473 836.55 612.59C836.123 612.828 835.665 613.006 835.19 613.12C833.582 613.428 832.071 614.113 830.78 615.12C830 615.88 830.05 617.63 830.1 618.68Z" fill="#3F3D56"/>
<path id="Vector_35" d="M829.57 510.81C830.159 510.367 830.663 509.821 831.06 509.2C831.399 508.499 831.613 507.745 831.69 506.97L832.12 504.27C832.218 502.757 832.737 501.302 833.62 500.07C834.62 498.94 836.62 498.53 837.62 499.65C838.028 500.173 838.281 500.8 838.35 501.46C838.662 503.399 838.534 505.383 837.977 507.266C837.42 509.149 836.447 510.883 835.13 512.34C833.91 513.68 832.42 514.74 831.13 516.01C830 517.1 829.03 518.34 827.99 519.53C825.479 522.383 822.604 524.894 819.44 527C819.605 524.937 819.605 522.863 819.44 520.8C819.22 519.34 818.63 518.56 820.03 517.61C823.334 515.523 826.519 513.252 829.57 510.81Z" fill="#FBBEBE"/>
<path id="Vector_36" d="M808.71 491.69C813.101 491.69 816.66 488.131 816.66 483.74C816.66 479.349 813.101 475.79 808.71 475.79C804.319 475.79 800.76 479.349 800.76 483.74C800.76 488.131 804.319 491.69 808.71 491.69Z" fill="#FBBEBE"/>
<path id="Vector_37" d="M816.57 505.25C816.295 504.654 815.96 504.088 815.57 503.56C814.196 501.443 812.597 499.482 810.8 497.71C809.397 496.465 807.88 495.353 806.27 494.39C805.401 493.787 804.443 493.325 803.43 493.02C802.835 492.887 802.229 492.803 801.62 492.77L799.55 492.61C799.368 492.58 799.182 492.58 799 492.61C798.731 492.716 798.512 492.918 798.384 493.177C798.257 493.435 798.23 493.733 798.31 494.01C798.487 494.564 798.804 495.064 799.23 495.46C799.32 499.67 797.45 503.83 797.23 508.03C796.79 515.39 801.23 522.23 801.64 529.59C801.674 529.927 801.64 530.267 801.54 530.59C801.48 530.74 801.39 530.88 801.32 531.03C801.147 531.507 801.062 532.012 801.07 532.52C800.902 534.317 800.097 535.995 798.8 537.25C799.132 537.681 799.565 538.024 800.06 538.25C800.984 538.534 801.926 538.758 802.88 538.92C805.247 539.757 807.739 540.184 810.25 540.18C810.559 539.504 810.752 538.78 810.82 538.04C811.17 537.82 811.58 538.29 811.63 538.7C811.68 539.11 811.63 539.6 811.89 539.9C812.032 540.004 812.195 540.075 812.368 540.11C812.541 540.144 812.719 540.141 812.89 540.1C814.401 539.829 815.896 539.479 817.37 539.05C818.858 538.635 820.432 538.635 821.92 539.05C822.041 538.846 822.099 538.611 822.086 538.374C822.074 538.138 821.992 537.91 821.85 537.72C821.566 537.343 821.328 536.933 821.14 536.5C821.07 536.239 821.04 535.97 821.05 535.7C821.05 533.37 821.53 531.02 821.05 528.7C820.91 528.03 820.7 527.38 820.56 526.7C820.344 525.378 820.281 524.036 820.37 522.7C820.37 521.35 820.24 519.93 820.22 518.58C820.214 518.022 820.177 517.464 820.11 516.91C820.02 516.33 819.84 515.77 819.79 515.18C819.64 513.7 820.24 512.18 820.15 510.74C820.08 508.53 817.46 507.3 816.57 505.25Z" fill="#27B4AE"/>
<path id="Vector_38" d="M798.64 504.14C796.71 509.25 795.77 514.67 794.84 520.05L792.66 532.68C791.934 536.23 791.529 539.838 791.45 543.46C791.512 544.465 791.442 545.474 791.24 546.46C790.771 547.707 790.146 548.89 789.38 549.98C788.049 552.374 787.603 555.16 788.12 557.85C788.35 558.98 788.96 560.26 790.12 560.39C790.595 560.373 791.057 560.233 791.462 559.984C791.867 559.736 792.2 559.386 792.43 558.97C793.596 557.133 794.419 555.1 794.86 552.97C796.67 546.08 797.934 539.058 798.64 531.97C798.703 531.076 798.827 530.187 799.01 529.31C799.25 528.402 799.558 527.513 799.93 526.65L802.43 520.46C804.229 515.631 806.402 510.95 808.93 506.46C806.32 505.71 803.6 504.83 800.99 504.08C800.208 503.978 799.415 503.998 798.64 504.14Z" fill="#FBBEBE"/>
<path id="Vector_39" d="M803.16 508.02C801.314 507.738 799.446 507.631 797.58 507.7C797.315 507.718 797.051 507.648 796.83 507.5C796.45 507.18 796.61 506.57 796.83 506.11L797.73 503.94C797.879 503.49 798.129 503.08 798.46 502.74C798.957 502.376 799.554 502.173 800.17 502.16C802.165 501.839 804.205 501.917 806.17 502.39C807.142 502.625 808.053 503.063 808.844 503.675C809.635 504.286 810.288 505.058 810.76 505.94C810.972 506.299 811.088 506.707 811.096 507.123C811.105 507.54 811.007 507.952 810.81 508.32C810.1 509.32 808.51 510.47 807.33 509.91C805.83 509.25 804.75 508.36 803.16 508.02Z" fill="#27B4AE"/>
<path id="Vector_40" d="M812.87 471.4C811.302 471.387 809.763 471.828 808.44 472.67C807.19 471.487 805.648 470.657 803.971 470.265C802.295 469.873 800.545 469.934 798.9 470.44C798.726 469.437 798.279 468.501 797.609 467.734C796.939 466.967 796.071 466.399 795.1 466.091C794.13 465.784 793.093 465.749 792.104 465.991C791.115 466.232 790.211 466.741 789.491 467.461C788.771 468.181 788.262 469.085 788.021 470.074C787.779 471.063 787.814 472.1 788.121 473.07C788.429 474.041 788.997 474.909 789.764 475.579C790.531 476.249 791.467 476.696 792.47 476.87C792.183 477.796 792.038 478.76 792.04 479.73C792.036 482.083 792.886 484.358 794.433 486.132C795.979 487.906 798.116 489.059 800.448 489.376C802.78 489.694 805.148 489.155 807.112 487.859C809.077 486.563 810.504 484.599 811.13 482.33C811.702 482.451 812.285 482.512 812.87 482.51C816.71 482.51 819.87 480.02 819.87 476.95C819.87 473.88 816.71 471.4 812.87 471.4Z" fill="#3F3D56"/>
<path id="Vector_41" opacity="0.1" d="M803.15 486.67C801.629 486.67 800.129 486.313 798.771 485.628C797.413 484.942 796.234 483.948 795.331 482.724C794.427 481.5 793.823 480.082 793.568 478.582C793.312 477.082 793.412 475.544 793.86 474.09C792.573 473.864 791.406 473.192 790.565 472.192C789.723 471.192 789.262 469.927 789.26 468.62C789.265 468.285 789.295 467.951 789.35 467.62C788.672 468.353 788.204 469.256 787.996 470.233C787.787 471.21 787.845 472.225 788.165 473.171C788.484 474.117 789.052 474.96 789.81 475.611C790.567 476.262 791.486 476.697 792.47 476.87C792.183 477.796 792.038 478.76 792.04 479.73C792.038 482.055 792.869 484.304 794.384 486.069C795.898 487.833 797.995 488.997 800.293 489.347C802.592 489.698 804.94 489.213 806.912 487.981C808.884 486.748 810.348 484.85 811.04 482.63C810.14 483.881 808.955 484.9 807.583 485.603C806.211 486.305 804.691 486.671 803.15 486.67Z" fill="black"/>
<path id="Vector_42" d="M798.9 553.96C799.9 560.96 798.68 568.18 796.77 575.03C796.462 576.318 795.992 577.561 795.37 578.73C794.632 579.84 793.837 580.911 792.99 581.94C791.463 584.26 790.291 586.795 789.51 589.46C787.041 596.712 784.968 604.093 783.3 611.57C783.2 611.875 783.2 612.205 783.3 612.51C783.53 613.05 784.3 613.13 784.84 613.12H792.47C792.75 612.6 792.24 612.03 791.92 611.53C790.82 609.84 791.92 607.65 792.83 605.88C795.17 601.582 796.977 597.015 798.21 592.28C798.643 590.263 799.245 588.286 800.01 586.37C801.184 584.166 802.497 582.038 803.94 580C805.393 577.481 806.641 574.85 807.67 572.13C809.353 568.444 810.589 564.57 811.35 560.59C811.794 556.811 811.767 552.992 811.27 549.22C811.27 548.982 811.185 548.751 811.03 548.57C810.856 548.453 810.65 548.393 810.44 548.4L800.2 547.88C798.09 547.77 797.59 547.31 797.91 549.38C798.15 550.89 798.68 552.4 798.9 553.96Z" fill="#575A89"/>
<path id="Vector_43" d="M802.15 490.91C802.129 491.638 801.948 492.353 801.622 493.004C801.295 493.655 800.831 494.227 800.26 494.68C803.653 495.86 806.987 497.167 810.26 498.6C809.675 497.929 809.367 497.06 809.4 496.17C809.394 493.85 810.046 491.575 811.28 489.61C811.467 489.361 811.575 489.061 811.59 488.75C811.59 488.11 810.79 487.81 810.16 487.67C808.027 487.158 805.851 486.843 803.66 486.73C802.72 486.73 801.66 486.4 801.82 487.6C802.069 488.685 802.18 489.797 802.15 490.91Z" fill="#FBBEBE"/>
<path id="Vector_44" opacity="0.1" d="M814.26 479.73C813.675 479.732 813.092 479.672 812.52 479.55C812.243 480.546 811.807 481.492 811.23 482.35C811.77 482.454 812.32 482.508 812.87 482.51C816.45 482.51 819.4 480.34 819.77 477.51C819.047 478.23 818.186 478.797 817.24 479.178C816.294 479.56 815.28 479.747 814.26 479.73Z" fill="black"/>
</g>
</g>
<defs>
<clipPath id="clip0_1_2">
<rect width="1028" height="648.5" fill="white"/>
</clipPath>
</defs>
</svg>
