<svg width="1982" height="1491" viewBox="0 0 1982 1491" fill="none" xmlns="http://www.w3.org/2000/svg">
<g id="undraw_walking_outside_re_56xo 1" clip-path="url(#clip0_1_2)">
<g id="left-leg">
<path id="Vector" d="M758.333 1460.98L778.637 1460.89L788.529 1383.41L758.563 1383.55L758.333 1460.98Z" fill="#FFB8B8"/>
<path id="Vector_2" d="M753.172 1454.45L793.16 1454.27L793.161 1454.27C799.92 1454.24 806.393 1456.86 811.158 1461.56C815.922 1466.27 818.588 1472.66 818.568 1479.34L818.566 1480.16L753.095 1480.46L753.172 1454.45Z" fill="#2F2E41"/>
<path id="Vector_3" d="M752.441 1327.88L751.738 1440.8L793.142 1440.32L800.962 1333.8L752.441 1327.88Z" fill="#2F2E41"/>
</g>
<g id="right_leg">
<path id="Vector_4" d="M833.723 1462.63L853.997 1461.7L859.419 1383.91L829.497 1385.28L833.723 1462.63Z" fill="#FFB8B8"/>
<path id="Vector_5" d="M828.195 1456.32L868.121 1454.49L868.123 1454.49C874.871 1454.18 881.487 1456.54 886.517 1461.04C891.546 1465.54 894.576 1471.82 894.941 1478.5L894.986 1479.31L829.615 1482.31L828.195 1456.32Z" fill="#2F2E41"/>
<path id="Vector_6" d="M823.644 1333.5L822.055 1439.19L867.462 1432.75L867.112 1333.3L823.644 1333.5Z" fill="#2F2E41"/>
</g>
<g id="head">
<path id="Vector_7" d="M821.655 980.715H741.652C740.007 980.713 738.429 980.068 737.265 978.92C736.102 977.772 735.447 976.216 735.445 974.592V940.576C735.469 928.503 740.348 916.932 749.012 908.403C757.675 899.874 769.414 895.084 781.654 895.084C793.893 895.084 805.633 899.874 814.296 908.403C822.959 916.932 827.839 928.503 827.863 940.576V974.592C827.861 976.216 827.206 977.772 826.043 978.92C824.879 980.068 823.301 980.713 821.655 980.715V980.715Z" fill="#2F2E41"/>
<path id="Vector_8" d="M790.487 978.666C809.197 978.666 824.365 963.704 824.365 945.247C824.365 926.791 809.197 911.829 790.487 911.829C771.776 911.829 756.608 926.791 756.608 945.247C756.608 963.704 771.776 978.666 790.487 978.666Z" fill="#FFB8B8"/>
<path id="Vector_9" d="M838.794 943.978H789.875L789.373 937.05L786.865 943.978H779.332L778.338 930.246L773.367 943.978H758.791V943.298C758.802 933.738 762.657 924.573 769.509 917.813C776.362 911.054 785.653 907.251 795.344 907.24H802.241C811.932 907.251 821.224 911.054 828.076 917.813C834.929 924.573 838.784 933.738 838.794 943.298V943.978Z" fill="#2F2E41"/>
<path id="Vector_10" d="M789.474 987.065C789.106 987.065 788.738 987.033 788.376 986.969L752.554 980.735V922.336H791.987L791.011 923.459C777.428 939.085 787.661 964.423 794.969 978.136C795.508 979.14 795.748 980.274 795.662 981.407C795.576 982.54 795.168 983.626 794.484 984.54C793.91 985.322 793.158 985.958 792.287 986.397C791.416 986.836 790.452 987.065 789.474 987.065V987.065Z" fill="#2F2E41"/>
</g>
<path id="Vector_11" d="M808.339 1365.75C781.797 1365.63 755.316 1363.22 729.199 1358.55L728.534 1358.41V1333.47L713.379 1331.81L725.208 1290.14C719.695 1225.93 727.529 1144.63 730.064 1121.22C730.645 1115.74 731.027 1112.66 731.027 1112.66L744.327 1001.14L766.58 980.88L776.689 987.37L795.442 1005.87C817.24 1058.78 834.536 1108.6 834.645 1111.8L907.746 1342.88L907.253 1343.22C881.87 1360.89 843.177 1365.75 808.339 1365.75Z" fill="#3F3D56"/>
<g id="coffee">
<path id="Vector_12" opacity="0.2" d="M753.758 1050.6L748.647 1082.08L783.249 1096.16L753.758 1050.6Z" fill="black"/>
<path id="Vector_13" d="M852.681 1128.22H833.046C832.416 1128.22 831.808 1127.99 831.341 1127.57C830.874 1127.16 830.583 1126.58 830.523 1125.96L826.593 1086.22H859.133L855.203 1125.96C855.144 1126.58 854.852 1127.16 854.386 1127.57C853.919 1127.99 853.311 1128.22 852.681 1128.22V1128.22Z" fill="#00BFA6"/>
<path id="Vector_14" d="M859.081 1091.22H826.645C825.973 1091.22 825.329 1090.96 824.854 1090.49C824.379 1090.02 824.112 1089.39 824.111 1088.72V1082.72C824.112 1082.06 824.379 1081.43 824.854 1080.96C825.329 1080.49 825.973 1080.23 826.645 1080.23H859.081C859.753 1080.23 860.397 1080.49 860.872 1080.96C861.347 1081.43 861.615 1082.06 861.615 1082.72V1088.72C861.615 1089.39 861.347 1090.02 860.872 1090.49C860.397 1090.96 859.753 1091.22 859.081 1091.22V1091.22Z" fill="#2F2E41"/>
<path id="Vector_15" opacity="0.2" d="M731.85 1111.12C740.867 1121.42 753.097 1128.47 766.618 1131.17C780.14 1133.86 794.186 1132.05 806.55 1126.01L813.924 1122.41L731.85 1111.12Z" fill="black"/>
<path id="Vector_16" d="M849.739 1103.43C848.228 1101.75 846.363 1100.43 844.275 1099.54C842.188 1098.65 839.928 1098.23 837.656 1098.29C835.385 1098.36 833.155 1098.92 831.126 1099.93C829.096 1100.94 827.316 1102.38 825.91 1104.14L791.703 1094.66L780.798 1113.77L829.294 1126.47C832.451 1128.61 836.292 1129.53 840.088 1129.05C843.885 1128.58 847.374 1126.75 849.894 1123.91C852.414 1121.07 853.79 1117.41 853.762 1113.64C853.733 1109.86 852.302 1106.23 849.739 1103.43V1103.43Z" fill="#FFB8B8"/>
<path id="Vector_17" d="M768.111 1124.62C751.848 1124.63 729.843 1115.22 703.721 1097C702.265 1096.01 701.035 1094.73 700.107 1093.24C699.18 1091.75 698.576 1090.09 698.334 1088.36C696.407 1076.31 708.315 1060.03 709.482 1058.47L721.999 1024.57C722.143 1024.02 726.177 1009.35 736.304 1004.13C738.436 1003.05 740.78 1002.44 743.174 1002.34C745.568 1002.24 747.956 1002.65 750.173 1003.54C769.463 1010.47 754.401 1063.98 752.333 1070.99L777.889 1082.86L794.118 1093.06L816.344 1095.36L810.31 1122.9L776.556 1123.65C773.792 1124.32 770.956 1124.65 768.111 1124.62V1124.62Z" fill="#3F3D56"/>
</g>
<g id="sun">
<path id="Vector_18" d="M1688.91 378.584C1794.89 378.584 1880.8 293.835 1880.8 189.292C1880.8 84.7489 1794.89 -1.52588e-05 1688.91 -1.52588e-05C1582.93 -1.52588e-05 1497.01 84.7489 1497.01 189.292C1497.01 293.835 1582.93 378.584 1688.91 378.584Z" fill="#FF6584"/>
</g>
<path id="Vector_19" d="M1128.3 1451.31C1136.16 1451.31 1142.54 1445.03 1142.54 1437.27C1142.54 1429.51 1136.16 1423.23 1128.3 1423.23C1120.44 1423.23 1114.06 1429.51 1114.06 1437.27C1114.06 1445.03 1120.44 1451.31 1128.3 1451.31Z" fill="#00BFA6"/>
<path id="Vector_20" d="M1130 1460.92H1125.98V1488.67H1130V1460.92Z" fill="#3F3D56"/>
<path id="Vector_21" d="M143.392 1456.96H139.374V1484.7H143.392V1456.96Z" fill="#3F3D56"/>
<g id="big_tree">
<path id="Vector_22" d="M548.083 792.45C760.49 792.45 932.68 622.597 932.68 413.073C932.68 203.549 760.49 33.6959 548.083 33.6959C335.676 33.6959 163.486 203.549 163.486 413.073C163.486 622.597 335.676 792.45 548.083 792.45Z" fill="#00BFA6"/>
<path id="Vector_23" opacity="0.2" d="M264.109 159.679C228.235 242.456 223.368 335.12 250.379 421.111C277.39 507.101 334.518 580.817 411.554 629.083C488.591 677.35 580.517 697.024 670.905 684.588C761.293 672.153 844.253 628.418 904.961 561.2C883.046 611.774 850.247 657.043 808.835 693.871C767.424 730.699 718.391 758.206 665.133 774.485C611.874 790.765 555.665 795.428 500.398 788.151C445.132 780.874 392.13 761.832 345.065 732.344C298 702.855 257.996 663.626 227.827 617.373C197.657 571.12 178.043 518.95 170.342 464.477C162.641 410.005 167.039 354.532 183.23 301.902C199.421 249.272 227.018 200.743 264.109 159.679V159.679Z" fill="black"/>
<path id="Vector_24" d="M549.139 413.072H550.197L569.216 1488.67H529.065L549.139 413.072Z" fill="#3F3D56"/>
<path id="Vector_25" d="M610.308 982.344L546.733 1015.36L555.593 1031.96L619.168 998.944L610.308 982.344Z" fill="#3F3D56"/>
<path id="Vector_26" d="M149.728 1474.64C149.728 1474.64 151.115 1445.96 179.561 1449.3Z" fill="#3F3D56"/>
<path id="Vector_27" d="M141.69 1447.35C149.553 1447.35 155.927 1441.06 155.927 1433.31C155.927 1425.55 149.553 1419.26 141.69 1419.26C133.827 1419.26 127.453 1425.55 127.453 1433.31C127.453 1441.06 133.827 1447.35 141.69 1447.35Z" fill="#00BFA6"/>
<path id="Vector_28" d="M382.817 1476.63C382.817 1476.63 384.204 1447.94 412.65 1451.28Z" fill="#3F3D56"/>
<path id="Vector_29" d="M374.779 1449.33C382.642 1449.33 389.016 1443.04 389.016 1435.29C389.016 1427.53 382.642 1421.24 374.779 1421.24C366.916 1421.24 360.542 1427.53 360.542 1435.29C360.542 1443.04 366.916 1449.33 374.779 1449.33Z" fill="#00BFA6"/>
</g>
<path id="Vector_30" d="M376.481 1458.94H372.462V1486.69H376.481V1458.94Z" fill="#3F3D56"/>
<g id="bird_two">
<path id="Vector_31" d="M1002.7 183.398L1031.26 160.867C1009.08 158.452 999.96 170.388 996.229 179.834C978.897 172.735 960.029 182.039 960.029 182.039L1017.17 202.501C1014.29 194.906 1009.27 188.279 1002.7 183.398V183.398Z" fill="#3F3D56"/>
</g>
<g id="bird_one">
<path id="Vector_32" d="M1437.01 412.905L1465.57 390.374C1443.38 387.959 1434.27 399.895 1430.54 409.341C1413.2 402.242 1394.34 411.546 1394.34 411.546L1451.48 432.008C1448.59 424.413 1443.58 417.786 1437.01 412.905V412.905Z" fill="#3F3D56"/>
</g>
<g id="bird_three">
<path id="Vector_33" d="M968.579 608.75L997.137 586.22C974.951 583.805 965.836 595.74 962.105 605.187C944.773 598.088 925.905 607.392 925.905 607.392L983.044 627.854C980.161 620.259 975.143 613.632 968.579 608.75Z" fill="#3F3D56"/>
</g>
<path id="Vector_34" d="M284.106 1489.02C284.106 1489.02 285.494 1460.34 313.94 1463.67Z" fill="#3F3D56"/>
<path id="Vector_35" d="M1646.47 1489.02C1646.47 1489.02 1647.86 1460.34 1676.3 1463.67Z" fill="#3F3D56"/>
<path id="Vector_36" d="M1590.21 1489.02C1590.21 1489.02 1591.59 1460.34 1620.04 1463.67Z" fill="#3F3D56"/>
<path id="Vector_37" d="M1011.99 1489.02C1011.99 1489.02 1010.6 1460.34 982.154 1463.67Z" fill="#3F3D56"/>
<path id="Vector_38" d="M628.195 1489.02C628.195 1489.02 626.807 1460.34 598.361 1463.67Z" fill="#3F3D56"/>
<path id="Vector_39" d="M220.29 1489.02C220.29 1489.02 218.902 1460.34 190.456 1463.67Z" fill="#3F3D56"/>
<path id="Vector_40" d="M1767.52 1489.02C1767.52 1489.02 1766.13 1460.34 1737.68 1463.67Z" fill="#3F3D56"/>
<g id="small_tree">
<path id="Vector_41" d="M1540.42 870.828C1540.41 838.636 1533.13 806.851 1519.12 777.776C1505.11 748.701 1484.72 723.064 1459.43 702.723C1434.13 682.382 1404.57 667.845 1372.88 660.166C1341.18 652.488 1308.16 651.86 1276.19 658.328C1244.22 664.796 1214.11 678.198 1188.04 697.563C1161.97 716.927 1140.59 741.77 1125.46 770.291C1110.32 798.812 1101.81 830.296 1100.54 862.463C1099.26 894.631 1105.25 926.675 1118.09 956.274C1117.87 956.038 1117.65 955.809 1117.43 955.572C1127.21 978.041 1140.75 998.721 1157.51 1016.74C1157.56 1016.8 1157.61 1016.85 1157.66 1016.9C1159.01 1018.36 1160.37 1019.8 1161.76 1021.22C1181.87 1041.9 1205.94 1058.45 1232.58 1069.88C1259.22 1081.31 1287.9 1087.41 1316.95 1087.83L1309.51 1486.18H1332.48L1327.84 1223.26L1361.06 1206L1355.99 1196.51L1327.62 1211.24L1325.44 1087.81C1382.91 1086.51 1437.57 1063.08 1477.75 1022.53C1517.93 981.977 1540.42 927.528 1540.42 870.828V870.828Z" fill="#009985"/>
<path id="Vector_42" d="M1136.34 1478.61C1136.34 1478.61 1137.72 1449.93 1166.17 1453.26Z" fill="#3F3D56"/>
<path id="Vector_43" d="M1525.91 1489.02C1525.91 1489.02 1527.29 1460.34 1555.74 1463.67Z" fill="#3F3D56"/>
<path id="Vector_44" d="M1258.66 1489.02C1258.66 1489.02 1260.05 1460.34 1288.49 1463.67Z" fill="#3F3D56"/>
<path id="Vector_45" d="M1474.15 1489.02C1474.15 1489.02 1472.76 1460.34 1444.31 1463.67Z" fill="#3F3D56"/>
<path id="Vector_46" d="M1594.71 1491C1594.71 1491 1593.32 1462.32 1564.88 1465.65Z" fill="#3F3D56"/>
</g>
</g>
<defs>
<clipPath id="clip0_1_2">
<rect width="1982" height="1491" fill="white"/>
</clipPath>
</defs>
</svg>
