<svg width="376" height="290" viewBox="0 0 376 290" fill="none" xmlns="http://www.w3.org/2000/svg">
<g id="undraw_back_to_school_inwc 1">
<path id="Vector" opacity="0.1" d="M195.595 290C261.621 290 315.146 287.014 315.146 283.33C315.146 279.646 261.621 276.66 195.595 276.66C129.568 276.66 76.0431 279.646 76.0431 283.33C76.0431 287.014 129.568 290 195.595 290Z" fill="#F9A826"/>
<path id="Vector_2" d="M263.313 257.179L262.285 258.734L255.927 268.485L250.53 270.163L246.503 266.1L246.698 263.418L247.702 249.495C247.702 249.495 222.786 234.385 220.559 231.558C218.331 228.732 209.763 226.171 209.763 226.171C209.763 226.171 196.654 219.9 191.77 208.948C186.886 197.996 199.91 196.317 199.91 196.317L248.833 244.549L263.313 257.179Z" fill="#FFC1C7"/>
<path id="Vector_3" d="M269.311 262.832L253.803 277.758C253.803 277.758 244.892 279.525 236.924 278.288C231.831 277.497 232.811 274.618 234.151 272.636L234.175 272.6C234.978 271.467 236.151 270.671 237.479 270.361C244.073 268.721 246.348 263.8 246.348 263.8L251.146 268.039L259.457 258.055L265.602 261.03L269.311 262.832Z" fill="#575988"/>
<path id="Vector_4" opacity="0.1" d="M265.602 261.037L261.953 259.271L262.295 258.734L263.323 257.179L248.833 244.549L199.91 196.325C199.91 196.325 186.886 197.996 191.77 208.948C196.654 219.9 209.763 226.171 209.763 226.171C209.763 226.171 218.331 228.732 220.559 231.558C222.786 234.385 247.719 249.488 247.719 249.488L246.715 263.411L246.667 264.075L246.348 263.796C246.348 263.796 244.073 268.718 237.479 270.357C236.151 270.668 234.977 271.463 234.175 272.597L234.151 272.632C232.78 274.611 231.831 277.49 236.924 278.285C244.892 279.521 253.803 277.755 253.803 277.755L269.311 262.828L265.602 261.037Z" fill="black"/>
<g id="Group" opacity="0.1">
<path id="Vector_5" d="M273.255 174.392C273.255 174.392 282.92 149.838 300.968 140.73C308.562 136.961 314.764 130.752 318.642 123.038C320.456 119.361 321.939 115.521 323.073 111.566" stroke="#535461" stroke-width="2" stroke-miterlimit="10"/>
<path id="Vector_6" d="M334.414 105.758C332.533 108.196 322.796 111.764 322.796 111.764C322.796 111.764 323.968 101.183 325.85 98.7452C326.279 98.1135 326.829 97.579 327.466 97.1746C328.103 96.7702 328.814 96.5044 329.554 96.3938C330.295 96.2831 331.049 96.3298 331.771 96.5309C332.494 96.7321 333.168 97.0835 333.754 97.5636C334.34 98.0436 334.824 98.6421 335.177 99.3222C335.529 100.002 335.743 100.75 335.806 101.518C335.868 102.287 335.777 103.061 335.538 103.791C335.299 104.522 334.918 105.195 334.418 105.769L334.414 105.758Z" fill="#F9A826"/>
<path id="Vector_7" d="M331.073 125.065C328.207 126.058 318.159 123.589 318.159 123.589C318.159 123.589 324.722 115.364 327.587 114.371C328.281 114.078 329.026 113.935 329.776 113.95C330.526 113.966 331.265 114.139 331.947 114.461C332.629 114.782 333.24 115.245 333.742 115.819C334.244 116.394 334.626 117.069 334.865 117.801C335.104 118.534 335.194 119.31 335.131 120.08C335.067 120.851 334.851 121.6 334.495 122.28C334.14 122.961 333.653 123.56 333.064 124.039C332.475 124.518 331.798 124.867 331.073 125.065V125.065Z" fill="#F9A826"/>
<path id="Vector_8" d="M312.956 147.892C309.999 147.256 302.531 139.897 302.531 139.897C302.531 139.897 312.226 136.212 315.184 136.844C316.53 137.224 317.685 138.118 318.414 139.345C319.143 140.572 319.39 142.039 319.106 143.447C318.822 144.855 318.028 146.099 316.885 146.925C315.743 147.751 314.338 148.097 312.956 147.892V147.892Z" fill="#F9A826"/>
<path id="Vector_9" d="M295.478 161.977C292.458 161.871 283.89 155.915 283.89 155.915C283.89 155.915 292.842 150.594 295.861 150.704C296.612 150.68 297.359 150.815 298.057 151.1C298.754 151.386 299.388 151.816 299.918 152.364C300.447 152.913 300.862 153.567 301.137 154.288C301.411 155.008 301.539 155.779 301.513 156.552C301.486 157.325 301.306 158.085 300.984 158.784C300.661 159.483 300.202 160.106 299.637 160.614C299.071 161.123 298.41 161.506 297.694 161.741C296.979 161.975 296.224 162.056 295.478 161.977V161.977Z" fill="#F9A826"/>
<path id="Vector_10" d="M308.803 116.689C309.186 119.78 315.732 128.019 315.732 128.019C315.732 128.019 320.044 118.339 319.657 115.251C319.389 113.843 318.611 112.593 317.482 111.754C316.353 110.915 314.957 110.55 313.577 110.733C312.196 110.916 310.935 111.633 310.048 112.739C309.162 113.845 308.716 115.257 308.803 116.689Z" fill="#F9A826"/>
<path id="Vector_11" d="M288.561 133.431C289.826 136.258 298.466 142.105 298.466 142.105C298.466 142.105 299.765 131.541 298.5 128.711C297.836 127.452 296.731 126.499 295.411 126.047C294.09 125.596 292.652 125.678 291.389 126.278C290.125 126.878 289.13 127.951 288.605 129.279C288.08 130.608 288.064 132.092 288.561 133.431Z" fill="#F9A826"/>
<path id="Vector_12" d="M271.055 152.488C271.84 155.498 279.394 162.762 279.394 162.762C279.394 162.762 282.41 152.576 281.628 149.566C281.184 148.202 280.253 147.064 279.023 146.383C277.793 145.702 276.358 145.531 275.009 145.904C273.661 146.276 272.501 147.165 271.767 148.388C271.032 149.612 270.777 151.078 271.055 152.488V152.488Z" fill="#F9A826"/>
<path id="Vector_13" opacity="0.25" d="M334.414 105.758C332.533 108.196 322.796 111.764 322.796 111.764C322.796 111.764 323.968 101.183 325.85 98.7452C326.279 98.1135 326.829 97.579 327.466 97.1746C328.103 96.7702 328.814 96.5044 329.554 96.3938C330.295 96.2831 331.049 96.3298 331.771 96.5309C332.494 96.7321 333.168 97.0835 333.754 97.5636C334.34 98.0436 334.824 98.6421 335.177 99.3222C335.529 100.002 335.743 100.75 335.806 101.518C335.868 102.287 335.777 103.061 335.538 103.791C335.299 104.522 334.918 105.195 334.418 105.769L334.414 105.758Z" fill="black"/>
<path id="Vector_14" opacity="0.25" d="M331.073 125.065C328.207 126.058 318.159 123.589 318.159 123.589C318.159 123.589 324.722 115.364 327.587 114.371C328.281 114.078 329.026 113.935 329.776 113.95C330.526 113.966 331.265 114.139 331.947 114.461C332.629 114.782 333.24 115.245 333.742 115.819C334.244 116.394 334.626 117.069 334.865 117.801C335.104 118.534 335.194 119.31 335.131 120.08C335.067 120.851 334.851 121.6 334.495 122.28C334.14 122.961 333.653 123.56 333.064 124.039C332.475 124.518 331.798 124.867 331.073 125.065V125.065Z" fill="black"/>
<path id="Vector_15" opacity="0.25" d="M312.956 147.892C309.999 147.256 302.531 139.897 302.531 139.897C302.531 139.897 312.226 136.212 315.184 136.844C316.53 137.224 317.685 138.118 318.414 139.345C319.143 140.572 319.39 142.039 319.106 143.447C318.822 144.855 318.028 146.099 316.885 146.925C315.743 147.751 314.338 148.097 312.956 147.892V147.892Z" fill="black"/>
<path id="Vector_16" opacity="0.25" d="M295.478 161.977C292.458 161.871 283.89 155.915 283.89 155.915C283.89 155.915 292.842 150.594 295.861 150.704C296.612 150.68 297.359 150.815 298.057 151.1C298.754 151.386 299.388 151.816 299.918 152.364C300.447 152.913 300.862 153.567 301.137 154.288C301.411 155.008 301.539 155.779 301.513 156.552C301.486 157.325 301.306 158.085 300.984 158.784C300.661 159.483 300.202 160.106 299.637 160.614C299.071 161.123 298.41 161.506 297.694 161.741C296.979 161.975 296.224 162.056 295.478 161.977V161.977Z" fill="black"/>
<path id="Vector_17" opacity="0.25" d="M308.803 116.689C309.186 119.78 315.732 128.019 315.732 128.019C315.732 128.019 320.044 118.339 319.657 115.251C319.389 113.843 318.611 112.593 317.482 111.754C316.353 110.915 314.957 110.55 313.577 110.733C312.196 110.916 310.935 111.633 310.048 112.739C309.162 113.845 308.716 115.257 308.803 116.689Z" fill="#F9A826"/>
<path id="Vector_18" opacity="0.25" d="M288.561 133.431C289.826 136.258 298.466 142.105 298.466 142.105C298.466 142.105 299.765 131.541 298.5 128.711C297.836 127.452 296.731 126.499 295.411 126.047C294.09 125.596 292.652 125.678 291.389 126.278C290.125 126.878 289.13 127.951 288.605 129.279C288.08 130.608 288.064 132.092 288.561 133.431Z" fill="black"/>
<path id="Vector_19" opacity="0.25" d="M271.055 152.488C271.84 155.498 279.394 162.762 279.394 162.762C279.394 162.762 282.41 152.576 281.628 149.566C281.184 148.202 280.253 147.064 279.023 146.383C277.793 145.702 276.358 145.531 275.009 145.904C273.661 146.276 272.501 147.165 271.767 148.388C271.032 149.612 270.777 151.078 271.055 152.488V152.488Z" fill="black"/>
</g>
<g id="Group_2" opacity="0.1">
<g id="Vector_20">
<path d="M257.867 135.11C257.867 135.11 259.087 108.641 273.183 93.8768C279.134 87.7246 282.989 79.7485 284.168 71.146C284.693 67.0539 284.854 62.9208 284.647 58.7984" fill="#FFD037"/>
<path d="M257.867 135.11C257.867 135.11 259.087 108.641 273.183 93.8768C279.134 87.7246 282.989 79.7485 284.168 71.146C284.693 67.0539 284.854 62.9208 284.647 58.7984" stroke="#535461" stroke-width="2" stroke-miterlimit="10"/>
</g>
<path id="Vector_21" d="M293.486 49.4362C292.496 52.3827 284.456 59.0669 284.456 59.0669C284.456 59.0669 282.159 48.6837 283.146 45.7408C283.687 44.4182 284.696 43.3573 285.968 42.7733C287.24 42.1893 288.68 42.126 289.995 42.5962C291.311 43.0663 292.404 44.0348 293.052 45.3051C293.7 46.5753 293.856 48.0523 293.486 49.4362Z" fill="#FFD037"/>
<path id="Vector_22" d="M296.547 68.7966C294.148 70.7115 283.887 71.8208 283.887 71.8208C283.887 71.8208 287.434 61.8156 289.816 59.9007C290.967 59.0921 292.374 58.7656 293.751 58.9876C295.127 59.2095 296.37 59.9633 297.227 61.0958C298.084 62.2283 298.49 63.6545 298.364 65.0848C298.238 66.5151 297.588 67.8423 296.547 68.7966V68.7966Z" fill="#FFD037"/>
<path id="Vector_23" d="M286.8 96.523C283.804 96.9363 274.39 92.5449 274.39 92.5449C274.39 92.5449 282.351 85.7546 285.357 85.3413C286.747 85.2433 288.12 85.694 289.199 86.602C290.278 87.51 290.981 88.8072 291.166 90.2302C291.351 91.6533 291.004 93.0956 290.195 94.2643C289.386 95.433 288.176 96.2405 286.81 96.523H286.8Z" fill="#FFD037"/>
<path id="Vector_24" d="M274.839 115.788C271.957 116.721 261.959 114.022 261.959 114.022C261.959 114.022 268.69 105.945 271.576 105.016C272.277 104.734 273.026 104.603 273.778 104.633C274.53 104.662 275.267 104.85 275.946 105.186C276.624 105.522 277.227 105.998 277.719 106.584C278.211 107.171 278.581 107.855 278.805 108.596C279.03 109.336 279.104 110.116 279.023 110.887C278.943 111.658 278.709 112.403 278.337 113.077C277.965 113.751 277.463 114.339 276.861 114.804C276.259 115.269 275.571 115.602 274.839 115.781V115.788Z" fill="#FFD037"/>
<path id="Vector_25" d="M272.841 68.5069C274.212 71.2909 283.026 76.8269 283.026 76.8269C283.026 76.8269 283.976 66.2282 282.619 63.4407C281.913 62.2036 280.778 61.2893 279.443 60.8833C278.107 60.4773 276.672 60.61 275.429 61.2544C274.185 61.8989 273.225 63.0069 272.745 64.3537C272.264 65.7004 272.298 67.1852 272.841 68.5069V68.5069Z" fill="#FFD037"/>
<path id="Vector_26" d="M259.132 91.2236C261.236 93.4599 271.264 96.0213 271.264 96.0213C271.264 96.0213 269.095 85.6063 266.99 83.3699C265.959 82.4026 264.608 81.8769 263.214 81.8998C261.819 81.9227 260.485 82.4925 259.484 83.4932C258.483 84.494 257.889 85.8504 257.823 87.2865C257.758 88.7227 258.226 90.1305 259.132 91.2236V91.2236Z" fill="#FFD037"/>
<path id="Vector_27" d="M248.747 115.184C250.461 117.756 259.92 122.027 259.92 122.027C259.92 122.027 259.485 111.386 257.782 108.814C256.92 107.693 255.679 106.951 254.307 106.736C252.936 106.521 251.537 106.85 250.392 107.657C249.246 108.463 248.44 109.687 248.135 111.081C247.829 112.476 248.048 113.938 248.747 115.173V115.184Z" fill="#FFD037"/>
</g>
<path id="Vector_28" opacity="0.1" d="M147.716 30.2065C147.716 30.2065 139.549 29.7013 140.519 35.6013C140.47 35.9006 140.513 36.2085 140.644 36.4808C140.774 36.7531 140.985 36.9757 141.246 37.1169C141.246 37.1169 141.246 36.6788 142.082 36.8272C142.375 36.8797 142.673 36.8951 142.97 36.8731C143.371 36.8444 143.752 36.682 144.056 36.4103V36.4103C144.056 36.4103 146.352 35.4317 147.244 31.5631C147.244 31.5631 147.905 30.7188 147.878 30.5033L146.507 31.1109C146.507 31.1109 146.976 32.1355 146.606 32.9869C146.606 32.9869 146.562 31.1463 146.298 31.1886C146.243 31.1886 145.581 31.5419 145.581 31.5419C145.581 31.5419 146.394 33.3296 145.78 34.6262C145.78 34.6262 146.013 32.4252 145.328 31.6727L144.358 32.2556C144.358 32.2556 145.304 34.0998 144.663 35.6048C144.663 35.6048 144.827 33.2978 144.156 32.3969L143.275 33.1035C143.275 33.1035 144.166 34.9229 143.618 36.1701C143.618 36.1701 143.549 33.4815 143.079 33.2801C142.747 33.5705 142.45 33.9015 142.195 34.2658C142.195 34.2658 142.802 35.5871 142.425 36.2831C142.425 36.2831 142.195 34.4919 142.003 34.4849C142.003 34.4849 141.236 35.6719 141.157 36.4845C141.194 35.7304 141.422 34.9996 141.818 34.3647C141.376 34.4512 140.967 34.6685 140.643 34.9901C140.643 34.9901 140.763 34.1528 142.014 34.0786C142.014 34.0786 142.648 33.1777 142.816 33.1247C142.816 33.1247 141.578 33.0152 140.831 33.3614C140.831 33.3614 141.489 32.57 143.042 32.9268L143.912 32.1991C143.912 32.1991 142.284 31.9694 141.592 32.2203C141.592 32.2203 142.387 31.5137 144.145 32.033L145.091 31.4501C144.364 31.284 143.618 31.2175 142.874 31.2522C142.874 31.2522 143.748 30.7682 145.369 31.2911L146.054 30.9802C146.054 30.9802 145.026 30.7753 144.738 30.74C144.45 30.7046 144.426 30.6234 144.426 30.6234C145.07 30.5127 145.731 30.5886 146.335 30.8424C146.335 30.8424 147.744 30.3019 147.716 30.2065Z" fill="#F9A826"/>
<path id="Vector_29" opacity="0.1" d="M126.269 58.9186C126.269 58.9186 123.479 66.85 129.24 67.5742C129.505 67.7079 129.804 67.7519 130.095 67.6999C130.385 67.6479 130.652 67.5025 130.858 67.2845C130.858 67.2845 130.454 67.1467 130.827 66.3766C130.954 66.1008 131.049 65.8102 131.108 65.511C131.196 65.1066 131.154 64.6838 130.988 64.3063V64.3063C130.988 64.3063 130.731 61.759 127.386 59.7806C127.386 59.7806 126.786 58.8868 126.577 58.8514L126.752 60.3847C126.752 60.3847 127.839 60.2116 128.528 60.8193C128.528 60.8193 126.814 60.3423 126.766 60.6144C126.766 60.6709 126.893 61.4234 126.893 61.4234C126.893 61.4234 128.785 61.1302 129.82 62.1017C129.82 62.1017 127.839 61.2503 126.944 61.7096L127.211 62.8366C127.211 62.8366 129.196 62.4232 130.412 63.4866C130.412 63.4866 128.312 62.667 127.283 63.0768L127.691 64.1367C127.691 64.1367 129.634 63.7834 130.642 64.6631C130.642 64.6631 128.123 63.9565 127.801 64.3769C127.977 64.789 128.201 65.177 128.469 65.5322C128.469 65.5322 129.868 65.3061 130.409 65.8855C130.409 65.8855 128.678 65.6064 128.617 65.7936C128.617 65.7936 129.501 66.8888 130.234 67.2068C129.547 66.957 128.935 66.5258 128.459 65.9561C128.417 66.4122 128.504 66.871 128.709 67.2775C128.709 67.2775 127.965 66.9242 128.25 65.6735C128.25 65.6735 127.592 64.7903 127.588 64.6136C127.588 64.6136 127.139 65.8078 127.246 66.6451C127.246 66.6451 126.697 65.7689 127.472 64.3345L127.04 63.2747C127.04 63.2747 126.355 64.8185 126.403 65.5711C126.403 65.5711 125.978 64.5889 126.951 62.9956L126.677 61.8968C126.319 62.5646 126.046 63.277 125.865 64.0166C125.865 64.0166 125.662 63.0132 126.612 61.5647L126.512 60.8051C126.512 60.8051 126.032 61.752 125.916 62.0381C125.799 62.3243 125.717 62.3137 125.717 62.3137C125.798 61.6456 126.057 61.0135 126.464 60.4872C126.464 60.4872 126.365 58.9221 126.269 58.9186Z" fill="#F9A826"/>
<path id="Vector_30" opacity="0.1" d="M180.433 52.2378C180.433 52.2378 177.64 60.1657 183.404 60.8899C183.668 61.0238 183.966 61.0682 184.256 61.0168C184.546 60.9654 184.813 60.8208 185.018 60.6038C185.018 60.6038 184.617 60.466 184.987 59.6923C185.119 59.4171 185.218 59.1264 185.282 58.8267C185.371 58.4232 185.327 58.0009 185.159 57.6255V57.6255C185.159 57.6255 184.902 55.0783 181.557 53.0963C181.557 53.0963 180.96 52.2025 180.751 52.1671L180.923 53.704C180.923 53.704 182.013 53.5273 182.698 54.135C182.698 54.135 180.984 53.658 180.94 53.9336C180.94 53.9866 181.067 54.7426 181.067 54.7426C181.067 54.7426 182.959 54.4459 183.99 55.421C183.99 55.421 182.013 54.566 181.115 55.0288L181.382 56.1523C181.382 56.1523 183.366 55.7389 184.586 56.8023C184.586 56.8023 182.486 55.9827 181.457 56.396L181.865 57.4559C181.865 57.4559 183.809 57.1026 184.816 57.9823C184.816 57.9823 182.297 57.2757 181.975 57.6926C182.15 58.104 182.374 58.4919 182.64 58.8479C182.64 58.8479 184.042 58.6218 184.583 59.2012C184.583 59.2012 182.849 58.9221 182.791 59.1058C182.791 59.1058 183.675 60.201 184.408 60.519C183.72 60.2677 183.106 59.8354 182.63 59.2648C182.584 59.7267 182.671 60.1923 182.88 60.6038C182.88 60.6038 182.133 60.2505 182.417 58.9963C182.417 58.9963 181.762 58.1166 181.759 57.9364C181.759 57.9364 181.307 59.127 181.416 59.9678C181.416 59.9678 180.868 59.0881 181.646 57.6573L181.211 56.5974C181.211 56.5974 180.525 58.1413 180.577 58.8974C180.577 58.8974 180.152 57.9117 181.125 56.3183L180.851 55.2196C180.492 55.8869 180.219 56.5995 180.039 57.3393C180.039 57.3393 179.833 56.3395 180.782 54.8875L180.683 54.1314C180.683 54.1314 180.203 55.0783 180.09 55.3609C179.977 55.6435 179.891 55.64 179.891 55.64C179.97 54.9713 180.229 54.3387 180.638 53.8135C180.638 53.8135 180.525 52.2378 180.433 52.2378Z" fill="#F9A826"/>
<path id="Vector_31" opacity="0.1" d="M91.9317 42.3032C91.9317 42.3032 89.1385 50.2346 94.9031 50.9554C95.1668 51.0903 95.4653 51.1353 95.7555 51.0839C96.0457 51.0324 96.3124 50.8872 96.5173 50.6692C96.5173 50.6692 96.1163 50.5314 96.4864 49.7612C96.6167 49.4854 96.7156 49.1949 96.7812 48.8957C96.8679 48.4909 96.8246 48.0681 96.6578 47.6909C96.6578 47.6909 96.4008 45.1437 93.0558 43.1617C93.0558 43.1617 92.4595 42.2714 92.2504 42.2361L92.4218 43.7694C92.4218 43.7694 93.5082 43.5963 94.1971 44.2039C94.1971 44.2039 92.4835 43.7235 92.4389 43.999C92.4389 44.0556 92.5657 44.8081 92.5657 44.8081C92.5657 44.8081 94.4575 44.5148 95.4891 45.4864C95.4891 45.4864 93.5082 44.6314 92.6137 45.0942L92.881 46.2212C92.881 46.2212 94.8654 45.8079 96.082 46.8713C96.082 46.8713 93.9846 46.0517 92.9564 46.4615L93.3642 47.5214C93.3642 47.5214 95.3075 47.1681 96.3151 48.0478C96.3151 48.0478 93.7926 47.3412 93.4739 47.7581C93.6493 48.1706 93.8725 48.5597 94.1388 48.9169C94.1388 48.9169 95.5405 48.6872 96.0786 49.2702C96.0786 49.2702 94.3479 48.9911 94.2862 49.1783C94.2862 49.1783 95.1738 50.27 95.9072 50.5915C95.2178 50.3417 94.6043 49.9091 94.1285 49.3373C94.0831 49.7992 94.1701 50.2647 94.3787 50.6763C94.3787 50.6763 93.6316 50.323 93.916 49.0723C93.916 49.0723 93.258 48.1891 93.258 48.0124C93.258 48.0124 92.8056 49.2066 92.9153 50.0439C92.9153 50.0439 92.3669 49.1677 93.1415 47.7333L92.7096 46.6735C92.7096 46.6735 92.0242 48.2209 92.0722 48.9734C92.0722 48.9734 91.6472 47.9912 92.6205 46.3979L92.3498 45.2956C91.9911 45.963 91.7181 46.6755 91.5375 47.4154C91.5375 47.4154 91.3319 46.4155 92.2812 44.9635L92.1819 44.2075C92.1819 44.2075 91.702 45.1543 91.5889 45.4405C91.4759 45.7266 91.3902 45.716 91.3902 45.716C91.4691 45.0479 91.7266 44.4156 92.1339 43.8895C92.1339 43.8895 92.0379 42.3068 91.9317 42.3032Z" fill="#F9A826"/>
<path id="Vector_32" opacity="0.1" d="M177.735 96.1026C177.735 96.1026 179.891 104.228 185.005 101.402C185.295 101.354 185.564 101.213 185.772 100.999C185.98 100.784 186.117 100.507 186.163 100.208C186.163 100.208 185.759 100.331 185.628 99.48C185.582 99.1778 185.5 98.8825 185.385 98.6004C185.23 98.2188 184.96 97.899 184.614 97.6889V97.6889C184.614 97.6889 182.979 95.7634 179.13 96.1308C179.13 96.1308 178.143 95.7563 177.951 95.8517L178.952 97.0035C178.952 97.0035 179.74 96.2156 180.642 96.2969C180.642 96.2969 178.966 96.9293 179.093 97.173C179.117 97.2225 179.648 97.7595 179.648 97.7595C179.648 97.7595 181.019 96.3958 182.417 96.576C182.417 96.576 180.323 97.0565 179.847 97.9644L180.697 98.7275C180.697 98.7275 182.088 97.2084 183.675 97.3532C183.675 97.3532 181.502 97.9326 180.892 98.8795L181.824 99.5118C181.824 99.5118 183.195 98.0598 184.528 98.187C184.528 98.187 182.085 99.1197 182.047 99.639C182.421 99.8718 182.822 100.057 183.24 100.19C183.24 100.19 184.268 99.1727 185.015 99.3175C185.015 99.3175 183.445 100.116 183.5 100.307C183.5 100.307 184.833 100.66 185.608 100.49C184.905 100.695 184.163 100.706 183.455 100.522C183.676 100.926 184.006 101.255 184.405 101.469C184.405 101.469 183.596 101.621 183.13 100.43C183.13 100.43 182.102 100.102 181.996 99.9535C181.996 99.9535 182.294 101.194 182.852 101.815C182.852 101.815 181.913 101.427 181.745 99.7945L180.803 99.1903C180.803 99.1903 181.111 100.854 181.567 101.448C181.567 101.448 180.669 100.897 180.573 99.0172L179.734 98.2824C179.817 99.0448 179.996 99.7928 180.265 100.508C180.265 100.508 179.538 99.8015 179.504 98.0598L178.997 97.5016C178.997 97.5016 179.134 98.5615 179.202 98.8618C179.271 99.1621 179.202 99.2151 179.202 99.2151C178.893 98.6218 178.749 97.9515 178.788 97.279C178.788 97.279 177.814 96.046 177.735 96.1026Z" fill="#F9A826"/>
<path id="Vector_33" d="M136.249 223.705C136.249 223.705 135.992 228.121 134.364 229.534C134.364 229.534 131.023 249.495 127.938 253.116L127.424 255.148L114.572 253.646L117.142 235.982L119.541 219.73L136.249 223.705Z" fill="#FFC1C8"/>
<path id="Vector_34" opacity="0.03" d="M136.249 223.705C136.249 223.705 135.992 228.121 134.364 229.534C134.364 229.534 131.023 249.495 127.938 253.116L127.424 255.148L114.572 253.646L117.142 235.982L119.541 219.73L136.249 223.705Z" fill="black"/>
<path id="Vector_35" d="M122.4 253.364L127.938 253.113L127.643 262.101L123.404 265.029L115.768 263.305L118.554 251.293L122.4 253.364Z" fill="#FF748F"/>
<path id="Vector_36" opacity="0.03" d="M122.4 253.364L127.938 253.113L127.643 262.101L123.404 265.029L115.768 263.305L118.554 251.293L122.4 253.364Z" fill="black"/>
<path id="Vector_37" d="M123.404 261.412C123.404 261.412 127.753 260.09 129.816 261.814C131.879 263.538 136.897 268.135 137.901 268.711C138.905 269.286 153.385 272.102 148.604 275.72C143.823 279.338 131.547 278.306 131.547 278.306C131.547 278.306 123.517 275.889 123.294 275.776C123.071 275.663 118.153 273.19 117.999 273.017C117.845 272.844 119.391 261.359 119.391 261.359L123.404 261.412Z" fill="#5D618C"/>
<path id="Vector_38" opacity="0.03" d="M123.404 261.412C123.404 261.412 127.753 260.09 129.816 261.814C131.879 263.538 136.897 268.135 137.901 268.711C138.905 269.286 153.385 272.102 148.604 275.72C143.823 279.338 131.547 278.306 131.547 278.306C131.547 278.306 123.517 275.889 123.294 275.776C123.071 275.663 118.153 273.19 117.999 273.017C117.845 272.844 119.391 261.359 119.391 261.359L123.404 261.412Z" fill="black"/>
<path id="Vector_39" d="M110.802 142.006L110.545 158.427L109.962 193.456L109.62 193.763C99.4236 202.86 92.2264 193.233 92.2264 193.233C91.6849 193.894 90.5128 194.208 89.2516 194.343C87.8721 194.47 86.4842 194.47 85.1047 194.343L84.7619 194.311C84.7619 194.311 57.8514 160.193 56.2235 154.187C55.9006 153.172 55.909 152.075 56.2475 151.064C56.7787 149.63 58.0502 148.775 59.2669 148.27C60.1594 147.906 61.0955 147.668 62.0498 147.563C62.0498 147.563 61.2787 141.292 57.7658 132.018C55.7917 126.807 55.9836 124.161 56.5285 122.833C56.9535 121.805 57.5944 121.586 57.5944 121.586C57.5944 121.586 58.6774 120.762 60.4219 119.466C61.8716 118.374 63.7805 116.947 65.9054 115.368L67.8761 113.912C75.1452 108.535 83.9051 102.204 85.6976 101.547C85.8094 101.505 85.9239 101.47 86.0403 101.444C89.7177 100.529 102.059 102.43 102.059 102.43L110.802 142.006Z" fill="#F9A826"/>
<path id="Vector_40" opacity="0.1" d="M110.802 142.006L110.545 158.427C98.3543 154.721 87.0205 130.163 85.5262 128.227C84.2479 126.546 85.5605 107.818 86.0437 101.451C89.7211 100.536 102.063 102.437 102.063 102.437L110.802 142.006Z" fill="black"/>
<path id="Vector_41" d="M250.718 110.026C250.718 110.026 241.208 115.06 240.008 134.845C240.008 134.845 238.466 144.913 237.609 146.68C236.752 148.446 232.64 165.139 233.154 167.171C233.154 167.171 232.297 169.202 229.127 168.319C225.956 167.436 208.82 164.698 204.965 162.048L194.34 156.837C194.34 156.837 173.606 141.734 169.236 154.717C164.866 167.701 189.714 167.178 189.714 167.178L201.452 172.831L237.009 184.924C237.009 184.924 241.722 187.132 244.892 180.066C246.92 175.615 249.329 171.359 252.089 167.348C252.089 167.348 259.286 146.503 259.2 142.97C259.115 139.437 266.912 131.047 266.912 131.047C266.912 131.047 268.454 108.789 255.773 109.231L250.718 110.026Z" fill="#FFC1C7"/>
<path id="Vector_42" opacity="0.03" d="M250.718 110.026C250.718 110.026 241.208 115.06 240.008 134.845C240.008 134.845 238.466 144.913 237.609 146.68C236.752 148.446 232.64 165.139 233.154 167.171C233.154 167.171 232.297 169.202 229.127 168.319C225.956 167.436 208.82 164.698 204.965 162.048L194.34 156.837C194.34 156.837 173.606 141.734 169.236 154.717C164.866 167.701 189.714 167.178 189.714 167.178L201.452 172.831L237.009 184.924C237.009 184.924 241.722 187.132 244.892 180.066C246.92 175.615 249.329 171.359 252.089 167.348C252.089 167.348 259.286 146.503 259.2 142.97C259.115 139.437 266.912 131.047 266.912 131.047C266.912 131.047 268.454 108.789 255.773 109.231L250.718 110.026Z" fill="black"/>
<path id="Vector_43" d="M150.129 127.21C150.643 127.828 153.042 129.104 153.042 129.104C153.042 129.104 160.925 138.773 164.095 141.246C167.265 143.719 177.633 153.17 175.535 156.749C173.438 160.328 171.08 159.529 171.08 159.529L152.528 146.281C152.528 146.281 146.017 141.469 144.69 139.172C143.364 136.876 141.733 132.068 141.733 132.068L150.129 127.21Z" fill="#FFC1C8"/>
<path id="Vector_44" opacity="0.03" d="M150.129 127.21C150.643 127.828 153.042 129.104 153.042 129.104C153.042 129.104 160.925 138.773 164.095 141.246C167.265 143.719 177.633 153.17 175.535 156.749C173.438 160.328 171.08 159.529 171.08 159.529L152.528 146.281C152.528 146.281 146.017 141.469 144.69 139.172C143.364 136.876 141.733 132.068 141.733 132.068L150.129 127.21Z" fill="black"/>
<path id="Vector_45" d="M139.721 110.694L153.042 129.107L141.047 133.923L136.078 118.508L139.721 110.694Z" fill="#DCE6F2"/>
<path id="Vector_46" opacity="0.03" d="M139.721 110.694L153.042 129.107L141.047 133.923L136.078 118.508L139.721 110.694Z" fill="black"/>
<path id="Vector_47" d="M143.189 157.639L145.588 161.26L147.645 215.491C147.645 215.491 147.816 220.613 146.359 222.115C144.903 223.616 132.993 222.645 132.993 222.645C132.993 222.645 133.422 167.355 133.593 166.295C133.764 165.235 143.189 157.639 143.189 157.639Z" fill="#575988"/>
<path id="Vector_48" opacity="0.1" d="M143.189 157.639L145.588 161.26L147.645 215.491C147.645 215.491 147.816 220.613 146.359 222.115C144.903 223.616 132.993 222.645 132.993 222.645C132.993 222.645 133.422 167.355 133.593 166.295C133.764 165.235 143.189 157.639 143.189 157.639Z" fill="black"/>
<path id="Vector_49" d="M127.146 226.192C126.366 228.169 125.45 230.087 124.405 231.929C124.405 231.929 122.177 245.033 121.228 246.241C120.542 247.124 120.227 253.717 120.114 257.154C120.073 258.398 120.055 259.228 120.055 259.228L106.957 265.665L106.898 257.158C106.898 257.158 106.898 257.119 106.898 257.045C106.816 255.169 105.87 233.441 107.855 232.177C109.02 231.431 110.13 228.29 110.881 225.715C111.453 223.726 111.813 222.062 111.813 222.062C111.813 222.062 126.365 221.087 127.578 222.694C128.024 223.267 127.715 224.659 127.146 226.192Z" fill="#FFC1C8"/>
<path id="Vector_50" opacity="0.1" d="M127.146 226.192C121.245 226.065 113.849 225.807 110.86 225.697C111.433 223.708 111.792 222.044 111.792 222.044C111.792 222.044 126.344 221.069 127.558 222.677C128.024 223.267 127.715 224.659 127.146 226.192Z" fill="black"/>
<path id="Vector_51" d="M109.945 145.804C109.945 145.804 105.918 167.885 106.689 182.105C107.46 196.325 106.089 206.828 107.803 210.986C109.517 215.144 109.517 224.588 109.517 224.588C109.517 224.588 132.822 225.471 135.221 225.118C137.62 224.765 137.534 222.91 137.534 222.91C137.534 222.91 135.906 208.241 137.449 203.648C138.991 199.055 138.734 185.012 138.734 185.012L145.245 162.401C145.245 162.401 147.216 152.244 143.103 148.093C138.991 143.942 109.945 145.804 109.945 145.804Z" fill="#575988"/>
<path id="Vector_52" d="M248.233 262.479L247.205 264.033L240.848 273.784L235.45 275.462L231.423 271.399L231.618 268.718L232.622 254.794C232.622 254.794 207.706 239.684 205.479 236.858C203.251 234.031 194.683 231.47 194.683 231.47C194.683 231.47 181.574 225.199 176.69 214.247C171.806 203.295 184.83 201.617 184.83 201.617L233.753 249.848L248.233 262.479Z" fill="#FFC1C7"/>
<path id="Vector_53" opacity="0.1" d="M247.222 264.03L240.865 273.78L235.467 275.459L231.44 271.396L231.635 268.714L236.067 272.632L244.378 262.652L247.222 264.03Z" fill="black"/>
<path id="Vector_54" d="M254.231 268.131L238.723 283.058C238.723 283.058 229.812 284.824 221.844 283.588C216.751 282.796 217.731 279.917 219.071 277.935L219.095 277.9C219.898 276.766 221.071 275.971 222.399 275.66C228.993 274.021 231.269 269.099 231.269 269.099L236.067 273.339L244.378 263.355L250.523 266.329L254.231 268.131Z" fill="#575988"/>
<path id="Vector_55" d="M254.231 268.301L238.723 283.234C238.723 283.234 229.812 285.001 221.844 283.764C216.751 282.973 217.388 280.094 218.728 278.112C220.269 279.371 222.119 280.165 224.071 280.405C228.441 280.846 235.039 280.405 235.039 280.405L250.523 266.51L254.231 268.301Z" fill="white"/>
<path id="Vector_56" d="M126.197 89.3936C124.936 90.0436 124.357 92.0503 124.123 94.3396C123.729 98.2471 124.367 102.953 124.367 102.953C124.367 102.953 107.231 98.1234 109.061 97.1801C110.113 96.6396 110.672 92.7039 110.956 89.4642C111.169 87.0689 111.23 85.0516 111.23 85.0516C111.23 85.0516 129.624 87.6271 126.197 89.3936Z" fill="#FFC1C8"/>
<path id="Vector_57" d="M262.6 110.828C262.6 110.828 241.807 131.082 242.493 125.196C242.589 124.377 242.315 123.242 241.773 121.904C239.85 117.127 234.535 109.711 230.378 104.288C227.327 100.31 224.894 97.4027 224.894 97.4027C224.894 97.4027 250.718 75.0287 248.662 87.7472C248.233 90.6473 248.625 93.6132 249.789 96.2898C252.363 102.536 258.066 107.45 260.914 109.62C261.942 110.4 262.6 110.828 262.6 110.828Z" fill="#FFC1C7"/>
<path id="Vector_58" opacity="0.1" d="M245.807 91.6299C245.433 92.1068 244.049 93.7815 243.637 94.2231C239.73 98.4166 239.209 104.469 233.126 104.469C232.209 104.469 231.294 104.409 230.384 104.288C227.334 100.31 224.901 97.4027 224.901 97.4027C224.901 97.4027 250.718 75.0287 248.662 87.7472C248.175 90.7643 244.72 88.9873 245.807 91.6299Z" fill="black"/>
<path id="Vector_59" d="M254.601 81.6211C254.602 86.0005 253.343 90.2817 250.983 93.9232C248.623 97.5648 245.269 100.403 241.344 102.079C237.419 103.756 233.1 104.194 228.933 103.34C224.767 102.486 220.939 100.377 217.935 97.2806C214.931 94.1839 212.886 90.2385 212.057 85.9433C211.228 81.648 211.654 77.1959 213.28 73.1501C214.906 69.1042 217.659 65.6464 221.192 63.2138C224.725 60.7812 228.878 59.4831 233.126 59.4838C235.949 59.4726 238.747 60.0376 241.357 61.1461C243.967 62.2546 246.339 63.8848 248.335 65.9427C250.332 68.0006 251.913 70.4454 252.989 73.1363C254.064 75.8272 254.612 78.7109 254.601 81.6211V81.6211Z" fill="#FFC1C7"/>
<path id="Vector_60" opacity="0.1" d="M262.6 110.828C262.6 110.828 241.807 131.082 242.493 125.196C242.589 124.377 242.315 123.242 241.773 121.904L244.779 114.597C248.461 111.272 253.184 109.428 258.08 109.404C258.97 109.403 259.86 109.466 260.743 109.591L260.914 109.62C261.942 110.4 262.6 110.828 262.6 110.828Z" fill="black"/>
<path id="Vector_61" d="M287.047 259.211C287.047 259.211 272.31 283.468 272.31 285.354C272.31 285.354 255.629 278.642 249.69 277.228C243.751 275.815 238.151 262.98 238.151 262.98C238.151 262.98 222.385 247.668 216.216 245.549C210.983 243.75 185.834 207.181 178.342 196.148C177.425 194.798 176.948 193.182 176.98 191.534C177.012 189.886 177.551 188.291 178.52 186.98L178.661 186.793C180.643 184.221 183.269 182.256 186.255 181.11C189.241 179.963 192.474 179.678 195.605 180.285C196.3 180.417 196.987 180.591 197.661 180.808C208.45 184.245 227.135 190.153 236.56 192.82C239.713 193.714 241.821 194.233 242.249 194.201C243.278 194.092 243.843 193.141 244.155 192.099C244.393 191.251 244.521 190.374 244.535 189.492C244.535 189.492 244.535 189.435 244.535 189.333C244.247 187.087 243.793 184.866 243.178 182.691C242.078 178.805 240.173 174.244 237.009 172.064C234.384 170.259 232.297 166.277 231.204 161.649C229.733 155.399 230.073 147.962 233.352 143.094L236.523 135.385L241.824 122.49L244.779 115.304C248.461 111.979 253.184 110.135 258.08 110.111C258.971 110.11 259.86 110.172 260.743 110.298C263.015 110.623 264.979 111.326 265.798 112.711C268.31 116.95 274.023 124.723 275.164 132.495C276.306 140.268 274.938 152.986 278.821 157.699C282.704 162.412 284.99 173.714 289.103 176.07C293.216 178.427 282.478 183.369 282.478 183.369L282.519 184.115L282.704 187.376C282.704 187.376 282.78 187.464 282.917 187.641C285.309 190.693 306.924 219.999 287.047 259.211Z" fill="#FF6584"/>
<path id="Vector_62" d="M282.934 187.641C278.431 188.612 268.581 190.728 264.187 191.658L263.416 191.82C263.159 191.873 262.871 191.923 262.559 191.968C258.145 192.594 248.569 192.286 244.186 192.103C244.424 191.255 244.552 190.378 244.566 189.495C244.566 189.495 244.566 189.439 244.566 189.336C247.901 189.114 255.804 188.464 262.576 187.029C263.128 186.913 263.673 186.789 264.204 186.676C264.972 186.492 265.719 186.298 266.432 186.093C272.505 184.327 278.917 184.094 282.54 184.129L282.725 187.39C282.725 187.39 282.78 187.464 282.934 187.641Z" fill="#575988"/>
<path id="Vector_63" d="M264.17 186.662V191.658L263.399 191.82C263.142 191.873 262.854 191.923 262.542 191.968V187.044C263.094 186.913 263.639 186.789 264.17 186.662Z" fill="#FF6584"/>
<path id="Vector_64" opacity="0.1" d="M268.368 196.229C268.368 196.229 259.2 217.868 253.631 219.988C248.062 222.108 234.182 229.615 234.182 229.615C234.182 229.615 242.15 236.858 250.461 228.909C258.772 220.96 270.767 199.762 268.368 196.229Z" fill="black"/>
<path id="Vector_65" opacity="0.1" d="M278.393 193.322C278.393 193.322 279.25 201.536 278.05 203.037C276.851 204.539 278.393 193.322 278.393 193.322Z" fill="black"/>
<path id="Vector_66" opacity="0.1" d="M283.362 198.702C283.362 198.702 287.989 248.693 265.027 248.958C265.027 248.965 286.532 226.966 283.362 198.702Z" fill="black"/>
<path id="Vector_67" opacity="0.1" d="M289.189 210.714C289.189 210.714 295.786 236.946 287.132 239.949C287.132 239.956 291.673 226.354 289.189 210.714Z" fill="black"/>
<path id="Vector_68" opacity="0.1" d="M248.148 204.002C247.719 204.002 230.326 207.093 234.096 209.566C237.866 212.039 248.148 204.002 248.148 204.002Z" fill="black"/>
<path id="Vector_69" opacity="0.1" d="M260.143 168.591C260.143 168.591 274.366 181.575 271.624 182.988Z" fill="black"/>
<path id="Vector_70" opacity="0.1" d="M258.943 172.742C258.943 172.742 267.169 183.164 266.226 183.783Z" fill="black"/>
<path id="Vector_71" opacity="0.1" d="M276.508 171.145C276.508 171.145 280.278 176.003 279.678 177.063Z" fill="black"/>
<path id="Vector_72" opacity="0.1" d="M280.278 168.591C280.278 168.591 285.676 172.912 284.476 174.597Z" fill="black"/>
<path id="Vector_73" d="M250.29 115.951C250.29 115.951 267.854 117.364 267.083 131.937C266.312 146.51 253.203 150.22 253.203 150.22L236.152 145.185C236.152 145.185 243.778 116.922 250.29 115.951Z" fill="#FFC1C7"/>
<path id="Vector_74" opacity="0.1" d="M197.675 180.808C208.464 184.245 227.149 190.153 236.574 192.82C235.956 193.144 235.28 193.332 234.587 193.372C233.895 193.411 233.203 193.302 232.554 193.05L196.996 180.956L195.605 180.285C196.305 180.416 196.996 180.591 197.675 180.808Z" fill="black"/>
<path id="Vector_75" opacity="0.1" d="M257.847 144.786C256.178 147.083 254.707 149.556 254.762 151.103C254.79 152.216 254.077 155.053 253.124 158.413C250.67 166.851 247.337 174.991 243.185 182.691C242.085 178.805 240.179 174.244 237.016 172.064C234.391 170.259 232.304 166.277 231.21 161.649C232.043 158.3 232.835 155.484 233.16 154.813C234.017 153.046 235.56 142.977 235.56 142.977C235.705 140.426 236.029 137.888 236.529 135.385C237.773 129.263 239.888 125.14 241.831 122.49C244.176 119.268 246.287 118.159 246.287 118.159L251.342 117.364C257.168 117.162 259.978 121.73 261.332 126.737C262.991 132.958 261.603 139.614 257.847 144.786Z" fill="black"/>
<path id="Vector_76" d="M245.235 116.738C245.235 116.738 235.724 121.773 234.524 141.557C234.524 141.557 232.982 151.626 232.125 153.392C231.269 155.159 227.156 171.852 227.67 173.883C227.67 173.883 226.813 175.915 223.643 175.032C220.473 174.148 203.337 171.41 199.481 168.761L188.857 163.55C188.857 163.55 168.122 148.446 163.752 161.43C159.383 174.413 184.23 173.89 184.23 173.89L195.968 179.543L231.526 191.636C231.526 191.636 236.238 193.844 239.408 186.779C240.2 185.012 241.046 183.334 241.872 181.808C246.15 173.954 249.576 165.64 252.089 157.014C253.059 153.654 253.755 150.817 253.727 149.704C253.689 148.157 255.163 145.68 256.812 143.387C260.582 138.215 261.952 131.559 260.273 125.334C258.919 120.328 256.095 115.76 250.283 115.965L245.235 116.738Z" fill="#FFC1C7"/>
<path id="Vector_77" opacity="0.1" d="M126.197 89.3936C124.936 90.0436 124.357 92.0503 124.124 94.3396C123.901 94.3396 123.678 94.3396 123.455 94.3396C118.848 94.3486 114.398 92.608 110.956 89.4501C111.169 87.0548 111.23 85.0375 111.23 85.0375C111.23 85.0375 129.624 87.6271 126.197 89.3936Z" fill="black"/>
<path id="Vector_78" d="M142.305 74.202C142.305 78.0451 141.199 81.8019 139.128 84.9973C137.057 88.1927 134.113 90.6833 130.669 92.154C127.224 93.6247 123.434 94.0095 119.778 93.2597C116.121 92.51 112.763 90.6593 110.126 87.9418C107.49 85.2244 105.695 81.7621 104.968 77.9928C104.24 74.2235 104.614 70.3166 106.04 66.766C107.467 63.2155 109.883 60.1808 112.983 58.0456C116.083 55.9105 119.727 54.7709 123.455 54.7709C128.451 54.7821 133.239 56.8329 136.772 60.4745C140.305 64.1161 142.294 69.052 142.305 74.202V74.202Z" fill="#FFC1C8"/>
<path id="Vector_79" opacity="0.1" d="M148.673 150.301C148.673 150.301 138.819 154.364 135.735 155.777C132.65 157.19 115 153.922 115 153.922C115 153.922 105.832 149.153 106.604 144.384C107.375 139.614 99.2351 123.988 99.2351 123.988C99.2351 123.988 98.9781 110.121 102.577 107.472C106.175 104.822 104.804 99.2575 104.804 99.2575C104.804 99.2575 104.821 99.0738 104.876 98.7735C105.099 97.5935 105.904 94.5905 108.574 93.6048C109.115 93.4549 109.682 93.4392 110.23 93.5589C112.79 93.9581 116.995 95.9224 120.474 97.7348C123.352 99.2363 125.734 100.632 126.279 100.957L126.396 101.024C126.396 101.024 127.681 104.115 129.223 103.144C130.765 102.172 138.477 106.677 139.933 108.708C141.39 110.739 140.362 120.278 140.105 122.663C139.848 125.048 141.561 132.114 143.446 136.169C145.331 140.225 148.673 150.301 148.673 150.301Z" fill="black"/>
<path id="Vector_80" d="M148.673 149.241C148.673 149.241 138.819 153.304 135.735 154.717C132.65 156.13 115 152.863 115 152.863C115 152.863 105.832 148.093 106.604 143.324C107.375 138.554 99.2351 122.928 99.2351 122.928C99.2351 122.928 98.9781 109.061 102.577 106.412C106.175 103.762 104.804 98.1976 104.804 98.1976C104.804 98.1976 104.821 98.0139 104.876 97.7136C105.099 96.5336 105.904 93.5306 108.574 92.5449C109.115 92.3951 109.682 92.3793 110.23 92.499C112.79 92.8982 116.995 94.8625 120.474 96.6749C123.352 98.1764 125.734 99.5719 126.279 99.8969L126.396 99.9641C126.396 99.9641 127.681 103.055 129.223 102.084C130.765 101.112 138.477 105.617 139.933 107.648C141.39 109.68 140.362 119.218 140.105 121.603C139.848 123.988 141.561 131.054 143.446 135.11C145.331 139.165 148.673 149.241 148.673 149.241Z" fill="#DCE6F2"/>
<path id="Vector_81" d="M116.772 135.675C116.772 135.675 108.317 149.807 106.946 150.573L107.46 155.519C107.46 155.519 119.514 152.926 120.258 149.453C121.001 145.98 120.6 135.498 120.6 135.498L116.772 135.675Z" fill="#575988"/>
<path id="Vector_82" opacity="0.2" d="M116.772 135.675C116.772 135.675 108.317 149.807 106.946 150.573L107.46 155.519C107.46 155.519 119.514 152.926 120.258 149.453C121.001 145.98 120.6 135.498 120.6 135.498L116.772 135.675Z" fill="black"/>
<path id="Vector_83" opacity="0.1" d="M128.668 117.671C128.668 117.671 130.166 123.635 132.524 125.666C134.882 127.698 128.668 117.671 128.668 117.671Z" fill="black"/>
<path id="Vector_84" d="M113.972 133.393C114.188 133.792 121.426 143.949 129.052 147.701C136.677 151.453 153.687 155.873 153.687 155.873C153.687 155.873 167.481 158.522 169.836 159.536C172.19 160.55 175.192 156.003 160.411 149.513C145.629 143.023 142.761 140.151 142.761 140.151C142.761 140.151 129.909 133.696 127.852 130.517C125.796 127.337 113.972 133.393 113.972 133.393Z" fill="#FFC1C8"/>
<path id="Vector_85" opacity="0.1" d="M119.37 182.804C119.627 182.627 125.796 175.827 126.567 178.741C127.338 181.656 119.37 182.804 119.37 182.804Z" fill="black"/>
<path id="Vector_86" opacity="0.1" d="M122.969 169.379C122.883 169.644 122.026 177.151 119.541 178.035Z" fill="black"/>
<path id="Vector_87" opacity="0.1" d="M125.539 171.417C125.539 171.417 123.311 179.455 120.484 179.978Z" fill="black"/>
<path id="Vector_88" opacity="0.1" d="M114.229 195.523C114.229 195.523 117.999 195.611 118.513 193.138Z" fill="black"/>
<path id="Vector_89" opacity="0.1" d="M119.37 211.604C119.884 211.693 127.938 216.992 125.882 218.052C123.825 219.112 119.37 211.604 119.37 211.604Z" fill="black"/>
<path id="Vector_90" opacity="0.1" d="M120.1 256.338V257.154C120.059 258.398 120.042 259.228 120.042 259.228L106.943 265.665L106.885 257.158C106.885 257.158 106.885 257.119 106.885 257.045V256.469L112.128 256.642L120.1 256.338Z" fill="black"/>
<path id="Vector_91" d="M122.55 268.707L111.624 273.017L106.72 270.028L106.772 265.937L106.885 257.154L112.128 257.328L120.1 257.041V263.192L122.55 268.707Z" fill="#FF748F"/>
<path id="Vector_92" opacity="0.1" d="M122.54 268.711L111.614 273.021L106.71 270.032L106.761 265.941C107.473 266.902 108.382 267.689 109.424 268.245C110.466 268.801 111.614 269.112 112.786 269.156C112.786 269.156 116.632 264.21 118.972 262.775C119.139 262.673 119.323 262.606 119.516 262.579C119.708 262.552 119.903 262.566 120.09 262.62V263.196L122.54 268.711Z" fill="black"/>
<path id="Vector_93" d="M112.797 269.859C112.797 269.859 108.341 269.919 106.107 265.549C106.107 265.549 102.93 268.711 102.871 275.377C102.813 282.044 102.93 282.274 102.93 282.274C102.93 282.274 115.751 281.758 118.15 282.676C120.549 283.595 140.674 281.871 140.674 281.871C140.674 281.871 142.01 278.25 135.934 276.985C129.857 275.72 124.84 269.053 124.672 268.767C124.504 268.481 121.327 262.055 118.986 263.468C116.645 264.881 112.797 269.859 112.797 269.859Z" fill="#5D618C"/>
<path id="Vector_94" opacity="0.1" d="M124.614 52.7359L123.335 52.5558L124.134 52.5346L124.614 52.7359Z" fill="black"/>
<path id="Vector_95" opacity="0.1" d="M142.305 74.202C142.306 75.7091 142.137 77.2112 141.801 78.6782C141.515 78.6021 141.241 78.483 140.989 78.3249C140.622 78.0811 140.255 77.7455 139.824 77.7844C139.57 77.8254 139.333 77.9379 139.138 78.1094C137.109 79.6392 135.601 82.1546 133.134 82.6421C133.381 81.8976 133.414 81.0952 133.23 80.3316C132.706 80.8741 132.064 81.2791 131.358 81.5127C130.651 81.7464 129.9 81.8017 129.168 81.6741C129.347 81.233 129.367 80.741 129.227 80.2857C127.489 81.2889 125.68 82.1546 123.815 82.8753C123.75 82.522 123.688 82.197 123.623 81.8578C120.998 83.1791 121.204 87.6624 118.578 88.9837C117.015 89.7716 114.808 89.2063 113.729 90.6265C113.688 90.6831 113.65 90.7396 113.612 90.7996C110.807 89.0308 108.5 86.5363 106.919 83.5637C105.338 80.5912 104.54 77.2442 104.602 73.855C104.664 70.4658 105.586 67.1525 107.275 64.2439C108.964 61.3354 111.361 58.9329 114.23 57.2751C117.098 55.6173 120.337 54.7618 123.625 54.7936C126.913 54.8254 130.136 55.7434 132.974 57.4564C135.812 59.1695 138.165 61.6179 139.801 64.5586C141.436 67.4992 142.297 70.8299 142.298 74.2196L142.305 74.202Z" fill="black"/>
<path id="Vector_96" d="M124.614 52.0258C123.03 51.351 121.423 50.6727 119.72 50.4713C118.016 50.27 116.179 50.6127 114.894 51.7821C113.866 52.7148 113.06 54.2127 111.69 54.2551C111.021 54.2798 110.404 53.9336 109.805 53.6333C108.091 52.7854 105.949 52.3049 104.403 53.4284C103.17 54.3293 102.707 55.9827 102.505 57.5266C102.302 59.0705 102.254 60.7062 101.542 62.0664C101.099 62.9143 100.428 63.6068 99.8725 64.3805C98.4613 66.3463 97.798 68.7772 98.0081 71.2131C98.1513 72.4177 98.4014 73.6063 98.7553 74.7637L100.154 79.8547C100.863 82.4408 101.586 85.0622 102.936 87.3621C104.287 89.6621 106.364 91.6405 108.9 92.234C110.428 92.5873 112.279 92.2976 113.136 90.9445C113.355 90.5912 113.496 90.2132 113.736 89.8846C114.798 88.4715 117.022 89.0332 118.585 88.2454C121.21 86.9241 121.005 82.4408 123.63 81.1195L123.825 82.1334C125.688 81.4117 127.496 80.5472 129.233 79.5473C129.374 80.0025 129.354 80.4938 129.179 80.9357C129.91 81.0616 130.66 81.0053 131.366 80.7718C132.071 80.5383 132.713 80.1342 133.236 79.5932C133.421 80.3569 133.388 81.1592 133.141 81.9038C135.608 81.4127 137.116 78.8972 139.145 77.3675C139.341 77.1985 139.578 77.0874 139.83 77.046C140.266 77.0071 140.629 77.3428 140.996 77.583C141.631 77.9805 142.378 78.1442 143.115 78.0473C143.852 77.9504 144.536 77.5987 145.054 77.0495C146.133 75.8413 146.181 73.983 145.835 72.379C145.489 70.7751 144.807 69.2453 144.659 67.6096C144.443 65.3803 145.197 63.0521 144.505 60.9323C143.919 59.1341 142.384 57.8304 140.735 56.9755C139.087 56.1205 137.308 55.6223 135.625 54.8557C134.028 54.1173 132.541 53.1281 130.882 52.5452C128.483 51.7008 125.875 51.7679 123.342 51.8386" fill="#794F6A"/>
<path id="Vector_97" d="M124.939 117.834C124.939 117.834 127.681 98.8159 104.205 99.7556L92.3806 101.377C92.3806 101.377 103.66 103.469 106.374 103.776L106.662 103.818C109.174 104.292 117.859 103.702 124.939 117.834Z" fill="#F9A826"/>
<path id="Vector_98" opacity="0.1" d="M109.945 193.675V193.456C119.572 184.874 109.945 193.675 109.945 193.675Z" fill="black"/>
<path id="Vector_99" d="M89.2345 194.343C87.8549 194.47 86.4671 194.47 85.0875 194.343L56.2475 151.071C56.7787 149.637 58.0502 148.782 59.2669 148.277L89.2345 194.343Z" fill="#575988"/>
<path id="Vector_100" d="M70.5321 148.012L69.1613 149.69C69.1613 149.69 58.7631 131.884 56.5285 122.84C56.9535 121.812 57.5944 121.593 57.5944 121.593C57.5944 121.593 58.6774 120.769 60.4219 119.473C61.0696 123.727 63.2802 134.127 70.5321 148.012Z" fill="#575988"/>
<path id="Vector_101" d="M78.1577 142.529L75.4159 144.119C67.9309 135.088 67.2934 119.918 67.362 113.873L69.336 112.411C69.6034 120.349 78.1577 142.529 78.1577 142.529Z" fill="#575988"/>
<path id="Vector_102" opacity="0.1" d="M85.3549 140.946C85.2692 142.094 82.099 153.753 86.7258 155.696C91.3525 157.639 85.3549 140.946 85.3549 140.946Z" fill="black"/>
<path id="Vector_103" opacity="0.1" d="M95.2938 160.995C95.4651 161.614 97.0074 181.751 100.349 180.161C103.69 178.572 101.891 155.608 101.891 155.608L95.2938 160.995Z" fill="black"/>
<path id="Vector_104" opacity="0.1" d="M254.601 81.6211C254.608 87.3395 252.46 92.837 248.61 96.954C247.042 97.2965 245.425 97.3252 243.847 97.0388C243.04 96.9334 242.272 96.6159 241.619 96.1167C240.99 95.5182 240.497 94.7834 240.176 93.9652C238.925 91.1918 238.284 87.9875 236.529 85.6133C234.775 83.2392 231.214 82.197 229.521 84.6312C228.599 85.9525 228.445 87.9839 227.214 88.899C225.737 90.0012 223.787 88.7046 222.639 87.1325C219.246 82.5397 220.408 73.5095 213.937 72.2412L213.677 72.1953C215.752 67.6345 219.273 63.9394 223.66 61.7201C228.047 59.5008 233.037 58.8899 237.806 59.9884C242.575 61.0868 246.839 63.8289 249.892 67.7619C252.945 71.6949 254.607 76.5837 254.601 81.6211V81.6211Z" fill="black"/>
<path id="Vector_105" d="M214.28 71.9126C213.231 71.7042 212.015 71.7325 211.312 70.7998C210.897 70.2486 210.777 69.4855 210.678 68.7613C210.256 65.6311 210.027 62.2713 211.237 59.4344C213.221 54.7815 218.327 53.227 222.766 53.5732C227.204 53.9195 231.56 55.6259 235.998 55.3397C239.261 55.1207 242.479 53.8205 245.731 54.1915C248.305 54.4883 250.704 55.806 253.018 57.1521C255.184 58.4098 257.398 59.7629 258.933 61.9463C261.188 65.1436 261.613 69.5597 261.675 73.7038C261.75 78.5687 261.418 83.6208 259.437 87.9027C256.565 94.1171 250.159 97.816 244.189 96.7032C243.382 96.5978 242.615 96.2803 241.962 95.7811C241.334 95.1815 240.843 94.4469 240.522 93.6295C239.268 90.8526 238.627 87.6518 236.872 85.2742C235.117 82.8965 231.557 81.8614 229.863 84.2955C228.942 85.6133 228.787 87.6483 227.557 88.5633C226.08 89.6621 224.13 88.3655 222.982 86.7969C219.589 82.2005 220.75 73.1774 214.28 71.9126Z" fill="#945B79"/>
<path id="Vector_106" d="M266.435 61.6424C269.701 63.2499 271.967 66.3801 274.095 69.3937C275.867 71.8985 277.701 74.5765 277.934 77.6643C278.026 78.929 277.845 80.215 278.078 81.4586C278.897 85.85 284.247 87.8179 285.809 92.0009C286.536 93.9722 286.306 96.1662 285.988 98.2506C285.529 101.266 284.913 104.253 284.14 107.199C283.678 108.966 283.153 110.803 283.506 112.598C283.777 113.99 284.534 115.212 285.138 116.484C286.711 119.914 286.981 123.804 287.101 127.595C287.221 131.386 287.218 135.244 288.318 138.862C289.418 142.479 291.845 145.899 295.344 147.069C294.169 147.895 292.806 148.393 291.389 148.517C291.18 149.701 291.834 150.905 292.76 151.654C293.685 152.403 294.816 152.792 295.92 153.163C295.167 153.711 294.3 154.071 293.389 154.216C292.478 154.36 291.547 154.285 290.669 153.997C289.206 153.502 287.996 152.442 286.827 151.403L280.257 145.578C279.379 144.845 278.568 144.032 277.834 143.147C273.584 137.703 276.121 129.453 273.749 122.914C271.816 117.597 266.62 113.28 267.097 107.623C267.227 106.041 267.816 104.543 268.31 103.031C270.06 97.5447 270.61 91.7272 269.92 85.9961C269.23 80.265 267.316 74.7628 264.317 69.8848C263.567 68.6836 262.696 67.4753 261.445 66.857C259.543 65.9208 256.825 66.3236 255.746 64.4547C255.173 63.469 255.06 61.7343 255.009 60.6285C258.498 59.8053 263.173 60.035 266.435 61.6424Z" fill="#945B79"/>
<path id="Vector_107" opacity="0.1" d="M99.5332 121.458C101.137 110.591 114.315 106.666 121.31 114.972C123.332 117.381 125.124 120.02 126.139 122.66C129.566 131.58 129.823 132.375 129.823 132.375C129.823 132.375 108.66 136.615 108.831 139.794L99.2351 123.984C99.2351 123.984 99.307 122.995 99.5332 121.458Z" fill="black"/>
<path id="Vector_108" d="M99.5332 120.398C101.137 109.531 114.315 105.606 121.31 113.912C123.332 116.321 125.124 118.961 126.139 121.6C129.566 130.52 129.823 131.315 129.823 131.315C129.823 131.315 108.66 135.555 108.831 138.734L99.2351 122.925C99.2351 122.925 99.307 121.935 99.5332 120.398Z" fill="#DCE6F2"/>
<path id="Vector_109" opacity="0.1" d="M105.49 106.454C105.747 106.896 115.857 119.614 121.169 121.427C126.481 123.239 105.49 106.454 105.49 106.454Z" fill="black"/>
<path id="Vector_110" opacity="0.1" d="M62.0498 147.57C62.0498 147.57 88.7821 180.073 92.2093 193.233Z" fill="black"/>
<path id="Vector_111" opacity="0.1" d="M63.0779 117.54C63.0779 117.54 68.9042 148.63 80.214 161.702C91.5238 174.774 103.176 197.031 103.176 197.031" stroke="black" stroke-width="2" stroke-miterlimit="10"/>
<g id="Group_3" opacity="0.1">
<path id="Vector_112" d="M145.677 72.3083C145.7 73.3417 145.354 74.3476 144.704 75.1347C144.186 75.6838 143.503 76.0356 142.765 76.1325C142.028 76.2294 141.281 76.0657 140.646 75.6681C140.279 75.4279 139.916 75.0923 139.481 75.1311C139.228 75.1725 138.992 75.2836 138.795 75.4526C136.866 76.9082 135.406 79.2541 133.141 79.9006C133.221 80.5248 133.16 81.1596 132.962 81.7554C135.43 81.2643 136.938 78.7489 138.967 77.2191C139.163 77.0501 139.4 76.939 139.652 76.8976C140.087 76.8587 140.451 77.1944 140.817 77.4346C141.453 77.8321 142.2 77.9958 142.937 77.8989C143.674 77.802 144.357 77.4503 144.875 76.9011C145.934 75.6999 145.999 73.8911 145.677 72.3083Z" fill="black"/>
<path id="Vector_113" d="M144.31 65.6806C144.337 65.9703 144.385 66.2564 144.44 66.5426C144.44 64.7761 144.848 62.939 144.44 61.2432C144.447 62.6847 144.166 64.2109 144.31 65.6806Z" fill="black"/>
<path id="Vector_114" d="M132.894 77.6642C132.37 78.2052 131.729 78.6093 131.023 78.8428C130.317 79.0764 129.567 79.1326 128.836 79.0068C129.011 78.5649 129.031 78.0735 128.891 77.6183C127.153 78.6183 125.345 79.4827 123.483 80.2044L123.287 79.1905C120.662 80.5118 120.868 84.9951 118.242 86.3164C116.68 87.1042 114.472 86.5354 113.393 87.9557C113.153 88.2772 113.012 88.6622 112.793 89.0155C111.936 90.3686 110.086 90.6619 108.557 90.305C106.014 89.7115 103.941 87.7331 102.594 85.4332C101.247 83.1332 100.52 80.5118 99.8108 77.9257L98.4125 72.8347C98.1829 71.9868 97.9499 71.1389 97.7991 70.2734C97.7991 70.5348 97.7991 70.7927 97.8368 71.0506C97.9799 72.2552 98.23 73.4437 98.5839 74.6012L99.9822 79.6922C100.692 82.2783 101.415 84.8997 102.765 87.1996C104.115 89.4995 106.192 91.478 108.728 92.0715C110.257 92.4248 112.108 92.1351 112.965 90.782C113.184 90.4287 113.324 90.0507 113.564 89.7221C114.627 88.3089 116.851 88.8707 118.414 88.0828C121.039 86.7615 120.833 82.2782 123.459 80.9569L123.654 81.9709C125.513 81.2487 127.318 80.3842 129.052 79.3848C129.192 79.8399 129.172 80.3313 128.997 80.7732C129.692 80.8919 130.405 80.846 131.081 80.6391C131.756 80.4323 132.377 80.0698 132.897 79.5791C133.043 78.9496 133.042 78.2932 132.894 77.6642V77.6642Z" fill="black"/>
</g>
<path id="Vector_115" opacity="0.1" d="M126.279 100.957C124.435 102.052 120.151 104.49 119.284 104.073C118.359 103.631 108.262 99.9888 104.89 98.7735C105.113 97.5935 105.918 94.5905 108.588 93.6048C109.128 93.4549 109.696 93.4392 110.243 93.5589L120.484 97.7348C123.352 99.2363 125.734 100.632 126.279 100.957Z" fill="black"/>
<path id="Vector_116" d="M126.279 99.8969C124.435 100.992 120.151 103.43 119.284 103.013C118.359 102.571 108.262 98.9289 104.89 97.7136C105.113 96.5336 105.918 93.5306 108.588 92.5449C109.128 92.3951 109.696 92.3793 110.243 92.499L120.484 96.6749C123.352 98.1764 125.734 99.5719 126.279 99.8969Z" fill="#DCE6F2"/>
<path id="Vector_117" opacity="0.1" d="M261.685 73.2834C261.586 77.265 261.061 81.2466 259.454 84.7266C256.582 90.941 250.177 94.6399 244.206 93.5271C243.399 93.4217 242.632 93.1042 241.979 92.605C241.351 92.0054 240.86 91.2708 240.539 90.4534C239.285 87.6766 238.644 84.4757 236.889 82.0981C235.135 79.7204 231.574 78.6853 229.881 81.1194C228.959 82.4372 228.804 84.4722 227.574 85.3872C226.097 86.486 224.147 85.1894 222.999 83.6208C219.606 79.028 220.768 69.9943 214.297 68.7295C213.248 68.521 212.032 68.5493 211.329 67.6166C210.914 67.0655 210.794 66.3024 210.695 65.5781C210.578 64.7267 210.479 63.8576 210.421 62.985C210.302 64.9137 210.394 66.8502 210.695 68.7577C210.794 69.482 210.914 70.2451 211.329 70.7962C212.032 71.7289 213.248 71.7007 214.297 71.9091C220.768 73.1739 219.606 82.197 222.999 86.8004C224.143 88.3513 226.083 89.6479 227.574 88.5669C228.804 87.6518 228.945 85.6169 229.881 84.2991C231.574 81.8649 235.135 82.9036 236.889 85.2777C238.644 87.6518 239.288 90.8562 240.539 93.6331C240.86 94.4505 241.351 95.185 241.979 95.7846C242.632 96.2838 243.399 96.6013 244.206 96.7067C250.177 97.8196 256.582 94.1206 259.454 87.9062C261.435 83.6243 261.767 78.5722 261.692 73.7074C261.685 73.5519 261.685 73.4106 261.685 73.2834Z" fill="black"/>
<g id="mums-hair">
<g id="Group_4" opacity="0.1">
<path id="Vector_118" d="M284.096 90.2415C284.822 92.2128 284.593 94.4068 284.274 96.4912C283.816 99.5041 283.199 102.489 282.427 105.433C281.964 107.199 281.44 109.037 281.793 110.831C282.063 112.223 282.821 113.446 283.424 114.718C284.997 118.148 285.268 122.038 285.388 125.829C285.508 129.619 285.504 133.477 286.604 137.095C287.317 139.561 288.679 141.774 290.539 143.49C289.556 142.133 288.805 140.613 288.318 138.996C287.218 135.378 287.218 131.52 287.101 127.729C286.985 123.938 286.711 120.049 285.138 116.622C284.548 115.339 283.767 114.117 283.506 112.736C283.164 110.941 283.678 109.1 284.14 107.334C284.913 104.382 285.53 101.388 285.988 98.3672C286.306 96.2828 286.536 94.0853 285.809 92.1139C285.223 90.5347 284.096 89.2876 282.872 88.0758C283.385 88.7293 283.797 89.4596 284.096 90.2415V90.2415Z" fill="black"/>
<path id="Vector_119" d="M295.344 147.21C294.428 146.898 293.567 146.435 292.794 145.839C291.824 146.359 290.764 146.676 289.675 146.772C289.466 147.955 290.121 149.16 291.046 149.909C291.23 150.062 291.425 150.2 291.629 150.322C291.39 149.805 291.31 149.224 291.399 148.658C292.812 148.53 294.17 148.031 295.344 147.21V147.21Z" fill="black"/>
<path id="Vector_120" d="M259.721 65.1188C258.416 64.4758 256.726 64.4617 255.444 63.9141C255.517 64.1596 255.614 64.3965 255.736 64.6207C256.815 66.4861 259.533 66.0833 261.435 67.0231C261.675 67.1474 261.905 67.2927 262.12 67.4576C261.526 66.481 260.7 65.6762 259.721 65.1188V65.1188Z" fill="black"/>
<path id="Vector_121" d="M293.089 152.068C291.776 152.645 290.305 152.716 288.945 152.269C287.482 151.774 286.272 150.715 285.103 149.676L278.533 143.85C278.221 143.574 277.913 143.295 277.611 143.013C277.68 143.108 277.749 143.207 277.824 143.302C278.557 144.188 279.368 145.002 280.247 145.733L286.817 151.562C287.986 152.598 289.195 153.661 290.659 154.156C291.537 154.444 292.469 154.518 293.38 154.373C294.291 154.228 295.157 153.867 295.909 153.318C294.918 153.038 293.968 152.617 293.089 152.068Z" fill="black"/>
<path id="Vector_122" d="M272.382 67.6307C274.153 70.1356 275.987 72.8135 276.22 75.9013C276.313 77.1661 276.131 78.4521 276.364 79.6957C276.734 81.6847 278.04 83.1791 279.5 84.6029C278.794 83.7304 278.306 82.6935 278.078 81.5823C277.845 80.3351 278.026 79.0492 277.934 77.7844C277.701 74.6966 275.877 72.0186 274.095 69.5173C272.807 67.6908 271.463 65.8254 269.883 64.278C270.764 65.352 271.583 66.4967 272.382 67.6307Z" fill="black"/>
</g>
</g>
<path id="Vector_123" opacity="0.1" d="M257.346 60.307C257.346 60.307 255.29 63.8399 261.116 66.7828L261.459 65.8395L257.346 60.307Z" fill="black"/>
<path id="Vector_124" d="M257.004 60.307C257.004 60.307 254.947 63.8399 260.774 66.7828L261.116 65.8395L257.004 60.307Z" fill="#FF6584"/>
<path id="Vector_125" d="M338.129 260.267C338.129 260.267 340.014 262.807 337.262 266.626C334.51 270.445 332.241 273.692 333.15 276.084C333.15 276.084 337.303 268.965 340.689 268.866C344.075 268.767 341.848 264.549 338.129 260.267Z" fill="#F9A826"/>
<path id="Vector_126" opacity="0.1" d="M338.129 260.267C338.294 260.512 338.424 260.78 338.517 261.062C341.814 265.058 343.568 268.785 340.398 268.877C337.447 268.965 333.907 274.406 333.057 275.78C333.084 275.886 333.119 275.988 333.156 276.094C333.156 276.094 337.31 268.976 340.696 268.877C344.082 268.778 341.848 264.549 338.129 260.267Z" fill="black"/>
<path id="Vector_127" d="M341.632 263.503C341.632 264.397 341.532 265.121 341.413 265.121C341.293 265.121 341.197 264.415 341.197 263.503C341.197 262.592 341.317 263.03 341.437 263.03C341.556 263.03 341.632 262.609 341.632 263.503Z" fill="#FFD037"/>
<path id="Vector_128" d="M342.831 264.57C342.071 264.997 341.406 265.255 341.351 265.146C341.296 265.036 341.861 264.602 342.622 264.174C343.383 263.747 343.085 264.058 343.143 264.174C343.202 264.291 343.596 264.143 342.831 264.57Z" fill="#FFD037"/>
<path id="Vector_129" d="M328.173 260.267C328.173 260.267 326.288 262.807 329.04 266.626C331.792 270.445 334.061 273.692 333.153 276.084C333.153 276.084 329.003 268.965 325.613 268.866C322.224 268.767 324.468 264.549 328.173 260.267Z" fill="#F9A826"/>
<path id="Vector_130" opacity="0.1" d="M328.173 260.267C328.009 260.512 327.878 260.78 327.786 261.062C324.489 265.058 322.734 268.785 325.904 268.877C328.855 268.965 332.395 274.406 333.245 275.78C333.217 275.887 333.183 275.992 333.143 276.094C333.143 276.094 328.992 268.976 325.603 268.877C322.213 268.778 324.468 264.549 328.173 260.267Z" fill="black"/>
<path id="Vector_131" d="M324.684 263.503C324.684 264.397 324.784 265.121 324.904 265.121C325.024 265.121 325.12 264.415 325.12 263.503C325.12 262.592 325 263.03 324.88 263.03C324.76 263.03 324.684 262.609 324.684 263.503Z" fill="#FFD037"/>
<path id="Vector_132" d="M323.485 264.57C324.246 264.997 324.907 265.255 324.965 265.146C325.024 265.036 324.455 264.602 323.694 264.174C322.933 263.747 323.231 264.058 323.173 264.174C323.115 264.291 322.724 264.143 323.485 264.57Z" fill="#FFD037"/>
<path id="Vector_133" d="M325.284 275.762C325.284 275.762 330.548 275.593 332.138 274.43C333.729 273.268 340.237 271.873 340.631 273.724C341.025 275.575 348.541 283.012 342.598 283.061C336.656 283.111 328.79 282.107 327.207 281.115C325.623 280.122 325.284 275.762 325.284 275.762Z" fill="#A8A8A8"/>
<path id="Vector_134" opacity="0.2" d="M342.701 282.432C336.758 282.482 328.893 281.479 327.31 280.486C326.103 279.726 325.623 277.009 325.462 275.759H325.284C325.284 275.759 325.627 280.136 327.203 281.132C328.78 282.129 336.652 283.128 342.595 283.079C344.308 283.079 344.901 282.436 344.871 281.503C344.624 282.079 343.976 282.432 342.701 282.432Z" fill="black"/>
<path id="Vector_135" d="M90.0124 269.534C90.6417 269.006 91.1006 268.294 91.3285 267.492C91.4964 266.679 91.1605 265.704 90.41 265.407C89.5669 265.075 88.6655 265.679 87.9835 266.287C87.3015 266.895 86.5167 267.591 85.6222 267.46C86.0822 267.031 86.4263 266.485 86.6209 265.878C86.8156 265.271 86.854 264.621 86.7326 263.994C86.6936 263.734 86.587 263.49 86.4241 263.288C85.958 262.772 85.1081 262.994 84.546 263.401C82.7639 264.69 82.2669 267.188 82.2601 269.431C82.0784 268.622 82.2292 267.778 82.2258 266.958C82.2224 266.139 81.9996 265.192 81.321 264.761C80.9018 264.522 80.4292 264.4 79.9501 264.407C79.1482 264.376 78.2571 264.46 77.7087 265.065C77.0233 265.814 77.2049 267.075 77.7978 267.891C78.3907 268.707 79.2887 269.237 80.1146 269.806C80.7793 270.213 81.3463 270.77 81.7734 271.434C81.8233 271.528 81.8646 271.626 81.8968 271.728H86.8971C88.027 271.145 89.075 270.407 90.0124 269.534V269.534Z" fill="#F9A826"/>
<g id="Plant">
<path id="Vector_136" d="M58.44 276.072C58.44 276.072 53.6419 259.22 59.3413 246.813C61.7713 241.625 62.5048 235.766 61.4319 230.112C60.8995 227.433 60.1309 224.809 59.1357 222.273" stroke="#535461" stroke-width="2" stroke-miterlimit="10"/>
<path id="Vector_137" d="M62.6967 214.433C62.6967 216.497 59.0672 222.488 59.0672 222.488C59.0672 222.488 55.4378 216.482 55.4378 214.433C55.4378 213.441 55.8202 212.489 56.5008 211.788C57.1815 211.086 58.1046 210.692 59.0672 210.692C60.0298 210.692 60.953 211.086 61.6336 211.788C62.3143 212.489 62.6967 213.441 62.6967 214.433V214.433Z" fill="#F9A826"/>
<path id="Vector_138" d="M68.6942 225.873C67.6044 227.608 61.4011 230.603 61.4011 230.603C61.4011 230.603 61.5108 223.538 62.6006 221.81C63.1332 221.001 63.9522 220.438 64.8821 220.244C65.8119 220.049 66.7788 220.237 67.5755 220.769C68.3722 221.3 68.9355 222.131 69.1446 223.086C69.3537 224.04 69.192 225.04 68.6942 225.873V225.873Z" fill="#F9A826"/>
<path id="Vector_139" d="M68.4303 245.428C66.6413 246.357 59.8177 245.714 59.8177 245.714C59.8177 245.714 63.3752 239.68 65.1642 238.747C65.5909 238.514 66.0583 238.371 66.5392 238.327C67.0201 238.282 67.5047 238.337 67.9647 238.488C68.4247 238.64 68.8509 238.884 69.2182 239.207C69.5855 239.53 69.8866 239.925 70.1039 240.369C70.3212 240.814 70.4503 241.299 70.4836 241.795C70.5169 242.292 70.4538 242.79 70.2979 243.261C70.1421 243.732 69.8966 244.166 69.5759 244.538C69.2553 244.91 68.8658 245.213 68.4303 245.428Z" fill="#F9A826"/>
<path id="Vector_140" d="M64.9997 260.174C63.3889 261.404 56.5585 261.941 56.5585 261.941C56.5585 261.941 59.074 255.373 60.6711 254.143C61.0514 253.822 61.491 253.584 61.9632 253.443C62.4355 253.302 62.9306 253.262 63.4185 253.324C63.9064 253.386 64.377 253.55 64.8016 253.806C65.2262 254.061 65.596 254.403 65.8886 254.81C66.1812 255.217 66.3905 255.682 66.5038 256.175C66.617 256.668 66.6319 257.18 66.5475 257.679C66.4631 258.178 66.2812 258.655 66.0127 259.08C65.7443 259.504 65.395 259.868 64.986 260.149L64.9997 260.174Z" fill="#F9A826"/>
<path id="Vector_141" d="M53.7825 231.003C55.2185 232.444 61.9152 233.935 61.9152 233.935C61.9152 233.935 60.2736 227.078 58.8308 225.636C58.492 225.279 58.0873 224.996 57.6405 224.803C57.1938 224.609 56.7141 224.51 56.2297 224.511C55.7452 224.512 55.2659 224.613 54.8199 224.808C54.3738 225.003 53.9702 225.288 53.6327 225.646C53.2952 226.005 53.0308 226.429 52.8548 226.894C52.6789 227.36 52.5952 227.856 52.6085 228.356C52.6218 228.855 52.7319 229.346 52.9324 229.801C53.1328 230.255 53.4195 230.664 53.7756 231.003H53.7825Z" fill="#F9A826"/>
<path id="Vector_142" d="M49.9885 248.303C51.7775 249.233 58.6011 248.593 58.6011 248.593C58.6011 248.593 55.047 242.555 53.2546 241.626C52.8293 241.405 52.3659 241.273 51.8909 241.236C51.4159 241.2 50.9386 241.26 50.4862 241.414C50.0338 241.567 49.6152 241.811 49.2543 242.132C48.8934 242.452 48.5973 242.843 48.3828 243.281C48.1684 243.72 48.0398 244.197 48.0044 244.687C47.969 245.177 48.0276 245.669 48.1767 246.135C48.3258 246.602 48.5625 247.033 48.8734 247.405C49.1842 247.777 49.5632 248.082 49.9885 248.303V248.303Z" fill="#F9A826"/>
<path id="Vector_143" d="M48.5285 265.643C50.1393 266.869 56.9698 267.409 56.9698 267.409C56.9698 267.409 54.4542 260.838 52.8571 259.609C52.082 259.076 51.1378 258.871 50.2199 259.035C49.3021 259.2 48.4809 259.723 47.9264 260.495C47.3719 261.266 47.1266 262.228 47.2412 263.182C47.3559 264.135 47.8217 265.006 48.5422 265.615L48.5285 265.643Z" fill="#F9A826"/>
<path id="Vector_144" d="M62.6967 214.433C62.6967 216.497 59.0672 222.488 59.0672 222.488C59.0672 222.488 55.4378 216.482 55.4378 214.433C55.4378 213.441 55.8202 212.489 56.5008 211.788C57.1815 211.086 58.1046 210.692 59.0672 210.692C60.0298 210.692 60.953 211.086 61.6336 211.788C62.3143 212.489 62.6967 213.441 62.6967 214.433V214.433Z" fill="#F9A826"/>
<path id="Vector_145" d="M68.6942 225.873C67.6044 227.608 61.4011 230.603 61.4011 230.603C61.4011 230.603 61.5108 223.538 62.6006 221.81C63.1332 221.001 63.9522 220.438 64.8821 220.244C65.8119 220.049 66.7788 220.237 67.5755 220.769C68.3722 221.3 68.9355 222.131 69.1446 223.086C69.3537 224.04 69.192 225.04 68.6942 225.873V225.873Z" fill="#F9A826"/>
<path id="Vector_146" d="M68.4303 245.428C66.6413 246.357 59.8177 245.714 59.8177 245.714C59.8177 245.714 63.3752 239.68 65.1642 238.747C65.5909 238.514 66.0583 238.371 66.5392 238.327C67.0201 238.282 67.5047 238.337 67.9647 238.488C68.4247 238.64 68.8509 238.884 69.2182 239.207C69.5855 239.53 69.8866 239.925 70.1039 240.369C70.3212 240.814 70.4503 241.299 70.4836 241.795C70.5169 242.292 70.4538 242.79 70.2979 243.261C70.1421 243.732 69.8966 244.166 69.5759 244.538C69.2553 244.91 68.8658 245.213 68.4303 245.428Z" fill="#F9A826"/>
<path id="Vector_147" d="M64.9997 260.174C63.3889 261.404 56.5585 261.941 56.5585 261.941C56.5585 261.941 59.074 255.373 60.6711 254.143C61.0514 253.822 61.491 253.584 61.9632 253.443C62.4355 253.302 62.9306 253.262 63.4185 253.324C63.9064 253.386 64.377 253.55 64.8016 253.806C65.2262 254.061 65.596 254.403 65.8886 254.81C66.1812 255.217 66.3905 255.682 66.5038 256.175C66.617 256.668 66.6319 257.18 66.5475 257.679C66.4631 258.178 66.2812 258.655 66.0127 259.08C65.7443 259.504 65.395 259.868 64.986 260.149L64.9997 260.174Z" fill="#F9A826"/>
<path id="Vector_148" d="M53.7825 231.003C55.2185 232.444 61.9152 233.935 61.9152 233.935C61.9152 233.935 60.2736 227.078 58.8308 225.636C58.492 225.279 58.0873 224.996 57.6405 224.803C57.1938 224.609 56.7141 224.51 56.2297 224.511C55.7452 224.512 55.2659 224.613 54.8199 224.808C54.3738 225.003 53.9702 225.288 53.6327 225.646C53.2952 226.005 53.0308 226.429 52.8548 226.894C52.6789 227.36 52.5952 227.856 52.6085 228.356C52.6218 228.855 52.7319 229.346 52.9324 229.801C53.1328 230.255 53.4195 230.664 53.7756 231.003H53.7825Z" fill="#F9A826"/>
<path id="Vector_149" d="M49.9885 248.303C51.7775 249.233 58.6011 248.593 58.6011 248.593C58.6011 248.593 55.047 242.555 53.2546 241.626C52.8293 241.405 52.3659 241.273 51.8909 241.236C51.4159 241.2 50.9386 241.26 50.4862 241.414C50.0338 241.567 49.6152 241.811 49.2543 242.132C48.8934 242.452 48.5973 242.843 48.3828 243.281C48.1684 243.72 48.0398 244.197 48.0044 244.687C47.969 245.177 48.0276 245.669 48.1767 246.135C48.3258 246.602 48.5625 247.033 48.8734 247.405C49.1842 247.777 49.5632 248.082 49.9885 248.303V248.303Z" fill="#F9A826"/>
<path id="Vector_150" d="M48.5285 265.643C50.1393 266.869 56.9698 267.409 56.9698 267.409C56.9698 267.409 54.4542 260.838 52.8571 259.609C52.082 259.076 51.1378 258.871 50.2199 259.035C49.3021 259.2 48.4809 259.723 47.9264 260.495C47.3719 261.266 47.1266 262.228 47.2412 263.182C47.3559 264.135 47.8217 265.006 48.5422 265.615L48.5285 265.643Z" fill="#F9A826"/>
<path id="Vector_151" d="M47.0582 275.012C47.0582 275.012 52.9222 273.811 54.485 272.211C56.0478 270.61 63.0873 267.809 63.8687 269.808C64.6501 271.808 74.4246 278.612 67.7792 279.814C61.1338 281.015 52.1408 281.414 50.1839 280.612C48.2269 279.81 47.0582 275.012 47.0582 275.012Z" fill="#A8A8A8"/>
<path id="Vector_152" opacity="0.2" d="M67.7792 279.068C61.1304 280.269 52.1408 280.669 50.1839 279.87C48.6964 279.259 47.6614 276.337 47.2536 274.97L47.0582 275.012C47.0582 275.012 48.2303 279.814 50.1839 280.612C52.1374 281.41 61.1304 281.015 67.7792 279.814C69.695 279.46 70.2434 278.651 70.0377 277.623C69.8664 278.294 69.2049 278.807 67.7792 279.068Z" fill="black"/>
</g>
</g>
</svg>
