<svg width="714" height="614" viewBox="0 0 714 614" fill="none" xmlns="http://www.w3.org/2000/svg">
<g id="undraw_cooking_re_g99p 1" clip-path="url(#clip0_2_454)">
<g id="Group">
<path id="uuid-0cad5e93-2d15-4fdd-8268-876a8a194bb8-465" d="M347.873 451.902C364.859 457.2 375.893 470.26 372.519 481.069C369.145 491.878 352.642 496.342 335.651 491.039C328.835 489.014 322.603 485.386 317.477 480.458L245.792 457.098L257.471 423.692L326.9 450.268C333.921 449.13 341.113 449.69 347.873 451.902Z" fill="#FFB6B6"/>
<path id="Vector" d="M194.305 206.79H194.305C177.212 204.766 161.474 216.318 158.29 233.233C146.933 293.566 122.811 424.033 125.987 427.209C130.123 431.345 284.518 476.836 284.518 476.836L302.439 438.238L200.428 388.611L222.8 244.309C225.64 225.99 212.714 208.97 194.305 206.79Z" fill="#E6E6E6"/>
</g>
<g id="Group_2">
<path id="uuid-0ff57380-e4ac-4dac-ba07-d0dae17f701d-466" d="M380.312 514.658C363.739 521.132 346.965 517.828 342.847 507.28C338.729 496.731 348.826 482.936 365.406 476.463C371.993 473.786 379.126 472.725 386.208 473.37L456.776 446.829L468.526 480.21L397.71 502.831C392.939 508.107 386.973 512.162 380.312 514.658Z" fill="#A0616A"/>
<path id="Vector_2" d="M482.08 228.147H482.08C498.998 224.978 515.477 235.447 519.79 252.11C535.176 311.543 568.011 440.094 565.055 443.477C561.207 447.881 410.218 503.645 410.218 503.645L389.744 466.338L488.189 409.968L456.17 267.495C452.105 249.409 463.858 231.559 482.08 228.147Z" fill="#E6E6E6"/>
</g>
<path id="Vector_3" d="M182.197 215.457L190.605 162.907L133.851 139.785L125.443 219.661L182.197 215.457Z" fill="#FFB6B6"/>
<path id="Vector_4" d="M513.663 223.728L505.255 171.178L562.009 148.056L570.417 227.932L513.663 223.728Z" fill="#A0616A"/>
<g id="Group_3">
<path id="Vector_5" d="M167.855 179.8C199.818 179.8 225.73 153.888 225.73 121.925C225.73 89.961 199.818 64.0494 167.855 64.0494C135.891 64.0494 109.98 89.961 109.98 121.925C109.98 153.888 135.891 179.8 167.855 179.8Z" fill="#FFB6B6"/>
<path id="Vector_6" d="M163.236 44.1155C164.911 45.0931 167.154 43.614 167.691 41.7507C168.228 39.8875 167.602 37.9091 166.982 36.0719L163.859 26.823C161.645 20.2634 159.294 13.4747 154.498 8.48203C147.258 0.946433 135.753 -0.970597 125.396 0.418223C112.096 2.20173 98.973 9.40372 92.7887 21.3132C86.6044 33.2226 89.2373 49.8405 100.412 57.2708C84.4857 75.5249 78.9341 95.8684 79.8106 120.078C80.6872 144.287 107.069 166.567 124.274 183.622C128.116 181.293 131.609 170.378 129.496 166.413C127.383 162.447 130.411 157.854 127.794 154.201C125.177 150.549 122.988 156.365 125.634 152.733C127.303 150.442 120.788 145.17 123.269 143.798C135.27 137.164 139.262 122.205 146.8 110.749C155.892 96.9318 171.452 87.5745 187.92 86.0221C196.991 85.167 206.572 86.7158 214.008 91.9822C221.443 97.2485 226.257 106.659 224.532 115.606C228.998 111.072 231.221 104.428 230.382 98.1195C229.544 91.8113 225.663 85.978 220.168 82.7677C223.509 71.7193 220.647 59.0105 212.892 50.4609C205.138 41.9113 173.681 43.3674 162.36 45.6175" fill="#2F2E41"/>
<path id="Vector_7" d="M161.478 86.3574C146.483 87.9761 135.657 100.964 126.515 112.959C121.246 119.873 115.727 127.508 115.859 136.199C115.993 144.987 121.868 152.524 124.676 160.852C129.265 174.464 124.792 190.659 113.867 199.986C124.662 202.034 136.332 193.94 138.196 183.111C140.366 170.505 130.81 158.338 131.941 145.597C132.938 134.372 141.784 125.733 149.305 117.339C156.825 108.946 163.888 97.8089 160.428 87.0837" fill="#2F2E41"/>
</g>
<path id="Vector_8" d="M188.754 206.645L123.23 188.724L55.6823 216.295L26.7332 445.13L192.157 450.645V413.734C192.157 413.734 221.106 377.583 215.591 325.198L210.077 272.814L188.754 206.645Z" fill="#E6E6E6"/>
<path id="Vector_9" d="M219.038 299.696L89.4562 292.803L54.3037 392.746C54.3037 392.746 10.8801 452.712 3.98748 496.825C-2.90516 540.938 1.23042 602.972 1.23042 602.972H208.683L192.157 413.734C192.157 413.734 230.739 330.023 226.267 315.549C221.795 301.074 219.038 299.696 219.038 299.696Z" fill="#3F3D56"/>
<path id="Vector_10" d="M119.784 189.413H88.0777V306.588H119.784V189.413Z" fill="#3F3D56"/>
<path id="Vector_11" d="M217.659 215.605H185.953V312.102H217.659V215.605Z" fill="#3F3D56"/>
<path id="Vector_12" d="M504.35 217.673L569.873 199.752L637.421 227.323L666.37 456.159L500.947 461.673V424.762C500.947 424.762 484.025 387.026 500.257 336.916C516.111 287.978 483.026 283.843 483.026 283.843L504.35 217.673Z" fill="#E6E6E6"/>
<path id="Vector_13" d="M474.065 310.724L603.647 303.831L638.799 403.775C638.799 403.775 660.167 472.012 667.059 516.125C673.952 560.237 691.873 614 691.873 614H484.421L478.201 432.034L474.065 310.724Z" fill="#3F3D56"/>
<path id="Vector_14" d="M573.319 317.617H605.026V200.442H573.319V317.617Z" fill="#3F3D56"/>
<path id="Vector_15" d="M475.444 323.131H507.15V226.634H475.444V323.131Z" fill="#3F3D56"/>
<path id="Vector_16" d="M526.48 187.843C566.514 187.843 598.967 155.39 598.967 115.356C598.967 75.323 566.514 42.8696 526.48 42.8696C486.447 42.8696 453.994 75.323 453.994 115.356C453.994 155.39 486.447 187.843 526.48 187.843Z" fill="#A0616A"/>
<path id="Vector_17" d="M597.78 154.679C597.78 154.679 562.71 112.595 548.682 116.102C534.654 119.609 543.422 124.869 543.422 124.869L508.352 86.2926C508.352 86.2926 480.296 75.7717 453.994 109.088C453.994 109.088 438.212 81.0322 453.994 65.2508C469.775 49.4694 475.036 51.2229 478.543 42.4554C482.05 33.688 506.598 26.6741 506.598 26.6741C506.598 26.6741 505.19 14.0545 512.908 20.3643C520.626 26.6741 539.901 26.6741 539.901 26.6741C539.901 26.6741 540.011 19.6601 547.854 26.6741C555.696 33.688 564.464 30.181 564.464 30.181C564.464 30.181 564.464 42.3174 570.601 42.3864C576.738 42.4554 587.259 33.688 589.012 40.702C590.766 47.7159 603.04 51.2229 604.794 72.2647C606.547 93.3066 597.78 154.679 597.78 154.679V154.679Z" fill="#2F2E41"/>
<g id="Group_4">
<path id="Vector_18" d="M328.942 262.869L385.064 368.964L377.371 373.033L321.249 266.938C320.434 265.398 321.023 263.486 322.563 262.672L324.676 261.554C326.216 260.74 328.127 261.329 328.942 262.869Z" fill="#3F3D56"/>
<path id="Vector_19" d="M422.44 409.059C408.162 405.378 393.225 411.897 386.06 424.784C377.088 440.921 366.839 454.16 370.271 422.608C374.05 387.873 353.672 359.819 369.686 351.348C385.701 342.877 402.237 368.622 428.264 391.931C452.387 413.535 438.476 413.194 422.44 409.059Z" fill="#3F3D56"/>
</g>
<g id="Group_5">
<path id="uuid-8a6d9a0c-21d4-418f-b978-ee87cdca3434-467" d="M339.796 284.332C355.981 276.941 372.914 279.302 377.616 289.604C382.317 299.905 373.008 314.243 356.815 321.634C350.388 324.675 343.325 326.133 336.219 325.885L267.245 356.331L253.647 323.659L323.087 297.113C327.556 291.579 333.285 287.196 339.796 284.332Z" fill="#FFB6B6"/>
<path id="Vector_20" d="M61.8453 204.293L61.8452 204.293C47.7653 214.193 43.7555 233.3 52.6736 248.021C84.4827 300.531 153.594 413.787 158.08 414.033C163.92 414.352 309.258 345.185 309.258 345.185L296.842 304.48L187.754 335.606L108.106 213.215C97.9945 197.677 77.0097 193.63 61.8453 204.293Z" fill="#E6E6E6"/>
</g>
<path id="Vector_21" d="M346.693 447.268L533.131 348.647L556.018 391.913C575.76 429.235 561.487 475.563 524.166 495.305L472.972 522.386C435.651 542.128 389.322 527.855 369.58 490.534L346.693 447.268Z" fill="#F9A826"/>
<path id="uuid-2a872263-818a-415e-b1e5-3dd60f2f0b07-468" d="M504.649 513.56C488.464 520.952 471.531 518.594 466.828 508.293C462.125 497.993 471.433 483.653 487.624 476.26C494.051 473.218 501.113 471.76 508.22 472.007L577.189 441.55L590.792 474.22L521.356 500.776C516.888 506.311 511.159 510.694 504.649 513.56Z" fill="#A0616A"/>
<path id="Vector_22" d="M644.922 221.954H644.922C662.015 219.929 677.753 231.482 680.937 248.397C692.295 308.73 716.417 439.197 713.24 442.373C709.104 446.509 554.709 492 554.709 492L536.788 453.402L638.799 403.775L616.427 259.473C613.587 241.154 626.513 224.134 644.922 221.954Z" fill="#E6E6E6"/>
</g>
<defs>
<clipPath id="clip0_2_454">
<rect width="713.526" height="614" fill="white"/>
</clipPath>
</defs>
</svg>
